/* XPM */
static char *d948a20b03ba45d7b8c327b9d0c164e8is313LTwDZ8SNO59[] = {
/* columns rows colors chars-per-pixel */
"64 64 238 2 ",
"   c #39190B",
".  c #2C0A06",
"X  c #3A2E18",
"o  c #4A1C0A",
"O  c #581A04",
"+  c #4A1C13",
"@  c #592708",
"#  c #502C13",
"$  c #682707",
"%  c #752B04",
"&  c #6C340A",
"*  c #783606",
"=  c #6A3A16",
"-  c #753814",
";  c #672214",
":  c #462C30",
">  c #65372D",
",  c #56441B",
"<  c #79460A",
"1  c #6A4717",
"2  c #794817",
"3  c #735417",
"4  c #7A631D",
"5  c #584624",
"6  c #555329",
"7  c #674A27",
"8  c #675728",
"9  c #665A30",
"0  c #724D29",
"q  c #5A6A32",
"w  c #59622E",
"e  c #786726",
"r  c #75752A",
"t  c #666534",
"y  c #756C33",
"u  c #687839",
"i  c #6F6E2F",
"p  c #5A2A5A",
"a  c #5B2A6A",
"s  c #68246E",
"d  c #654F53",
"f  c #724473",
"g  c #777172",
"h  c #5E535C",
"j  c #8B2B01",
"k  c #883804",
"l  c #864509",
"z  c #94550B",
"x  c #894A15",
"c  c #865316",
"v  c #965815",
"b  c #954F1A",
"n  c #A35815",
"m  c #B25E1E",
"M  c #8B6517",
"N  c #986515",
"B  c #9E7216",
"V  c #A86619",
"C  c #AC721C",
"Z  c #A77517",
"A  c #B07318",
"S  c #8A5226",
"D  c #8D6524",
"F  c #976A29",
"G  c #8F7227",
"H  c #A87626",
"J  c #B77A25",
"K  c #AE6E2C",
"L  c #95775F",
"P  c #57843C",
"I  c #67823A",
"U  c #74893A",
"Y  c #5E9A44",
"T  c #599743",
"R  c #6C8B41",
"E  c #738B42",
"W  c #649D45",
"Q  c #6E9744",
"!  c #749343",
"~  c #759B45",
"^  c #779E48",
"/  c #6AA147",
"(  c #6EA348",
")  c #67A046",
"_  c #74A649",
"`  c #79A64A",
"'  c #76A84A",
"]  c #7BAB4C",
"[  c #75A147",
"{  c #B48518",
"}  c #AE8D1A",
"|  c #AE8128",
" . c #B68B28",
".. c #BC992A",
"X. c #A98237",
"o. c #B88C35",
"O. c #B8983A",
"+. c #BEA733",
"@. c #C38E1D",
"#. c #C6942C",
"$. c #C5842C",
"%. c #C3A436",
"&. c #C8AA32",
"*. c #8E834A",
"=. c #84AC4B",
"-. c #86B24E",
";. c #8AB44E",
":. c #93BA51",
">. c #8EB750",
",. c #95826C",
"<. c #B3A053",
"1. c #C99946",
"2. c #CBAB44",
"3. c #D3AD45",
"4. c #D7B949",
"5. c #C8BA5E",
"6. c #D6BA57",
"7. c #CCB14F",
"8. c #E5B854",
"9. c #D7BA62",
"0. c #C9B772",
"q. c #A7C655",
"w. c #9CC053",
"e. c #D4C458",
"r. c #E3C65A",
"t. c #EACC55",
"y. c #D9C866",
"u. c #D9C978",
"i. c #D5CE71",
"p. c #E8CC66",
"a. c #E6D367",
"s. c #E3CC79",
"d. c #E7D678",
"f. c #F3DD7D",
"g. c #F2DC6A",
"h. c #FCE774",
"j. c #EEE07E",
"k. c #7A338C",
"l. c #76598E",
"z. c #77738B",
"x. c #76718F",
"c. c #81309A",
"v. c #8D7897",
"b. c #964FAB",
"n. c #A248B8",
"m. c #9473A9",
"M. c #A972B4",
"N. c #895C8B",
"B. c #B273C9",
"V. c #7F8194",
"C. c #8A8999",
"Z. c #928C9D",
"A. c #958F96",
"S. c #999799",
"D. c #8E8F90",
"F. c #A8A599",
"G. c #B9BC98",
"H. c #8D8CA4",
"J. c #888CA7",
"K. c #9888A7",
"L. c #9B9AAA",
"P. c #9796A7",
"I. c #9A98B2",
"U. c #A399AA",
"Y. c #A79CB8",
"T. c #A98EB0",
"R. c #9DA1A9",
"E. c #9EA1B3",
"W. c #A3A4AD",
"Q. c #A8A6AE",
"!. c #BEBEAA",
"~. c #A3A3B3",
"^. c #ABACB3",
"/. c #A4A4B9",
"(. c #ABA7B9",
"). c #B4ACBC",
"_. c #AEB3B7",
"`. c #BDBEB5",
"'. c #B4B3BD",
"]. c #BDBDBC",
"[. c #B3B5B7",
"{. c #A19E9C",
"}. c #C4BDA9",
"|. c #C1BCBC",
" X c #C3BCB6",
".X c #C2BF9F",
"XX c #BDC1B3",
"oX c #BBC1BC",
"OX c #BDC4A8",
"+X c #DCD68B",
"@X c #CACA98",
"#X c #D4CB98",
"$X c #DCD692",
"%X c #DCDC9B",
"&X c #D8D798",
"*X c #CBC78B",
"=X c #E9DC88",
"-X c #E6DA96",
";X c #EED88B",
":X c #EBE686",
">X c #F6E988",
",X c #EAE796",
"<X c #F2ED95",
"1X c #EFF096",
"2X c #CECBA4",
"3X c #C7C7AA",
"4X c #D3CAA9",
"5X c #D8D5A6",
"6X c #C3C2B3",
"7X c #C7C6B8",
"8X c #D4D3B5",
"9X c #CFCEAC",
"0X c #E1DEA6",
"qX c #E4E5A6",
"wX c #EEE7AF",
"eX c #DCE497",
"rX c #B598C8",
"tX c #B388C7",
"yX c #AEABC2",
"uX c #B7ABC5",
"iX c #B4B2C3",
"pX c #BDBDC2",
"aX c #BCBBCA",
"sX c #B8B6C7",
"dX c #BEBAD2",
"fX c #C2BBC3",
"gX c #C5B6C8",
"hX c #C5BAD2",
"jX c #BAC1C5",
"kX c #C3C4CD",
"lX c #C6C7C9",
"zX c #C9C7D6",
"xX c #D7D7DC",
"cX c #D2D0D0",
"vX c #D9D6E5",
"bX c #DFCEE5",
"nX c #E7E7F2",
"mX c #E1D5DE",
/* pixels */
"] ] ] ] ] ] ] ] ] ] ] ] ] ] ] ] ] ] ] ] ] ] ] ] ] ] ] ] ] ] ] ] ] ] ] ] ] ] ] ] ] ] ] ] ] ] ] ] ] ] ] ] ] ] ] ] ] ] ] ] ] ] ] ] ",
"] ] ] ] ] ] ] ] ] ] ] ] ] ] ] ] ] ] ] ] ] ] ] ] ] ] ] ] ` ~ u > I ^ ] ] ] ] ] ] ] ] ] ] ] ] ] ] ] ] ] ] ] ] ] ] ] ] ] ] ] ] ] ] ",
"] ] ] ] ] ] ] ] ] ] ] ] ] ] ] ] ] ] ] ] ] ] ] ] ] ] ] R q , o * # 5 u R ] ] ] ] ] ] ] ] ] ] ] ] ] ] ] ] ] ] ] ] ] ] ] ] ] ] ] ] ",
"] ] ] ] ] ] ] ] ] ] ] ] ] ] ] ] ] ] ] ] ] ] ] ] ] ] u #   & * C * &   # u ] ] ] ] ] ] ] ] ] ] ] ] ] ] ] ] ] ] ] ] ] ] ] ] ] ] ] ",
"] ] ] ] ] ] ] ] ] ] ] ] ] ] ] ] ] ] ] ] ] ] ] ] I # - $ l H  .4. .C l $ * : u ] ] ] ] ] ] ] ] ] ] ] ] ] ] ] ] ] ] ] ] ] ] ] ] ] ",
"] ] ] ] ] ] ] ] ] ] ] ] ] ] ] ] ] ] ] ] ] ] ` 6 X @ j j J f.>X>X>Xg.J j j $   6 ` ] ] ] ] ] ] ] ] ] ] ] ] ] ] ] ] ] ] ] ] ] ] ] ",
"] ] ] ] ] ] ] ] ] ] ] ] ' ' ] ] ] ] ] ] ] ' i $ @ J j n 3.>X+X1X:X:X3.n j V @ ; y ] ] ] ] ] ] ] ] ] ] ] ] ] ] ] ] ] ] ] ] ] ] ] ",
"] ] ] ] ] ] ] ] ] ] ] ' W / ] ] ] ] ] ] ! P = * c @.v  .d.,X&X0X5X,Xd. .b #.c * - Q ^ ] ] ] ] ] ] ] ] ] ] ] ] ] ] ] ] ] ] ' ] ] ",
"] ] ] ] ] ] ] _ ' ] ] ' W / _ _ ] ] _ _ 9 X & n $.&.X.9.-X2X3XcX6X4X-Xe.X.4. .n * X u ] ] ] ] ] ] ] ] ] ] ] ] ] ] ] ] ] ] -.] ' ",
"] ] ] ] ] ] _ W / ] ] ] ] _ W W =._ W I S . 2 o.3.+.6.5X6X6X6X`.7X6X6X&X4.6.3.{ D . 0 U ] ] ] ] ] ] ] ] ] ] ] ] ] ] ] ] ;.q.:._ ",
"] ] ] ] ] ] _ W W ] ] ] ] _ T Y =.R P 1 K O M r.f.y.e.}. X].pXpX].|.`.3X6.a.h.2.<.O n 3 R E ] ] ] ] ] ] ] ] ] ] ] ] ] ' ;.q.:._ ",
"] ] ] ] ] ] ' W / ' ] ' ] _ W W ] q X c $.% N a.,X>Xe. X|.].pXpXpX].].}.6.:X>Xe.O.% $.3 X t ] ] ] ] ] ] ] ] ] ] ] ] ] ] ;.q.:.] ",
"] ] ] ] ] ] ] ] _ W Y W ] ] ] ' u #   o.3.N 2.s.&X,X,X X`.oX].].].].].}.5.&X%X:Xd.v 8.o.o # E ] ] ] ] ] ] ] ] ] ] ] -.q.:._ -.q.",
"] ] ] ] ] ] ] ] _ W W / _ ] ] ] t + o o.h.} 6.*X2X5XwX6X`.].].].].`.].}.0.3X8XqX>X} h.o.o + y ] ] ] ] ] ] ] ] ] ] ] -.q.:.] ;.q.",
"] ] ] ] ] ] ] ] ] ] ] ' Y W ] ] i o x 6.>X<.-X}.!.!.6X`.].pX].].].].`.|.!.`. X3X%X<.>X6.x o y ] ] ] ] ] ] ] ] ] ] ] ' ' ;.q.:._ ",
"] ] ] ] ] ] ] ] ] ] ] ' W W ] _ 8 x l s.&X0X.X].`.|.pXpXpXpX].pXpX].pX].].pXfX].}.qX$Xs.l x 1 ] ] ] ] ] ] ] ] ] ] ] ] ] ;.q.:._ ",
"] ] ] ] ] ] ] ] ] ] ] ] ] ] ] t o V z +X2X9X X].].].pXpX].pX].].pXpX].].pXpXfX].`.8X5Xs.z V o t ] ] ] ] ] ] ] ] ] ] ] ] ' _ ' ] ",
"] ] ] ] ] ] ] ] ] ] ] ] ] ] [ 7 @ #.C s.@X`.fXfXpX].`.].`.].].].].].].].].].].oX].|.2Xs.Z @.@ 0 ~ ] ] ] ] ] ] ] ] ] ] ] ] ] ] ] ",
"] ] ] ] ] ] ] ] ] ] ] ] ] ] t = v 6.4.,X2X|.].].pX].].].].].].].].].].].].].].].].].9X,X3.4.b = w ( ] ] ] ] ] ] ] ] ] ] ] ] ] ] ",
"] ] ] ] ] ] ] ] ] ] ] ] ] ] 5 $ n H f.%X6X].].].].].].].].].].].].].].].].].].].].].9X%Xf.H n @ , / ] ] ] ] ] ] ] ] ] ] ] ] ] ] ",
"] ] ] ] ] ] ] ] ] ] ] ] ] ] 0 O n B u.9XoX].].].].].].].].].].].].].].].].].].].].].`.9Xu.C n @ 8 _ ] ] ] ] ] ] ] ] ] ] ] ] ] ] ",
"] ] ] ] ] ] ] ] ] ] ] ] ] ] 3 O x y.,X3X].|.|.].].].].].].].].].].].].].].].].].].].].6X-Xr.x O 3 ] ] ] ] ] ] ] ] ] ] ] ] ] ] ] ",
"] ] ] ] ] ] ] ] ] ] ] ] ] ] e v @ 6.-XXX].fXfX].].].].].].].].].].].].].].].].].].].].6X-X6.@ v D ] ] ] ] ] ] ] ] ] ] ] ] ] ] ] ",
"] ] ] ] ] ] ] ] ] ] ] ] ] ] e { * 9.#XpXpX].].].].].].].].].].].].].].].].].].].].].].6X@X6.*  .G ] ] ] ] ] ] ] ] ] ] ] ] ] ] ] ",
"] ] ] ] ] ] ] ] ] ] ] ] ! R e p.N 9.4XpXpX].].].].].].].].].].].].].].].].].].].].].pXpX2X6.N p.e E ! ] ] ] ] ] ] ] ] ] ] ] ] ] ",
"] ] ] ] ] ] ] ] ] ] ] ] t 7 8 C >X5.6X].].].pXpX].].].].].].].].].].].].].].].].].].].].3X5.>XZ 8 9 8 ] ] ] ] ] ] ] ] ] ] ] ] ] ",
"] ] ] ] ] ] ] ] ] ] ] ] = t 1 C j.$X6XXX`.].pXpX|.|.].].].].].].].].].].].].].].].].].].3X$Xf.C = 5 = ] ] ] ] ] ] ] ] ] ] ] ] ] ",
"] ] ] ] ] ] _ W ) ] ] U b 6 @ A a.5X6XoX].].].].|.|.fXpXfXgXfX|.].].].oX].pX].].].pX].oX6X&Xa.C @ @ b U ] ] ] ] ] ] ] ] ] ] ] ] ",
"] ] ] ] ] ] _ W W ] ] r K @ $ J 6.5X6X].|.|.pXpX].7XpXgXrXtXm.hXpXpXfX].].fX].].].].jXpX7X&X4.C $ & K r ] ] ] ] ] ] ] ] ] ] ] ] ",
"] ] ] ] ] ] ' / / ' ' r 8.3 $ % 6.2X`.].].|.].].|.|.).M.n.k.a p T.fXpX`.|.fXpX].].].].fX`.@X6.% $ K 8.r ] ] ] ] ] ] ] ] ] ] ] ] ",
"] ] ] ] ] ] ] ] _ Y T I o.g. .l 9.2X`.].fX|.].].].gXM.n.k.a p l.L._.].`.|.pXpX]. X].|.|.XX3X9.< o.p.o.U ] ] ] ] ] ] ] ] ] ] ] ] ",
"] ] ] ] ] ] ] ] _ W Y W M h.p.| 5.2X X].fXpXpXpX].gXM.n.s p p Y.Q.W.oX`.|.pXpX]. X].|.|.XX3X6.{ r.a.M ~ ] ] ] ] ] ] ] ] ] ] ] ] ",
"] ] ] ] ] ] ] ] ] ] ] I M 4.:X=X=X9X`.].|.].pXpX|.fXK.n.k.p f bXI.P.sXgX|.].].].|.].].oX].3X=Xd.=X2.M q ] ] ] ] ] ] ] ] ] ] ] ] ",
"] ] ] ] ] ] ] ] ] ] ` # < ..d.+X&X6X].].|.].].].|.fXH.B.b.f v.hXH.hXv.M.T.].oXpX|.].].].].XX5X$X=X .= X ] ] ] ] ] ] ] ] ] ] ] ] ",
"] ] ] ] ] ] ] ] ] ] [ > O @.4.<X#X].pX].].].].].|.gXm.v.m.v.z.vXP.Q.M.k.p pX].pXpX].].pXpX`.2X<X4.A O > ~ ] ] ] ] ] ] ] ] ] ] ] ",
"] ] ] ] ] ] ] ] ] ] u   x l ..+X8X].].].].].pXpXfXK.k.K.K.: g yXiX).rXm.m.Z.].pXpX|.|.|.].`.9X$X..z x   u ' _ _ ' ] ] ] ' _ _ ] ",
"] ] ] ] ] ] ] ] ] ] 3 @ * V 6.#X|.].].].].].pXpXfXK.f sXZ.d h P.pX^.uXuXY.v.^.].].].].].].].XX4X6.N 0 7 d Q W Y ( ] ] ] _ Y / ] ",
"] ] ] ] ] ] ] ] ] ] e K l z 2.&X}.`.`.].].].].].'.Z.uXiXhXP.P.pXlXvXP.yXL.dXL.pX].oXpX].].].XX&X5.,.,.L 9 / W Y / ] ] ] _ T W ] ",
"] ] ] ] ] ] ] ] ] ] ! v 4.} a.wX9X`.].].pXpX].].~.zXZ./.vXsXgXxXzXY.yX/.zXI.(._.].].jX].fX].9XqXG.F.0.M q / W W ( ] ] _ ( W ( ] ",
"] ] ] ] ] ] ] ] ] ! 6 @ 4.:X$X5X8X7X].].pXpX].pXP.zXlXP.I.b.k.f x.P./.C.P.H.(.L.pX].].].].oX8XF.^.*X6.$ . R W Y / ] _ Y / ] ] ] ",
"] ] ] ] ] ] ] ] ] U 2 % z g.1X&X}.|.].].].].].'.~.lXlXz.sXM.c.a P.vXnX/.sXz.).L.aX].|.|.].pX[.S.F.0.z % 2 U / / _ ] _ W _ ] ] ] ",
"] ] ] ] ] ] ] ] ] ! x n k v p.%X9X`.|.].].].].~./.hXE.pX^.K.tXl.fXpXzXP.L.vXkXC.P.].pXpX].pXA.mX*.v k v 2 ~ ] ] ] ] ] ] ] ] ] ] ",
"] ] ] ] ] ] ] ] ] ] e V #.A %.1X5X9X6XpX].|.pX~.Y.Y.J.].].W.zXZ.pXfXkXH.z.P.(.W._.].].].oXlX~.).X.{ #.N , _ ] ] ] ] ] ] ] ] ] ] ",
"] ] ] ] ] ] ] ] ] ^ u N t.4.y.<X1X5X6XpXpX].pXC.P.I.H.].].~.zXW.pXxXvXI.H.J.E.R.].].].].7XcXW.S.0.r.t.v   ! ] ] ] ] ] ] ] ] ] ] ",
"] ] ] ] ] ] ] ] ] ^ 0 $ Z y.+X$XqX2X`.pX].].Z.H./.E.~.fX'.Z.xX].pXpXxXx.H./.R.].].].pX].|.D.cXE &X7.Z $ = ! ] ] ] ] ] ] ] ] ] ] ",
"] ] ] ] ] ] ] ] ] ] 2 $ % H y.#X!.].].].oX].pXU.Z.C.yXP.L._.vXpX].cXzXH.sXL.].].].oXjXpXpXC.cX,.u.B % % 3 ] ] ] ] ] ] ] ] ] ] ] ",
"] ] ] ] ] ] ] ] ] ] 4 K l z 7.&XOX].pXpXoX].pX'.W.L.iXkXcXpX/.H.pXlXkX'.iXI.(.pXpX].].pX(.E.lX,.7.z l K 8 ] ] ] ] ] ] ] ] ] ] ] ",
"] ] ] ] ] ] ] ] ] ` ! c t.%.d.qX8X`.].pX].].pXpXL.zXP.'.kXxXyXx./.lXcXkX~.iXI.sXpX|.].|.L.zXW.wXd.&.t.c 6 ` ] ] ] ] ] ] ] ] ] ] ",
"] ] ] ] ] ] ] ] ] ! w @ 6.:X$X&X9X|.pXpX].].pX'.Y.P.pXlXxXsXI.I.W.P.~.pXW.I.P./.fX].]._.^.zXQ.5X$X>X4.@   ! ] ] ] ] ] ] ] ] ] ] ",
"] ] ] ] ] ] ] ] ] E b % l r.<X%X6X].pX].`.oXpXP.iX/.pXzXS.[.aX/.pXzXI.Z.xXI.(.P.pX].pXL.kXxXD.%X<X7.l $ c U ] ] ] ] ] ] ] ] ] ] ",
"] ] ] ] ] ] ] ] ] ~ * m k l r.$X5X`.fX].XX`.pXH.H.sX(.L.oX].aXL.kXkXE.V.nXpXC.sXC.pX_.W.xXQ.8X$Xr.l l V * ~ ] ] ] ] ] ] ] ] ] ] ",
"] ] ] ] ] ] ] ] ] ] e V #.A &.1X%X9X6X].`.].aXH.H.iXaXyXpX].].C.xXpXjXC.aXU.sXL.H.W.^.kXlX{.5X1X%.{ #.V e =.] ] ] ] ] ] ] ] ] ] ",
"] ] ] ] ] ] ] ] ] ~ u c 4.a.d.,X1X5X X].].].aXC.yXW.zXZ.aX].`.[.iXlXoXzXv.zXrXuXY.~.kXlXF.3XqX,Xd.a.4.c y =.' _ ] ] ] ] ] ] ] ] ",
"] ] ] ] ] ] ] ] ] ~ 7 & H i.+X$XqX3X XpXpX].pXU.Y.hXY.Z.pX].].].P.jX].lXI.bXm.T.(.zXfXkXU.9X,X$X$X5.H @ 7 =.>.:.] ( _ ] ] ] ] ] ",
"] ] ] ] ] ] ] ] ] ] ` 8 + @ F ;X,X2X!.].pX].].U.M.rXbXC.pX].pX`.].W.lXzX~.hXB.N.(.zXaXW.}.2X,X;XF @ o 9 _ >.w.q.-.W / ] ] ] ] ] ",
"] ] ] ] ] ] ] ] ] ] ] 9 # O k N O.d.5X7X].jXjX(.l.rXxXC.oXpXpX].|.].C.U.zXK.tXN.~.E.P.7X0Xs.O.N * O + 8 [ :.q.q.-.Y W ] ] ] ] ] ",
"] ] ] ] ] ] ] ] ] ] ] ~ G H 1.o.o.y.+X3XXXoXaXY.l.rXiX[.].].pXpX].pX]._./.v.T.x.Y.'.`.3X&Xu.o.o.1.K F =.;.;.-.;.] / ( ] ] ] ] ] ",
"] ] ] ] ] ] ] ] ] ] ] ] I @ N +.y.,XqX7X].pXz.v.~.C.K.|.`.OX}. X|.|.`.XXjXJ./.yX/.pX`.3XqX0Xy.%.N = I ;.q.] W Y / ] ] ] ] ] ] ] ",
"] ] ] ] ] ] ] ] ] ] ] ] u *.H 3.a.d.-X}.A.z.H.kX^.nXS.9X8X5X&X&X&X&X5X9X7XQ.^.).uXS.8X5X-Xd.a.&.X.G u -.q.] W W ( ] ] ] ] ] ] ] ",
"] ] ] ] ] ] ] ] ] ] ] ] ] ~ i D v Z ..u.8XD.S.S.W.F.*Xd.3.1.3.} %.%.2.d.L G.OXD.C.P.*Xy...B N D i ^ ] ] ] ] ] ] ] ] ] ] ] ] ] ] ",
"] ] ] ] ] ] ] ] ] ] ] ] ] ] ] ] ` 8 B e.d.;X=X=X=Xd.| z * 2 - 2 1 1 k b H s.d.;X,X=Xd.6.B , [ ] ] ] ] ] ] ] ] ] ] ] ] ] ] ] ] ] ",
"] ] ] ] ] ] ] ] ] ] ] ] ] ] ] ] ~ i e 4 < J J J | G r 8 r ! E ` U ! r 7 e D | J J J 3 4 e 9 ! ] ] ] ] ] ] ] ] ] ] ] ] ] ] ] ] ] ",
"] ] ] ] ] ] ] ] ] ] ] ] ] ] _ ' ] ] ] E = - = 7 U ` ] ~ ] ] ] ] ] ] ] ^ ` ~ U 1 - - 7 R ] ] ] ] ] ] ] ] ] ] ] ] ] ] ] ] ] ] ] ] ",
"] ] ] ] ] ] ] ] ] ] ] ] ] _ T Y ] ] ] ] ] _ _ ] ] ] ] ] ] ] ] ] ] ] ] ] ] ] ] ] ` ` ] ] ] ] ] ] ] ] ] ] ] ] ] ] ] ] ] ] ] ] ] ] "
};
