/* XPM */
static char *_14b6e88a3144f68cabf972eb2325a85QcBoyEF2UQxim09y[] = {
/* columns rows colors chars-per-pixel */
"64 64 200 2 ",
"   c #45223C",
".  c #5C285A",
"X  c #572A57",
"o  c #553353",
"O  c #5D2A64",
"+  c #572B76",
"@  c #602266",
"#  c #702476",
"$  c #5E495F",
"%  c #64435E",
"&  c #6B795B",
"*  c #5E4276",
"=  c #74476F",
"-  c #6E6E6A",
";  c #6C7463",
":  c #6A7B64",
">  c #7B7E64",
",  c #76777F",
"<  c #736375",
"1  c #857B79",
"2  c #599743",
"3  c #5D9A44",
"4  c #559541",
"5  c #649D45",
"6  c #63974A",
"7  c #759D4C",
"8  c #729949",
"9  c #6D865C",
"0  c #6E8A5B",
"q  c #688754",
"w  c #708B5A",
"e  c #6E9150",
"r  c #739554",
"t  c #759B52",
"y  c #7A9A5F",
"u  c #77945A",
"i  c #67A046",
"p  c #6AA147",
"a  c #6EA348",
"s  c #73A64A",
"d  c #79A54E",
"f  c #76A84A",
"g  c #7BAB4C",
"h  c #77A052",
"j  c #79A450",
"k  c #7DA25E",
"l  c #6C8463",
"z  c #7C8F6D",
"x  c #7F9C6A",
"c  c #7B8A75",
"v  c #7C8C7C",
"b  c #788478",
"n  c #7F9570",
"m  c #81AE4C",
"M  c #85B14E",
"N  c #8AB44E",
"B  c #8EB750",
"V  c #93BA51",
"C  c #9ABE53",
"Z  c #90B550",
"A  c #858F6F",
"S  c #819D6B",
"D  c #87906A",
"F  c #878B7F",
"G  c #859A79",
"H  c #839777",
"J  c #97917D",
"K  c #81A06B",
"L  c #9DC054",
"P  c #A4C455",
"I  c #ADCA57",
"U  c #AFCB58",
"Y  c #B3CE58",
"T  c #792989",
"R  c #773D90",
"E  c #783286",
"W  c #784185",
"Q  c #795C80",
"!  c #6D4883",
"~  c #76738B",
"^  c #7F7F99",
"/  c #716589",
"(  c #812F8D",
")  c #8335A9",
"_  c #865F8D",
"`  c #81658F",
"'  c #897A8A",
"]  c #856798",
"[  c #877B99",
"{  c #997B90",
"}  c #924FA5",
"|  c #9D47B0",
" . c #875DA5",
".. c #A148B5",
"X. c #9468A5",
"o. c #9E72B1",
"O. c #9D7AA8",
"+. c #A270A4",
"@. c #AB66B0",
"#. c #A473BB",
"$. c #AB72C0",
"%. c #B373CC",
"&. c #7D8A80",
"*. c #7F8194",
"=. c #868C88",
"-. c #859584",
";. c #8B9785",
":. c #8C9D84",
">. c #8C9B89",
",. c #939889",
"<. c #888998",
"1. c #938A9E",
"2. c #99859C",
"3. c #8F919B",
"4. c #969E9C",
"5. c #989E9C",
"6. c #8DA181",
"7. c #96A395",
"8. c #99A595",
"9. c #99A698",
"0. c #98A68E",
"q. c #8C8BA4",
"w. c #8B8AAF",
"e. c #938BA3",
"r. c #9493A4",
"t. c #9A95A7",
"y. c #9B9CA5",
"u. c #9492AA",
"i. c #9799AE",
"p. c #9A98AB",
"a. c #9B94AA",
"s. c #9B9AB1",
"d. c #9992B1",
"f. c #A082AA",
"g. c #A599AE",
"h. c #A39EB6",
"j. c #AA9ABA",
"k. c #B09DB3",
"l. c #A682B3",
"z. c #9DA2A2",
"x. c #9EA1AC",
"c. c #9FA3B3",
"v. c #A4AFA2",
"b. c #A4A4AD",
"n. c #A5ABAD",
"m. c #AAA9AD",
"M. c #A7B2AC",
"N. c #A5A4B4",
"B. c #A9A6B5",
"V. c #ABABB3",
"C. c #A4A4B9",
"Z. c #ABA4BA",
"A. c #ABABBD",
"S. c #A7A9B8",
"D. c #B4AEBE",
"F. c #B1B2BB",
"G. c #BBBEBE",
"H. c #B4B8BE",
"J. c #A4C389",
"K. c #BDC3BD",
"L. c #C6C3BE",
"P. c #B586C9",
"I. c #B695C6",
"U. c #B599C5",
"Y. c #AEABC2",
"T. c #BBA6C4",
"R. c #B2AEC3",
"E. c #BAAEC5",
"W. c #B4B4C1",
"Q. c #BCBCC3",
"!. c #BAB9C9",
"~. c #BAB3C9",
"^. c #BCB9D1",
"/. c #C0B8CB",
"(. c #C1BBD1",
"). c #C8B9D5",
"_. c #BFC3C3",
"`. c #BDC2CE",
"'. c #C1C3C5",
"]. c #C3C4CC",
"[. c #C6CCCB",
"{. c #C9CBCC",
"}. c #C5C9C5",
"|. c #CAD1CD",
" X c #C7C6D3",
".X c #CACBD2",
"XX c #CBCBDA",
"oX c #C8C8D6",
"OX c #D1C5DA",
"+X c #D8CFDA",
"@X c #CED1D4",
"#X c #CFD2DC",
"$X c #D5D5DD",
"%X c #D9D9DD",
"&X c #D8D8E7",
"*X c #E0CDE4",
"=X c #E0D1E6",
"-X c #E4DEF1",
";X c #EBECFA",
":X c #E3E4E9",
/* pixels */
"g g g g g g g g g g g g g g g g g g g g g g g g g g g g g g g g g g g g g g g g g g g g g g g g g g g g g g g g g g g g g g g g ",
"g g g g g g g g g g g g g g g g g g g g g g g g g g g g g g g g g g g g g g g g g g g g g g g g g g g g g g g g g g g g g g g g ",
"g g g g g g g g g g g g g g g g g g g g g g g g g g g g g g g g g g g g g g g g g g g g g g g g g g g g g g g g g g g g g g g g ",
"g g g g g g g g g g g g g g g g g g g g g g g g g g g g g g g g g g g g g g g g g g g g g g g g g g g g g g g g g g g g g g g g ",
"g g g g g g g g g g g g g g g g g g g g g g g g g g g g g g g g g g g g g g g g g g g g g g g g g g g g g g g g g g g g g g g g ",
"g g g g g g g g g g g g g g g g g g g g g g g g g g g g g g g g g g g g g g g g g g g g g g g g g g g g g g g g g g g g g g g g ",
"g g g g g g g g g g g g f f g g g g g g g f f g g g g g g g g g g g g g g g g g g g g g g g g g g g g g g g g g g g g g g g g g ",
"g g g g g g g g g g g f 5 p g g g g g g s 5 p g g g g g g g g g g g g g g g g g g g g g g g g g g g g g g g g g g g g g g f g g ",
"g g g g g g g s f g g f 5 p s s g g s s a 5 p g g g g g g g g g g g g g g g g g g g g g g g g g g g g g g g g g g g g g g M m f ",
"g g g g g g s 5 p g g g g s 5 5 m s 5 5 p f g g g g g g g g g g g g g g g g g g g g g g g g g g g g g g g g g g g g g g N P V s ",
"g g g g g g s 5 5 g g g g s 2 3 m s 5 2 p g g g g g g g g g g g g g g g g g g g g g g g g g g g g g g g g g g g g g g f N U V s ",
"g g g g g g f 5 p f g f g s 5 5 g s 5 5 p g g g g g g g g g g g g g g g g g g g g g g g g g g g g g g g g g g g g g g g N P V g ",
"g g g g g g g g s 5 3 5 g g g f 3 p g g g g g g g g g g g g g g g g g g g g g g g g g g g g g g g g g g g g g g g g M P V s M P ",
"g g g g g g g g s 5 5 p s g g g 3 p g g g g g g g g g g g g g g g g g g g g g g g s f g g g g g g g g g g g g g g g M P V g N P ",
"g g g g g g g g g g g f 3 5 g g g g g g g g g g g g g g g g g g g g g g g g g g a 3 5 g g g g g g g g g g g g g g g f f N I V s ",
"g g g g g g g g g g g f 5 5 g g g g g g g g g g f g g g g g g g g g g g g g g g a 3 5 g g g g g g g g g g g g g g g g g N I V s ",
"g g g g g g g g g g g g g g g g g g f s g g f A 1 ; 7 g g g g g g g g g g g g g g g g g g g g g g g g g g g g g g g g g f s f g ",
"g g g g g g g g g g g g g g g g g g g m g u @.| T O o e g g g g g g g g g g g f f g g g g g g g s g g g g g g g g g g g g g g g ",
"g g g g g g g g g g g g g g g g f m C P Z { ..T @ O Q ;.d g g g g g g g g g s 5 p g g g g g g s 3 p g g g g g g g g g g g g g g ",
"g g g g g g g g g g g g g g g g s m P U V +...# . X k.n.r g g g g g g g g g s 3 p g g g g g g s 4 p g g g g g g g g g g g g g g ",
"g g g g g g g g g g g g g g g g M N V C V 2...( . = +Xh.&.7 g g g g g g g g s 5 a g g g g g g f 5 s g g g g g g g g g g g g g g ",
"g g g g g g g g g g g g g g f g Y C g s M D %.} = 2.(.q.(.- > 7 g g g g g g g g g g g g g g g g g g g g g g g g g g g g g g g g ",
"g g g g g g g g g g g g g g g g P V m g N ' ] O.{ ~ &Xt.B.o.E % 7 g g g g g g g g g g g g g g g g g g g g g g g g g g g g g g g ",
"g g g g g g g g g g g g g g g g g M L P J W e.2.  < R.D.D.I.X.X.& s g g g g g g g g g g g g g g r r g g g g g g g g g g g g g g ",
"g g g g g g g g g g g g g g g g s m V L F W ~.1.% $ t.Q.V.E.T.j., t g g g g g g g g g g d t : w r d g g g g g g g g g g g g g g ",
"g g g g g g g g g g g g g g g g g g g d -.T.R.(.u.r.G.{.%Xa.A.p.^.H g g g g g g g g g d 6.-.r g g g g g g g g g g g g g g g g g ",
"g g g g g g g g g g g g f g g g g g f t XX1.S.&X~./.$XXXh.Y.S. Xi.n.d g g g g g g g g S 5.e g g g g g g g g g g g g g g g g g g ",
"g g g g g g s 5 i g g f 5 5 g g g g g :.[..Xt.d. .R * ~ u.C.<.y.q.A.x g g g g g g g n A.q g g g g g g g g g g g g g g g g g g g ",
"g g g g g g s 5 5 g g f 3 5 g g g g d 0.L.[.: H.#.) + t.&X;XC.!.~ A.>.g g g g g g d x.=.s g g g g g g g g g g g g g g g g g g g ",
"g g g g g g f p p s f s i p s s g g t N./.9.g h =.P.! Q.Q. Xu.i.&X].<.r g g g g g 0 &Xc g g g g g g g g g g g g g g g g g g g g ",
"g g g g g g g g s 3 2 5 g f 2 3 g g y N.h.l g g y OX1.Q.'.].q.~ u.A.7.j g g g g g 5.V.t g g g g g g g g g g g g g g g g g g g g ",
"g g g g g g g g s 5 5 5 g f 3 5 g g c r.s.9 g g t .Xb.Q.$X&Xp.q.w.c.K g g g g g g N.=.d g g g g g g g g g g g g g g g g g g g g ",
"g g g g g g g g g g g g g g g g g 0 3.x.x.t g d =.%XG.Q.Q.#X^ q.S.S g g g g g g 0 |.: g g g g g g g g g g g g g g g g g g g g g ",
"g g g g g g g g g g g g g g g g g g G F 9 t z y.F.:XQ.G.{..Xq.^.u g g g g g g g 0 |.: g g g g g g g g g g g g g g g g g g g g g ",
"g g g g g g g g g g g g g g g g g g d t G V. X@XQ.C.q.Q.}._.F.R.>.k g g g g g h 7.'.w g g g g g g g g g g g g g g g g g g g g g ",
"g g g g g g g g g g g g g g g g g g s H XXy.F.Q.$XY./ N.{.@X].N.W.7.g g g g g G }.n.g g g g g g s f g g g f s s f g g g f s s g ",
"g g g g g g g g g g g g g g g g g s 6 4.r.Q.{.%XQ.v s.b.r.S.Q.b.i.u.t g g g j v.K.n.g g g g g s 3 p g g g p 5 3 p g g g s 3 p g ",
"g g g g g g g g g g g g g g g g g s -.Y.Z.Q..Xz d g C.Q..Xs.3.$Xi.A.:.g g g x _.@Xr g g g g g s 4 p g g g p 5 3 p g g g s 2 5 g ",
"g g g g g g g g g g g g g g g g g s v e.Q.S.r g g s 4.'.].C.*.;XQ.<.Q.w g j 0.{.n.g g g g g g f 5 a s f g p 5 3 p g g s a 5 p g ",
"g g g g g g g g g g g g g g g g g s v <.W.!.d g s 5 q $XQ.`.<.!.g.E.g.w t v.'._.S g g g g g g g g p 5 p g p 5 3 p g s 3 p g g g ",
"g g g g g g g g g g g g g g g g s s b R.b.XX9 g s 3 6 H.].K..X[ OXU.E.z.b.].].8.d g g g g g g g g s 5 a g s p p s g s 5 s g g g ",
"g g g g g g g g g g g g g g g g 3 p ,.j.).Z.w g s 3 5 :.].G..Xd.=Xo.f.Z.oXQ.].S g g g g g g g g g g g g g g g g g g g g g g g g ",
"g g g g g g g g g g g g g g g g 2 5 ,.l.I.*X9 g s 5 5 g S .X].Z./.$._ Z.oX'.S g g g g g g g g g g g g g g g g g g g g g g g g g ",
"g g g g g g g g g g g g g g g g 2 5 r ` U.=X9 g g g g g g w 9..Xt.P.` Z.z.r g g g g g g g g g g g g g g g g g g g g g g g g g g ",
"g g g g g g g g g g g g g g g g 5 p r / j.E.d g g g g g g g d t l g.' 9.j g g g g g g g g g g g g g g g g g g g g g g g g g g g ",
"g g g g g g g g g g g g g g g g g : b h.[ H g g g g g g g g g g 0 m.V.8.g g g g g g g g g g g g g g g g g g g g g g g g g g g g ",
"g g g g g g g g g g g g g g d 0 , 3.].Z.-X9 g g g g g g g g g g M.M.m.F.:.g g g g g g g g g g g g g g g g g g g g g g g g g g g ",
"g g g g g g g g g g g g g g g J.c ;.9 9.n.t g g g g g g g g g =.h d v 9 :.t g g g g g g g g g g g g g g g g g g g g g g g g g g ",
"g g g g g g g g g g g g g g g g d j g 7 t g g g g g g g g g g t g g j g d g g g g g g g g g g g g g g g g g g g g g g g g g g g ",
"g g g g g g g g g g g g g g g g g g g g g g g g g g g g g g g g g g g g g g g g g g g g g g g g g g g g g g g g g g g g g g g g ",
"g g g g g g g g g g g g g g g g g g g g g g g g g g g g g g g g g g g g g g g g g g g g g g g g g g g f s f g g g g g g g g g g ",
"g g g g g g g g g g g g g g g g g g g g g g g g g g g g g g g g g g g g g g g g g g g g g g g g g g g g N m g g g g g g g g g g ",
"g g g g g g g g g g g g g g g g g g g g g g g g g g g g g g g g g g g g g g g g g g g g g g g g g g p N U N f s g g g g g g g g ",
"g g g g g g g g g g g g g g g g g g g g g g g g g g g g g g g g g g g g g g g g g g g g g g g g f M B N B B B V g p s g g g g g ",
"g g g g g g g g g g g g g g g g g g g g g g g g g g g g g g g g g g g g g g g g g g g g g g g g s N P V g B L P M 5 p g g g g g ",
"g g g g g g g g g g g g g g g g g g g g g g g g g g g g g g g g g g g g g g g g g g g g g g g g s N U V p V P U M 3 5 g g g g g ",
"g g g g g g g g g g g g g g g g g g g g g g g g g g g g g g g g g g g g g g g g g g g g g g g g f M V N N N M N g p a g g g g g ",
"g g g g g g g g g g g g g g g g g g g g g g g g g g g g g g g g g g g g g g g g g g g g g g g g g g s N U g 5 3 p g g g g g g g ",
"g g g g g g g g g g g g g g g g g g g g g g g g g g g g g g g g g g g g g g g g g g g g g g g g g g s M P g 5 5 p g g g g g g g ",
"g g g g g g g g g g g g g g g g g g g g g g g g g g g g g g g g g g g g g g g g g g g g g g g g g g g g g g g g g g g g g g g g ",
"g g g g g g g g g g g g g g g g g g g g g g g g g g g g g g g g g g g g g g g g g g g g g g g g g g g g g g g g g g g g g g g g ",
"g g g g g g g g g g g g g g g g g g g g g g g g g g g g g g g g g g g g g g g g g g g g g g g g g g g g g g g g g g g g g g g g ",
"g g g g g g g g g g g g g g s f g g g g g g g g g g g g g g g g g g g g g g g g g g g g g g g g g g g g g g g g g g g g g g g g ",
"g g g g g g g g g g g g g s 2 3 g g g g g g g g g g g g g g g g g g g g g g g g g g g g g g g g g g g g g g g g g g g g g g g g "
};
