/* XPM */
static char *xpm_[] = {
/* columns rows colors chars-per-pixel */
"64 64 249 2 ",
"   c #1F0515",
".  c #2F0E18",
"X  c #3A251A",
"o  c #2C3C1E",
"O  c #310D2D",
"+  c #362927",
"@  c #343628",
"#  c #303832",
"$  c #560B16",
"%  c #49131A",
"&  c #5A1619",
"*  c #470917",
"=  c #690C18",
"-  c #6A1819",
";  c #761B1A",
":  c #770718",
">  c #4A2D1B",
",  c #723018",
"<  c #49072A",
"1  c #550C36",
"2  c #4E0D2F",
"3  c #6C1732",
"4  c #432725",
"5  c #593926",
"6  c #50312E",
"7  c #6B2C2C",
"8  c #37492B",
"9  c #385427",
"0  c #3C4736",
"q  c #2E5129",
"w  c #3B6928",
"e  c #365A1E",
"r  c #46572B",
"t  c #454735",
"y  c #465834",
"u  c #53512F",
"i  c #6A4C35",
"p  c #47662A",
"a  c #4A6339",
"s  c #546937",
"d  c #57763D",
"f  c #4C7A2F",
"g  c #637337",
"h  c #4D7F1D",
"j  c #38114D",
"k  c #2F2D53",
"l  c #272468",
"z  c #2B296A",
"x  c #131472",
"c  c #55094C",
"v  c #4D1052",
"b  c #6A134C",
"n  c #45314F",
"m  c #54166B",
"M  c #670D67",
"N  c #6D0D77",
"B  c #700D76",
"V  c #68147A",
"C  c #6A106F",
"Z  c #492F68",
"A  c #78354C",
"S  c #374448",
"D  c #597743",
"F  c #657843",
"G  c #736D51",
"H  c #61585E",
"J  c #951319",
"K  c #B41715",
"L  c #892A17",
"P  c #982518",
"I  c #96391A",
"U  c #BA3917",
"Y  c #B12E1A",
"T  c #92132E",
"R  c #912B2A",
"E  c #A52828",
"W  c #B42E2A",
"Q  c #B4352A",
"!  c #A51621",
"~  c #C63317",
"^  c #CA372C",
"/  c #D73C2A",
"(  c #CE3B34",
")  c #DD3E32",
"_  c #E13C31",
"`  c #9A451E",
"'  c #B74F18",
"]  c #8F4E32",
"[  c #BA4E28",
"{  c #996A2F",
"}  c #B3733A",
"|  c #C95719",
" . c #D44D17",
".. c #E65816",
"X. c #E3550F",
"o. c #CA6413",
"O. c #DA7716",
"+. c #E66A18",
"@. c #EC7312",
"#. c #DC442D",
"$. c #DB4729",
"%. c #DD5928",
"&. c #DB4232",
"*. c #DB4731",
"=. c #CA512A",
"-. c #E75C26",
";. c #E54D29",
":. c #D96627",
">. c #D3732B",
",. c #EA6A28",
"<. c #ED732A",
"1. c #953251",
"2. c #AF2E52",
"3. c #85194C",
"4. c #CD2F54",
"5. c #E03356",
"6. c #A05F58",
"7. c #E5425C",
"8. c #CE7051",
"9. c #D64F71",
"0. c #EA4B6A",
"q. c #E86A79",
"w. c #548A2B",
"e. c #6A8C35",
"r. c #76AF28",
"t. c #7DBB1A",
"y. c #7DCB24",
"u. c #76C317",
"i. c #5D9A44",
"p. c #579642",
"a. c #5B8242",
"s. c #658B43",
"d. c #639D45",
"f. c #6B9647",
"g. c #729D49",
"h. c #6AA147",
"j. c #6EA348",
"k. c #67A046",
"l. c #74A64A",
"z. c #78A64B",
"x. c #76A84A",
"c. c #7BAB4C",
"v. c #7EA052",
"b. c #E88617",
"n. c #F38816",
"m. c #F69914",
"M. c #F7910E",
"N. c #FDBD0C",
"B. c #FCB50D",
"V. c #F9A717",
"C. c #FCB814",
"Z. c #FBA90D",
"A. c #D6922F",
"S. c #F49537",
"D. c #F08C2D",
"F. c #F7A926",
"G. c #F9B82A",
"H. c #F7B83A",
"J. c #F0A837",
"K. c #87CD1A",
"L. c #80C022",
"P. c #FDC20C",
"I. c #FCC306",
"U. c #FDC212",
"Y. c #FBC91D",
"T. c #FAC62B",
"R. c #FBD328",
"E. c #FAC738",
"W. c #FBD437",
"Q. c #81AE4C",
"!. c #85B14E",
"~. c #8AB44E",
"^. c #8EB750",
"/. c #93BA51",
"(. c #9EBE58",
"). c #B09465",
"_. c #CC8D52",
"`. c #F4B342",
"'. c #D4AB74",
"]. c #E5B869",
"[. c #DF9E56",
"{. c #A7C655",
"}. c #9CC053",
"|. c #F8C945",
" X c #FBD848",
".X c #FBD858",
"XX c #EECB4F",
"oX c #FCE24E",
"OX c #FAE344",
"+X c #FCE252",
"@X c #FBE65B",
"#X c #F8D965",
"$X c #ECC96A",
"%X c #FBE76A",
"&X c #FBEA72",
"*X c #FBE976",
"=X c #081A8B",
"-X c #071C93",
";X c #102F91",
":X c #661A86",
">X c #6A1D93",
",X c #701380",
"<X c #54338C",
"1X c #672797",
"2X c #6A2389",
"3X c #6535A7",
"4X c #6433A9",
"5X c #5C34A6",
"6X c #374CA0",
"7X c #465593",
"8X c #424F8E",
"9X c #5450AB",
"0X c #6746B8",
"qX c #6841AC",
"wX c #6574A0",
"eX c #5D52CA",
"rX c #694BCB",
"tX c #6B54CA",
"yX c #6C4ED0",
"uX c #6758D9",
"iX c #5775D1",
"pX c #6670D9",
"aX c #5F72EA",
"sX c #6879E5",
"dX c #6775EE",
"fX c #8B7381",
"gX c #A57D93",
"hX c #EE718D",
"jX c #CF7F91",
"kX c #5987F9",
"lX c #5B8AE7",
"zX c #5E92E9",
"xX c #6F8A8A",
"cX c #B18D96",
"vX c #BCA6AD",
"bX c #A0A295",
"nX c #F28996",
"mX c #CCB593",
"MX c #FAABAD",
"NX c #E497A4",
"BX c #EDDB8E",
"VX c #F9ED8D",
"CX c #FAF3A6",
"ZX c #F7EDB0",
"AX c #D4C59C",
"SX c #DCBAC2",
"DX c #F8F8F9",
"FX c #EEE6E9",
"GX c #E1CACD",
/* pixels */
"c.c.c.c.c.c.c.c.c.c.c.c.c.c.c.c.c.c.c.c.c.c.c.c.D G BX#XS.I u y y y a a a s.c.c.c.c.c.c.c.c.c.c.c.c.c.c.c.c.c.c.c.c.c.c.c.c.c.c.",
"c.c.c.c.c.c.c.c.c.c.c.c.c.c.c.c.c.c.c.c.c.c.l.D ).$X.X.X<.R 5 { ).'.mXAXmX5 F c.c.c.c.c.c.c.c.c.c.c.c.c.c.c.c.c.c.c.c.c.c.c.c.c.",
"c.c.c.c.c.c.c.c.c.c.c.c.c.c.c.c.c.c.c.c.c.c.s mXVX|.|.|.<.} BXVX%X%X%X%X%X].G F g.c.c.c.c.c.c.c.c.c.c.c.c.c.c.c.c.c.c.c.c.c.c.c.",
"c.c.c.c.c.c.c.c.c.c.c.c.c.c.c.c.c.f.s.c.c.f.G CX%X|.|.|.>.`. XoX+X.X.X.X.X#XBXAXi F z.c.c.c.c.c.c.c.c.c.c.c.c.c.c.c.c.c.c.c.c.c.",
"c.c.c.c.c.c.c.c.c.c.c.c.c.c.c.c.c.@ i F l.u mX&X+XE.|.H.=.F.W.|.J.D.[.'.'.'.$XVXCX'.i f.c.c.c.c.c.c.c.c.c.c.c.c.c.c.c.c.c.c.c.c.",
"c.c.c.c.c.c.c.c.c.c.c.c.c.c.c.c.c.y { } t i .X@X+XJ.H.D.:.,.A.].BXVXCXCXCXCXVXVX*X#X$X6.F c.c.c.c.c.c.c.c.c.c.c.c.c.c.c.c.c.c.c.",
"c.c.c.c.c.c.c.c.c.c.c.c.x.x.c.c.c.d { G., , |.+X XD.S.<.:.>.#X*X&X&X&X&X%X%X&X&XVXVX&X.X{ g c.c.c.c.c.c.c.c.c.c.c.c.c.c.c.c.c.c.",
"c.c.c.c.c.c.c.c.c.c.c.x.d.h.c.c.c.a.{ R.A.I |. XS.%.[ _.ZXZX*X&X&X%XXXJ.D.D.D.S.`..X&X&X.X} a c.c.c.c.c.c.c.c.c.c.c.c.c.c.x.c.c.",
"c.c.c.c.c.c.c.l.x.c.c.x.d.h.l.l.c.l.5 E.J.| F.E.<.:.$XVX*X&X&X&X&X|.F.n.+.| | %.,.D.`.%X%X|.} F c.c.c.c.c.c.c.c.c.c.c.c.c.!.c.x.",
"c.c.c.c.c.c.l.d.h.c.c.c.c.l.d.d.Q.l.4 |.W.b.D.S.%.H.@X%X%X&X&X*X&X#X#X$X]._._.8.$.-.<.J. X X|.{ e.c.c.c.c.c.c.c.c.c.c.c.!.{./.l.",
"c.c.c.c.c.c.l.d.d.c.c.c.c.x.p.i.Q.l.4 |.W.J.%.,.%.E.%X%X*XVXCXCXZXZXCXVX*X*X*X#X>.E $.-.D.H.T.J.] f.c.c.c.c.c.c.c.c.c.x.~.{./.l.",
"c.c.c.c.c.c.x.d.h.x.c.x.c.l.d.d.c.l.4 A.W.W.:.$.%.F.+X+X@X&X%X@X@X@X+XoXoXoXoX%X X_.R Q #.-.D.F.J.t c.c.c.c.c.c.c.c.c.c.~.{./.c.",
"c.c.c.c.c.c.c.c.l.d.i.d.c.c.c.x.i.k.> >.H.W.F.%.%.V.W. X XoXoXoX+X+XoXoXoX+X+X+X.X.XA.; E W ^ ,.m._.y c.c.c.c.c.c.c.!.{./.l.!.{.",
"c.c.c.c.c.c.c.c.l.d.d.h.l.c.c.c.i.h.> b.D.T.T.-.%.n.V.G.E.E.E.E.E.E.E.E.J.`.`.oX+X XH.} - $ - L [ :.u c.c.c.c.c.c.c.!.{./.c.~.{.",
"c.c.c.c.c.c.c.c.c.c.c.x.i.d s s.c.c.> F.:.S.G.,.*.<.-.,.,.,.,.,.,.,.,.,.$.$.;.%.%.,.S.S.` =.[ i X > y c.c.c.c.c.c.c.x.x.~.{./.l.",
"c.c.c.c.c.c.c.c.c.c.c.x.d.8 r 8 9 f.> C.F.<.<.D.$.-.;.*.*.*.*.*.*.*.$.$.$.$.$.P ; ; - - % % R s c.l.x.c.c.c.c.c.c.c.c.c.~.{./.l.",
"c.c.c.c.c.c.c.c.c.c.c.c.c.e.r y.r.p X A.U.m.%.<.-.$.#.*.*.*.#.#.#.*.#./ W - $ ; P & 4 u e.e.7 s c.c.c.c.c.c.c.c.c.c.c.c.x.l.x.c.",
"c.c.c.c.c.c.c.c.c.c.c.c.c.c.9 r.K.u.w.] V.m.,.;.$.$./ ^ *.*.*.*.*.&.W ; & R W / / 5 w.y.u.r.8 l.l.c.c.c.c.c.c.c.c.c.c.c.c.c.c.c.",
"c.c.c.c.c.c.c.c.c.c.c.c.c.c.D p K.t.y.5 <.<.-.&.&.#.) ^ ^ ^ ^ ^ ^ W R E ( ) ) #.^ 8 w.9 p s r l.i.j.c.c.c.c.c.c.c.c.c.c.c.c.c.c.",
"c.c.c.c.c.c.c.c.c.c.c.c.c.c.l.8 r.w.h r E *.&.&.&.&.&.&.&.*.*.*.*.*.&.&.&.) &.#.R 8 q y f t f.l.p.h.c.c.c.c.c.c.c.c.c.c.c.c.c.c.",
"c.c.c.c.c.c.c.c.c.c.c.c.c.c.c.s.9 t.w q 7 &.) ) &.&.&.&.&.&.&.&.*.*.&.&.&.&.&.( 4 q # w w a z.x.d.l.c.c.c.c.c.c.c.c.c.c.c.c.c.c.",
"c.c.c.c.c.c.c.c.c.c.c.c.c.c.x.c.y w.w.8 X R ) ) ) &.&.&.&.&.&.&.&.&.&.&.&.&.) R o q q p @ f.c.c.c.c.c.c.c.c.c.c.c.c.c.c.c.c.c.c.",
"c.c.c.c.c.c.c.c.c.c.c.c.c.c.c.c.(.8 e.f @ > Q #.&.) ) ) ) ) ) ) ) &.&.&.&._ Q X o w w 0 a.c.c.c.c.c.c.c.c.c.c.c.c.c.c.c.c.c.c.c.",
"c.c.c.c.c.c.c.c.c.c.c.c.c.c.c.c.c.g.9 r.w.o - ( ) ) ) ) ) ) ) ) ) &.) ) ) ( - @ q w.9 y x.c.c.c.c.c.c.c.c.c.c.c.c.c.c.c.c.c.c.c.",
"c.c.c.c.c.c.c.c.c.c.c.c.c.c.c.c.l.Q.v.8 f q   - ( ) ) ) ) ) ) ) ) ) &.) ( -   @ 9 0 a c.c.c.c.c.c.c.c.c.c.c.c.c.c.c.c.c.c.c.c.c.",
"c.c.c.c.c.c.c.c.c.c.c.c.c.c.c.c.c.c.c.f.y       - E W W W W W W W W W E &     . + s c.c.c.c.c.c.c.c.c.c.c.c.c.c.c.c.c.c.c.c.c.c.",
"c.c.c.c.c.c.c.c.c.c.c.c.x.c.c.c.c.c.x.x.a j m 9X7X8X8X7X7X7X7X7X7X7X7X7X<XZ v < t c.c.c.c.c.c.c.c.c.c.c.c.c.c.c.c.c.c.c.c.c.c.c.",
"c.c.c.c.c.c.l.d.k.c.c.x.d.d.c.c.c.c.c.c.y v 1XuXsXsXsXsXsXsXsXsXsXsXsXtX3X2XM c @ c.c.c.c.c.c.c.c.c.c.c.c.c.c.c.c.c.c.c.c.c.c.c.",
"c.c.c.c.c.c.l.d.k.c.c.x.i.k.c.c.c.z.z.z.s.v m 5XrXyXyXyXyXyXyXyXyXyXrX1XV M c O d z.z.z.z.c.c.c.c.c.c.c.c.c.c.c.c.c.c.c.c.c.c.c.",
"c.c.c.c.c.c.x.h.h.l.x.l.k.h.l.j.# # S S # O 2 V 4XyXyXyXyXyXyXyXyXyXrX>XC c 2 . + # k k # f.c.c.c.c.c.c.c.c.c.c.c.c.c.c.c.c.c.c.",
"c.c.c.c.c.c.c.c.l.i.p.d.c.x.i.a v 9XlXlXiX9Xm m V qXtXuXuXuXuXuXuXuX0XV M c 1 v <XiXiX9Xm 0 c.c.c.c.c.c.c.c.c.c.c.c.c.c.c.c.c.c.",
"c.c.c.c.c.c.c.c.l.d.i.d.c.x.i.a.n m 9XzXzXlXeX0X:X:X1X0XpXdXdXdXdX0X1XC M c m 5XsXsXeXm v d c.c.c.c.c.c.c.c.c.c.c.c.c.c.c.c.c.c.",
"c.c.c.c.c.c.c.c.c.c.c.c.c.c.c.c.f.t v 9XlXzXlXkXpXtX3X2X1X1X1X1X1X:X:XV M V 3XpXsX5Xm n s.c.c.c.c.c.c.c.c.c.c.c.c.c.c.c.c.c.c.c.",
"c.c.c.c.c.c.c.c.c.c.c.c.c.c.c.c.c.l.a v <XlXzXkXkXkXkXdXuX0XqXqXqX0X4X:XN >X4XtX1Xv t l.c.c.c.c.c.c.c.c.c.c.c.c.c.c.c.c.c.c.c.c.",
"c.c.c.c.c.c.c.c.c.c.c.c.c.c.c.c.c.c.s.O c <XpXsXkXkXkXkXkXkXkXkXaX0X>XN B N >X>Xv O s.c.c.c.c.c.c.c.c.c.c.c.c.c.c.c.c.c.c.c.c.c.",
"c.c.c.c.c.c.c.c.c.c.c.c.c.c.c.c.c.c.D 1.2.b Z 0XuXdXkXkXdXaXuXuX4X:XB B B N V c 3 2.6 l.c.c.c.c.l.x.c.c.c.x.l.l.x.c.c.c.x.l.l.c.",
"c.c.c.c.c.c.c.c.c.c.c.c.c.c.c.c.c.f.6 q.q.9.b v :XrXuXuXrX0X4X>X,XB B C C v 1 T 0.7.3 e.c.c.c.l.i.j.c.c.c.h.d.i.j.c.c.c.l.i.h.c.",
"c.c.c.c.c.c.c.c.c.c.c.c.c.c.c.c.c.@ 9.nXnX7.4.3 3 c v m V V N C C M M c 1 * T 5.0.hX9.4 l.c.c.l.p.j.c.c.c.h.d.i.h.c.c.c.l.p.d.c.",
"c.c.c.c.c.c.c.c.c.c.c.c.c.c.c.c.d A q.MXMX0.4.T K ! J = 2 < < < < < $ : J : 2.7.hXnX4.1.u c.c.x.d.j.l.x.c.h.d.i.j.c.c.l.j.d.j.c.",
"c.c.c.c.c.c.c.c.c.c.c.c.c.c.c.c.s 6.nXNXq.7.T . 2 2 1 1 2 O O O O O 1 1 1 * T 5.hXNXMX9.6 c.c.c.c.j.d.h.c.h.d.i.h.c.l.i.h.c.c.c.",
"c.c.c.c.c.c.c.c.c.c.c.c.c.c.c.g.8 1.hXnX0.4.. O x x =X-X-X-X-X-X-X-X=X=Xx O * 2.9.hXnX4.+ g.c.c.c.l.d.j.c.l.h.h.l.c.l.d.l.c.c.c.",
"c.c.c.c.c.c.c.c.c.c.c.c.c.c.c.d H gXvX6.1.3   . l l l l l l l l l l l l l 2 . 3 2.2.jX6.fX9 c.c.c.c.c.c.c.c.c.c.c.c.c.c.c.c.c.c.",
"c.c.c.c.c.c.c.c.c.c.c.c.c.c.c.d G GXFXvXcX6 * L ' | o.o.| ' ' ' | | o.o.o.| L # cXvXFXGXgX8 c.c.c.c.c.c.c.c.c.c.c.c.c.c.c.c.c.c.",
"c.c.c.c.c.c.c.c.c.c.c.c.c.c.c.d fXDXDXDXmX. I @.B.N.N.B.m.V.+.+.n.B.P.N.N.M.@.X vXDXDXDXvX8 c.c.c.c.c.c.c.c.c.c.c.c.c.c.c.c.c.c.",
"c.c.c.c.c.c.c.c.c.c.c.c.c.c.c.d H SXGXSX6.% b.m.C.N.N.P.B.C.+.b.m.B.P.U.P.V.V., cXFXDXDXcX8 c.c.c.c.c.c.c.c.c.c.c.c.c.c.c.c.c.c.",
"c.c.c.c.c.c.c.c.c.c.c.c.c.c.c.d % ] ] R * L C.B.P.N.N.P.U.C.+.b.U.P.P.P.P.U.U.` 7 1.6.6.1 y c.c.c.c.c.c.c.c.c.c.c.c.c.c.c.c.c.c.",
"c.c.c.c.c.c.c.c.c.c.c.c.c.c.c.g.i 8.8.3 & O.U.P.P.P.P.P.I.C.+.b.P.P.P.P.P.P.P.>.; J } 8.7 d c.c.c.c.c.c.c.c.c.c.c.c.c.c.c.c.c.c.",
"c.c.c.c.c.c.c.c.c.c.c.c.c.c.c.c.g.i 5 + , J.Y.P.P.P.P.P.I.B.+.O.U.P.P.P.P.P.P.E.` & i i F c.c.c.c.c.c.c.c.c.c.c.c.c.c.c.c.c.c.c.",
"c.c.c.c.c.c.c.c.c.c.c.c.c.c.c.c.c.z.l.s ' H.Y.U.U.P.P.P.I.B.+.O.P.P.P.P.P.P.P.W.O.5 g.g.c.c.c.c.c.c.c.c.c.c.c.c.c.c.c.c.c.c.c.c.",
"c.c.c.c.c.c.c.c.c.c.c.c.c.c.c.c.c.c.z.u O.T.T.U.P.P.P.P.I.B.+.@.N.N.N.P.P.P.P.W.b.7 f.c.c.c.c.c.c.c.c.c.c.c.c.c.c.c.c.c.c.c.c.c.",
"c.c.c.c.c.c.c.c.c.c.c.c.c.c.c.c.c.c.s >.n.T.W.U.P.P.P.P.N.m. . .m.N.I.N.P.P.U.W.n.=.5 z.c.c.c.c.c.c.c.x.l.x.c.c.c.c.c.c.c.c.c.c.",
"c.c.c.c.c.c.c.c.c.c.c.c.c.c.c.c.c.s., V.n.G.OXY.P.P.P.B.b.U ; - U n.N.P.P.P.R.T.@.@.Y s c.c.c.c.c.c.c.c.~.Q.c.c.c.c.c.c.c.c.c.c.",
"c.c.c.c.c.c.c.c.c.c.c.c.c.c.c.c.c.s., B.T.V.E.W.R.U.N.m.@. .& L +.m.B.N.P.R.T.n.M.Z.' a c.c.c.c.c.c.j.~.{.~.x.l.c.c.c.c.c.c.c.c.",
"c.c.c.c.c.c.c.c.c.c.c.c.c.c.c.c.c.f., V.R.T.V.T.W.R.Y.C.M. .$ P +.C.Y.R.R.G.m.Z.P.Z.' s c.c.c.c.x.!.^.~.^.^.^./.c.j.l.c.c.c.c.c.",
"c.c.c.c.c.c.c.c.c.c.c.c.c.c.c.c.c.c.7 -.V.P.P.V.m.m.M.M.+.~ $ P  ...@.m.m.Z.N.C.m...- l.c.c.c.c.l.~.{./.c.^.}.{.!.d.h.c.c.c.c.c.",
"c.c.c.c.c.c.c.c.c.c.c.c.c.c.c.c.c.c.g Y ..n.Z.B.B.M.X.X.~ - 7 & P  ...@.Z.B.Z.n.X.Y s c.c.c.c.c.l.~.{./.j./.{.{.!.i.d.c.c.c.c.c.",
"c.c.c.c.c.c.c.c.c.c.c.c.c.c.c.c.c.c.f.% P ~ X.X.+.X.X.~ ; + # @ & U  .X.......~ P & s.c.c.c.c.c.x.!./.~.~.~.!.~.c.h.j.c.c.c.c.c.",
"c.c.c.c.c.c.c.c.c.c.c.c.c.c.c.c.c.c.c.d . $ Y ~ ~ Y L & t g.c.c.t % ; P U U U - . s c.c.c.c.c.c.c.c.l.~.{.c.d.i.h.c.c.c.c.c.c.c.",
"c.c.c.c.c.c.c.c.c.c.c.c.c.c.c.c.c.c.c.f.O 3 = $ $ $ $ u z.c.c.c.c.s * $ & & $ 1 < D c.c.c.c.c.c.c.c.l.!.{.c.d.d.j.c.c.c.c.c.c.c.",
"c.c.c.c.c.c.c.c.c.c.c.c.c.c.c.c.c.c.l.a l wXH b b ! : a c.c.c.c.c.d = ! T T J 3.v 0 f.c.c.c.c.c.c.c.c.c.c.c.c.c.c.c.c.c.c.c.c.c.",
"c.c.c.c.c.c.c.c.c.c.c.c.c.c.c.c.c.c.a z 6XbXxXwXZ R = a c.c.c.c.c.d = 7 Z Z k 8X;XZ 0 c.c.c.c.c.c.c.c.c.c.c.c.c.c.c.c.c.c.c.c.c.",
"c.c.c.c.c.c.c.c.c.c.c.c.c.c.c.c.c.c.y ` O.O.O.+.~ K = y c.c.c.c.c.d $ K K ~ Y ~ E ! r c.c.c.c.c.c.c.c.c.c.c.c.c.c.c.c.c.c.c.c.c.",
"c.c.c.c.c.c.c.c.c.c.c.c.c.c.l.x.c.c.a X X X X X X X @ D c.c.c.c.c.s.@ + X X X X X . y c.c.c.c.c.c.c.c.c.c.c.c.c.c.c.c.c.c.c.c.c.",
"c.c.c.c.c.c.c.c.c.c.c.c.c.l.p.i.c.c.c.c.c.c.c.c.c.c.c.c.c.c.c.c.c.c.c.c.c.c.c.c.c.c.c.c.c.c.c.c.c.c.c.c.c.c.c.c.c.c.c.c.c.c.c.c."
};
