/* XPM */
static char *xpm_[] = {
/* columns rows colors chars-per-pixel */
"64 64 146 2 ",
"   c #9B1505",
".  c #9D1C07",
"X  c #A31E07",
"o  c #A32406",
"O  c #A72E07",
"+  c #AE2708",
"@  c #AE2F09",
"#  c #B12F09",
"$  c #AB3207",
"%  c #B03D07",
"&  c #B13009",
"*  c #B43F08",
"=  c #BD4A07",
"-  c #BB4B08",
";  c #C25107",
":  c #C25408",
">  c #C55A09",
",  c #C85F09",
"<  c #CC6309",
"1  c #D26608",
"2  c #D7740A",
"3  c #D97409",
"4  c #DD7D0A",
"5  c #FD6504",
"6  c #FD6D06",
"7  c #FD7506",
"8  c #FE7A06",
"9  c #FC7808",
"0  c #559541",
"q  c #599743",
"w  c #5D9A44",
"e  c #639D45",
"r  c #6B9F45",
"t  c #67A046",
"y  c #6AA147",
"u  c #6EA348",
"i  c #73A649",
"p  c #7BA749",
"a  c #76A84A",
"s  c #7BAB4C",
"d  c #AEA42F",
"f  c #BFAA2E",
"g  c #AFAB36",
"h  c #A3AB3D",
"j  c #ACAB38",
"k  c #BAAA31",
"l  c #DE800B",
"z  c #E2830A",
"x  c #E5890A",
"c  c #FE8606",
"v  c #FF8D05",
"b  c #FB8509",
"n  c #ED920B",
"m  c #FF9306",
"M  c #FF9C05",
"N  c #F1950A",
"B  c #FC9709",
"V  c #F49E0A",
"C  c #FE9C08",
"Z  c #DFA619",
"A  c #DBA91F",
"S  c #FFA306",
"D  c #FFA907",
"F  c #F6A20A",
"G  c #FDA509",
"H  c #FFAB09",
"J  c #FFB00B",
"K  c #EBA815",
"L  c #E4A81A",
"P  c #E9A818",
"I  c #F2A812",
"U  c #C7A927",
"Y  c #CAA924",
"T  c #C3AA2C",
"R  c #C9AA2A",
"E  c #C8AA2A",
"W  c #C8AA29",
"Q  c #CAAA2A",
"!  c #8AA641",
"~  c #87AB47",
"^  c #8AAA45",
"/  c #8CAB46",
"(  c #8AAA46",
")  c #81AB49",
"_  c #81AB4B",
"`  c #81AB4A",
"'  c #87AB48",
"]  c #80AE4C",
"[  c #81AE4C",
"{  c #80AE4D",
"}  c #83AF4D",
"|  c #80AE4C",
" . c #8AAC49",
".. c #97AA40",
"X. c #94AA42",
"o. c #92AB44",
"O. c #90AB46",
"+. c #95AA42",
"@. c #99AB40",
"#. c #83B04D",
"$. c #85B14D",
"%. c #85B14E",
"&. c #87B34E",
"*. c #85B14E",
"=. c #88B34E",
"-. c #89B44E",
";. c #8AB44F",
":. c #8CB54F",
">. c #8DB64F",
",. c #8BB54F",
"<. c #8EB750",
"1. c #90B850",
"2. c #91B850",
"3. c #91B950",
"4. c #92B951",
"5. c #92BA50",
"6. c #92BA51",
"7. c #93BB51",
"8. c #94BB51",
"9. c #96BB51",
"0. c #96BC51",
"q. c #97BC51",
"w. c #97BC52",
"e. c #97BD52",
"r. c #92B950",
"t. c #98BD52",
"y. c #9BBF53",
"u. c #9CBF53",
"i. c #9FC153",
"p. c #9EC054",
"a. c #9CC053",
"s. c #A1C353",
"d. c #A1C354",
"f. c #A4C354",
"g. c #A3C454",
"h. c #A6C555",
"j. c #A6C655",
"k. c #A6C556",
"l. c #A4C555",
"z. c #AAC856",
"x. c #ACCA56",
"c. c #AECB56",
"v. c #AFCA57",
"b. c #AECA57",
"n. c #AFCB58",
"m. c #B3CE58",
/* pixels */
"s s s s s s s s s s s s s s s s s s s s s s s s s s s s s s s s s s s s s s s s s s s s s s s s s s s s s s s s s s s s s s s s ",
"s s s s s s s s s s s s s s s s s s s s s s s s s s s s s s s s s s s s s s s s s s s s s s s s s s s s s s s s s s s s s s s s ",
"s s s s s s s s s s s s s s s s s s s s s s s s s s s s s s s s s s s s s s s s s s s s s s s s s s s s s s s s s s s s s s s s ",
"s s s s s s s s s s s s s s s s s s s s s s s s s s s s s s s s s s s s s s s s s s s s s s s s s s s s s s s s s s s s s s s s ",
"s s s s s s s s s s s s s s s s s s s s s s s s s s s s s s s s s s s s s s s s s s s s s s s s s s s s s s s s s s s s s s s s ",
"s s s s s s s s s s s s s s s s s s s s s s s s s s s s s s s s s s s s s s s s s s s s s s s s s s s s s s s s s s s s s s s s ",
"s s s s s s s s s s s s a a s s s s s s s a a s s s s s s s s s s s s s s s s s s s s s s s s s s s s s s s s s s s s s s s s s ",
"s s s s s s s s s s s a e y s s s s s s i e y s s s s s s s s s s s s s s s s s s s s s s s s s s s s s s s s s s s s s s a s s ",
"s s s s s s s i a s s a e y i i s s i i u e y s s s s s s s s s s s s s s s s s s s s s s s s s s s s s s s s s s s s s s &.[ a ",
"s s s s s s i e y s s s s i e e [ i e e y a s s s s s s s s s s s s s s s s s s s s s s s s s s s s s s s s s s s s s s =.g.7.i ",
"s s s s s s i e e s s s s i q w [ i e q y s s s s s s s s s s s s s s s s s s s s s s s s s s s s s s s s s s s s s s a :.v.q.i ",
"s s s s s s a e y a s a s i e e s i e e y s s s s s s s s s s s s s s s s s s s s s s s s s s s s s s s s s s s s s s s -.s.7.s ",
"s s s s s s s s i e w e s s s a w y s s s s s s s s s s s s s s s s s s s s s s s s s s s s s s s s s s s s s s s s &.j.7.i &.j.",
"s s s s s s s s i e e y i s s s w y s s s s s s s s s s s s s s s s s s s s s s s i a s s s s s s s s s s s s s s s &.d.7.s =.d.",
"s s s s s s s s s s s a w e s s s s s s s s s s s s s s s s s s s s s s s s s s u w e s s s s s s s s s s s s s s s a a -.z.q.i ",
"s s s s s s s s s s s a e e s s s s s s s s s s s s s s s s s s s s s s s s s s u w e s s s s s s s s s s s s s s s s s -.z.q.i ",
"s s s s s s s s s s s s s s s s s s a i s s s s s s s s s s s s s s s s s s s s s s s s s s s s s s s s s s s s s s s s a i a s ",
"s s s s s s s s s s s s s s s s s s s [ s s s s s s s s s s s s s s s s s s s a a s s s s s s s i s s s s s s s s s s s s s s s ",
"s s s s s s s s s s s s s s s s a [ u.g.7.s s s s s s s s s s s s s s s s s i e u s s s s s s i w u s s s s s s s s s s s s s s ",
"s s s s s s s s s s s s s s s s i [ f.v.8.i i s s s s s s s s s s s s s s s i w y s s s s s s i 0 y s s s s s s s s s s s s s s ",
"s s s s s s s s s s s s s s s s #.=.q.t.7.&.[ s s s s s ) h k E E T g o.s s i e u s s s s s s a e i s s s s s s s s s s s s s s ",
"s s s s s s s s s s s s s s a s m.t.s i &.v.i.s s s / j A I G D D D G P T X.s s s s s s s s s s s s s s s s s s s s s s s s s s ",
"s s s s s s s s s s s s s s s s j.7.[ s =.d.q.s s g K D D D D D D D D D D I f ' s s s s s s s s s s s s s s s s s s s s s s s s ",
"s s s s s s s s s s s s s s s s s &.p.j.8.[ s ) T G D D D D D D D D D D D D D L X.s s s s s s s s s s s s s s s s s s s s s s s ",
"s s s s s s s s s s s s s s s s i [ q.p.<.a p T D D D D D D D D D H H D D D D D I o.s s s s s s s s s s s s s s s s s s s s s s ",
"s s s s s s s s s s s s s s s s s s s s s s g G D D D D D H H H D H H H H D D D D L ) s s s s s s s s s s s s s s s s s s s s s ",
"s s s s s s s s s s s s a s s s s s a a s ^ K D D D D D H H H F x H H H H H D D G C k s s s s s s s s s s s s s s s s s s s s s ",
"s s s s s s i e t s s a e e s s s s s s s j D D D D D H H H H x , H H H H D H D D b P s s s s s s s s s s s s s s s s s s s s s ",
"s s s s s s i e e s s a w e s s s s s s ) A D D D D H H H G - @ & $ l H H H D D D 7 S h s s s s s s s s s s s s s s s s s s s s ",
"s s s s s s a y y i a i t y i i s s s s h I D D D H H H H J G .   4 J H H H H D D c c T s s s s s s s s s s s s s s s s s s s s ",
"s s s s s s s s i w q e s a q w s s s s k G D D H H H H J J n = 1 ; H J H H H D D m 8 Y s s s s s s s s s s s s s s s s s s s s ",
"s s s s s s s s i e e e s a w e s s s s E D D D H H H H J H S M M C D J J H H D D m 8 Y s s s s s s s s s s s s s s s s s s s s ",
"s s s s s s s s s s s s s s s s s s s s E D D D D H H H J G S M M S D n H H H D D m c Y s s s s s s s s s s s s s s s s s s s s ",
"s s s s s s s s s s s s s s s s s s s s T D D D D H H H H < D S S S D - F H H D D m m Y s s s s s s s s s s s s s s s s s s s s ",
"s s s s s s s s s s s s s s s s s s s s g G D D D H G x 2 $ 4 N D 3 - & - 3 D D D m M Y s s s s s s s s s s s s s s s s s s s s ",
"s s s s s s s s s s s s s s s s s s i i ^ K D D D D G z o + % V H G - X * F H D S m G k s s s s i a s s s a i i a s s s a i i s ",
"s s s s s s s s s s s s s s s s s i e w y T D D D H H H O $ < H H H : > - G D D S S G  .s s s i w u s s s y e w u s s s i w y s ",
"s s s s s s s s s s s s s s s s s i e w y X.I D D D D F z G z H H D V H V G D D S G E s s s s i 0 u s s s y e w y s s s i q e s ",
"s s s s s s s s s s s s s s s s s i e w y s T D D D D D D H H H H H H H H D D S S I ^ s s s s a e u i a s y e w u s s i u e u s ",
"s s s s s s s s s s s s s s s s s i e w y s ~ L D C G D D D D D D D D H H D S D G j s s s s s s s u e y s y e w y s i w y s s s ",
"s s s s s s s s s s s s s s s s i u y y u s s @.K S 9 7 C D D D D D G S S S G G E s s s s s s s s i e u s i y y i s i e i s s s ",
"s s s s s s s s s s s s s s s s w y s s s s s s ! Z G C 6 5 7 c v m m M S D I j s s s s s s s s s s s s s s s s s s s s s s s s ",
"s s s s s s s s s s s s s s s s q e s s s s s s i r d P D G C C M S G D G E ^ s s s s s s s s s s s s s s s s s s s s s s s s s ",
"s s s s s s s s s s s s s s s s q e s s s s s s s s s s h U Y Y Y Y Y k  .s s s s s s s s s s s s s s s s s s s s s s s s s s s ",
"s s s s s s s s s s s s s s s s e u s s s s s s s s s s s s s s s s s s s s s s s s s s s s s s s s s s s s s s s s s s s s s s ",
"s s s s s s s s s s s s s s s s s s s s s s s s s s s s s s s s s s s s s s s s s s s s s s s s s s s s s s s s s s s s s s s s ",
"s s s s s s s s s s s s s s s s s s s s s s s s s s s s s s s s s s s s s s s s s s s s s s s s s s s s s s s s s s s s s s s s ",
"s s s s s s s s s s s s s s s s s s s s s s s s s s s s s s s s s s s s s s s s s s s s s s s s s s s s s s s s s s s s s s s s ",
"s s s s s s s s s s s s s s s s s s s s s s s s s s s s s s s s s s s s s s s s s s s s s s s s s s s s s s s s s s s s s s s s ",
"s s s s s s s s s s s s s s s s s s s s s s s s s s s s s s s s s s s s s s s s s s s s s s s s s s s s s s s s s s s s s s s s ",
"s s s s s s s s s s s s s s s s s s s s s s s s s s s s s s s s s s s s s s s s s s s s s s s s s s s a i a s s s s s s s s s s ",
"s s s s s s s s s s s s s s s s s s s s s s s s s s s s s s s s s s s s s s s s s s s s s s s s s s s s -.[ s s s s s s s s s s ",
"s s s s s s s s s s s s s s s s s s s s s s s s s s s s s s s s s s s s s s s s s s s s s s s s s s u =.v.:.a i s s s s s s s s ",
"s s s s s s s s s s s s s s s s s s s s s s s s s s s s s s s s s s s s s s s s s s s s s s s s a #.<.:.<.<.<.7.s u i s s s s s ",
"s s s s s s s s s s s s s s s s s s s s s s s s s s s s s s s s s s s s s s s s s s s s s s s s i -.g.7.s <.i.g.#.e y s s s s s ",
"s s s s s s s s s s s s s s s s s s s s s s s s s s s s s s s s s s s s s s s s s s s s s s s s i :.v.7.u 7.j.n.&.w e s s s s s ",
"s s s s s s s s s s s s s s s s s s s s s s s s s s s s s s s s s s s s s s s s s s s s s s s s a &.7.:.-.=.&.-.s y u s s s s s ",
"s s s s s s s s s s s s s s s s s s s s s s s s s s s s s s s s s s s s s s s s s s s s s s s s s s i -.v.s e w y s s s s s s s ",
"s s s s s s s s s s s s s s s s s s s s s s s s s s s s s s s s s s s s s s s s s s s s s s s s s s i &.j.s e e u s s s s s s s ",
"s s s s s s s s s s s s s s s s s s s s s s s s s s s s s s s s s s s s s s s s s s s s s s s s s s s s s s s s s s s s s s s s ",
"s s s s s s s s s s s s s s s s s s s s s s s s s s s s s s s s s s s s s s s s s s s s s s s s s s s s s s s s s s s s s s s s ",
"s s s s s s s s s s s s s s s s s s s s s s s s s s s s s s s s s s s s s s s s s s s s s s s s s s s s s s s s s s s s s s s s ",
"s s s s s s s s s s s s s s i a s s s s s s s s s s s s s s s s s s s s s s s s s s s s s s s s s s s s s s s s s s s s s s s s ",
"s s s s s s s s s s s s s i q w s s s s s s s s s s s s s s s s s s s s s s s s s s s s s s s s s s s s s s s s s s s s s s s s "
};
