/* XPM */
static char *xpm_[] = {
/* columns rows colors chars-per-pixel */
"64 64 256 2 ",
"   c #2A0517",
".  c #360518",
"X  c #321215",
"o  c #26291C",
"O  c #38291C",
"+  c #3C371D",
"@  c #390428",
"#  c #2B1824",
"$  c #341738",
"%  c #320B30",
"&  c #292927",
"*  c #342824",
"=  c #2B3925",
"-  c #373829",
";  c #352A37",
":  c #2D2C36",
">  c #1C1323",
",  c #470816",
"<  c #580A17",
"1  c #501216",
"2  c #661619",
"3  c #781618",
"4  c #6B0D14",
"5  c #4B2B1B",
"6  c #732919",
"7  c #580B28",
"8  c #460537",
"9  c #490F2E",
"0  c #6A1327",
"q  c #462723",
"w  c #483132",
"e  c #77362B",
"r  c #6E2A30",
"t  c #2D4F18",
"y  c #376F17",
"u  c #37482A",
"i  c #35582A",
"p  c #3A4834",
"a  c #3B5533",
"s  c #2E4C29",
"d  c #36662A",
"f  c #3F6035",
"g  c #485318",
"h  c #517D1B",
"j  c #464428",
"k  c #444935",
"l  c #465637",
"z  c #545937",
"x  c #504E2E",
"c  c #6F4F2C",
"v  c #467428",
"b  c #53683A",
"n  c #59793B",
"m  c #4B6931",
"M  c #627337",
"N  c #361546",
"B  c #36124C",
"V  c #322D51",
"C  c #2C3967",
"Z  c #34296A",
"A  c #1C1062",
"S  c #490A46",
"D  c #580448",
"F  c #44134C",
"G  c #481558",
"H  c #520F59",
"J  c #620249",
"K  c #661650",
"L  c #462E4C",
"P  c #5B1975",
"I  c #531567",
"U  c #641877",
"Y  c #483170",
"T  c #62247E",
"R  c #6C3046",
"E  c #3A4E62",
"W  c #505146",
"Q  c #705351",
"!  c #5C7B41",
"~  c #566B47",
"^  c #6F6D4E",
"/  c #881519",
"(  c #AC1618",
")  c #912E18",
"_  c #A72A18",
"`  c #B63617",
"'  c #AF3018",
"]  c #8D182A",
"[  c #8E3229",
"{  c #AE2B30",
"}  c #AD1A36",
"|  c #CF2E13",
" . c #C93A28",
".. c #D51917",
"X. c #B05318",
"o. c #95472A",
"O. c #914F37",
"+. c #AF5031",
"@. c #A66223",
"#. c #D64717",
"$. c #D85717",
"%. c #CA4D15",
"&. c #E65212",
"*. c #D46D17",
"=. c #EA7915",
"-. c #EC7011",
";. c #CC4727",
":. c #D34E2D",
">. c #E65627",
",. c #E15B30",
"<. c #CE722E",
"1. c #ED6B27",
"2. c #8A2A47",
"3. c #AD2249",
"4. c #D43350",
"5. c #E13363",
"6. c #965650",
"7. c #AB584A",
"8. c #966F52",
"9. c #A7684E",
"0. c #AC6F6E",
"q. c #9E5D7A",
"w. c #EA4D6D",
"e. c #EB6D77",
"r. c #D5585D",
"t. c #3C892B",
"y. c #3A8F17",
"u. c #4C8F1D",
"i. c #63931E",
"p. c #70BA19",
"a. c #5A813D",
"s. c #4E8B2F",
"d. c #698D34",
"f. c #57A924",
"g. c #6DB02B",
"h. c #56AA19",
"j. c #78D118",
"k. c #7DE01E",
"l. c #79D025",
"z. c #5E9A44",
"x. c #589442",
"c. c #5C8140",
"v. c #668944",
"b. c #6A9445",
"n. c #639D45",
"m. c #6B9646",
"M. c #739D48",
"N. c #70974D",
"B. c #6AA147",
"V. c #6EA348",
"C. c #67A046",
"Z. c #74A549",
"A. c #76A84A",
"S. c #7BAB4C",
"D. c #78A74C",
"F. c #A4A024",
"G. c #D8831A",
"H. c #D48B19",
"J. c #F59A17",
"K. c #EE9011",
"L. c #F7A80E",
"P. c #FCBB0C",
"I. c #F8A616",
"U. c #FBB916",
"Y. c #ECA41F",
"T. c #D48A31",
"R. c #F18B29",
"E. c #F5A725",
"W. c #F7B333",
"Q. c #87DB1A",
"!. c #95D01C",
"~. c #8AD229",
"^. c #83E21D",
"/. c #FCC30C",
"(. c #FCC406",
"). c #FDC211",
"_. c #FCCA19",
"`. c #FAD31C",
"'. c #FBC927",
"]. c #F9C436",
"[. c #FBD83A",
"{. c #FBD42B",
"}. c #FAE23B",
"|. c #80AD4C",
" X c #85B14E",
".X c #8AB44E",
"XX c #8EB750",
"oX c #93BA51",
"OX c #99BB54",
"+X c #A58967",
"@X c #A18D5C",
"#X c #DB9344",
"$X c #CDAC53",
"%X c #EAAE4B",
"&X c #D9A464",
"*X c #9AC54F",
"=X c #A7C655",
"-X c #AFCF51",
";X c #9EE841",
":X c #FAD847",
">X c #F8D856",
",X c #F1C847",
"<X c #FBE24A",
"1X c #FCE557",
"2X c #FDF152",
"3X c #EFCD6F",
"4X c #FBE868",
"5X c #F9E977",
"6X c #FCF271",
"7X c #D0C44C",
"8X c #0E2DB3",
"9X c #181992",
"0X c #591A83",
"qX c #631B8B",
"wX c #54308D",
"eX c #642A8B",
"rX c #6934A7",
"tX c #5B37AA",
"yX c #224E9A",
"uX c #4A4B8A",
"iX c #534CAA",
"pX c #6546B7",
"aX c #6D5EB9",
"sX c #727EAA",
"dX c #0939C0",
"fX c #0B47CB",
"gX c #0F67EA",
"hX c #1F64D0",
"jX c #5671CF",
"kX c #6868CD",
"lX c #6867D3",
"zX c #A07692",
"xX c #F07A88",
"cX c #EB5C80",
"vX c #1089F5",
"bX c #5894F0",
"nX c #5795DA",
"mX c #7785AC",
"MX c #B4A19E",
"NX c #EE8C91",
"BX c #CAAD96",
"VX c #D1B7AD",
"CX c #E2A2A5",
"ZX c #D7C78E",
"AX c #E9D498",
"SX c #FAF288",
"DX c #FBF395",
"FX c #F8EA8B",
"GX c #EACEB3",
"HX c #FAF3AF",
"JX c #CBD4A1",
"KX c #EFD4CE",
"LX c #F9F4C6",
"PX c #F4F0F1",
"IX c #DCC5C1",
"UX c #C8CDAC",
/* pixels */
"S.S.S.S.S.S.S.S.S.S.S.S.S.S.S.S.S.S.S.S.S.S.S.S.m.c.n n n n ! z [ W.5XHXVXQ * N.S.S.S.S.S.S.S.S.S.S.S.S.S.S.S.S.S.S.S.S.S.S.S.S.",
"S.S.S.S.S.S.S.S.S.S.S.S.S.S.S.S.S.S.S.S.S.S.S.Z.x 8.+X+X@X8.8.^ e <.].<XFXPXVXQ v.S.S.S.S.S.S.S.S.S.S.S.S.S.S.S.S.S.S.S.S.S.S.S.",
"S.S.S.S.S.S.S.S.S.S.S.S.S.S.S.S.S.S.S.S.S.S.b.n 6 <.3X3XFXDXDXFX&X<.W.:X4XHXLXMX~ S.S.S.S.S.S.S.S.S.S.S.S.S.S.S.S.S.S.S.S.S.S.S.",
"S.S.S.S.S.S.S.S.S.S.S.S.S.S.S.S.S.S.S.S.N.W 0.BXBXAXGXGXLXLX5X1X].E.<.>X1X4XDXHX+Xb.S.S.m.M.S.S.S.S.S.S.S.S.S.S.S.S.S.S.S.S.S.S.",
"S.S.S.S.S.S.S.S.S.S.S.S.S.S.S.S.S.S.S.! ^ ZX5X5XSXSXSXDXHXLXDX4XW.R.,.%X1X1X1XDXAX- S.c.r u S.S.S.S.S.S.S.S.S.S.S.S.S.S.S.S.S.S.",
"S.S.S.S.S.S.S.S.S.S.S.S.S.S.S.S.S.D.~ 8.3X5XDXHXHXHXDXDXSX6X1X>X%XR.:.#X1X1X4X5XHX6.l e +.k S.S.S.S.S.S.S.S.S.S.S.S.S.S.S.S.S.S.",
"S.S.S.S.S.S.S.S.S.S.S.S.A.A.S.S.N.x $X5X5XDX4X1X:X:X:X].].,X:X[.E.1.;.%X1X1X1X<X:X+.X %.O.n S.S.S.S.S.S.S.S.S.S.S.S.S.S.S.S.S.S.",
"S.S.S.S.S.S.S.S.S.S.S.A.n - j j 8.3X5X5X1X:X[.[.[.[.}.}.'.J.E.E.W.>.;.>X1X1X1X<X].;.2 R.O.n S.S.S.S.S.S.S.S.S.S.S.S.S.S.S.A.S.S.",
"S.S.S.S.S.S.S.A.A.S.S.a.q 3X3X>X[.'.'.`.`.'.'.'.].].].:X}.'.-.&.1.1.;.>X1X1X<X<XW.:.4 1.w A.S.S.S.S.S.S.S.S.S.S.S.S.S.S.S. XS.A.",
"S.S.S.S.S.S.A.n.C.S.S.A.~ +.E.U._._.'.U.E.E.E.I.J.J.R.E.W.'.R.>.>.,.;.:X<X<X,XW.R.;.4 ,.w S.S.S.S.S.S.S.S.S.S.S.S.S.S.S. X=XoXZ.",
"S.S.S.S.S.S.A.n.n.S.S.S.S.^ [ 1.1.1.1.1.>.>.>.>.>.>.>.#.+.o.o.[ [ 6 _ W.T.9.6.6.O.[ { :.j S.S.S.S.S.S.S.S.S.S.S.S.S.S.A..X=XoXZ.",
"S.S.S.S.S.S.A.n.C.A.S.A.S.A.n 2 {  . . . . . .;.:.:.;.9.BXHXHXLXLXHX7.) T.AXDXDXLXVX9.[ d.S.S.S.S.S.S.S.S.S.S.S.S.S.S.S..X=XoXS.",
"S.S.S.S.S.S.S.S.Z.n.z.n.S.S.S.b.c e 0 2 2 2 3 ) { [ 6.GXHXSX4X4X4X1X%X6 T.1X1X6XDXLXGXr M.S.S.S.S.S.S.S.S.S.S.S.S.S. X=XoXA. X=X",
"S.S.S.S.S.S.S.S.A.n.n.C.A.S.S.S.n.v.n n n u 1 ) e Q AXDXSX5X:X,X,X:X].[ 1.E.%X5X6X5XSXZXx D.S.S.S.S.S.S.S.S.S.S.S.S. X=XoXS..X=X",
"S.S.S.S.S.S.S.S.S.S.S.A.z.n.S.S.a i u Z.S.x +.$.9.AXHXDXFX%X<.) 3 X.R.) { } ] 7.3X6X4X5XQ n S.n l b S.S.S.S.S.S.S.S.A.A..X=XoXV.",
"S.S.S.S.S.S.S.S.S.S.S.A.n.n.S.S.u g.i.s.m q ;.o.@X5XSX3X<.) 1 X   < / 2 0 , . . [ 3X6X6X&Xq = z z k S.S.S.S.S.S.S.S.S.S..X=XoXZ.",
"S.S.S.S.S.S.S.S.S.S.S.S.S.S.S.S.a m h i.h + o.e 3X4X3X+.2 O = u p k k p p a a s q 9.4X4X#X5 i.i.+ a.S.S.S.S.S.S.S.S.S.S.A.A.A.S.",
"S.S.S.S.S.S.S.S.S.S.S.S.S.S.S.S.c.i i l i.i.c @.>X%Xo.- v t.t.i.l.j.p.p.u.y.y.y s 1 ,X2XT.O v ; l M.S.S.S.S.S.S.S.S.S.S.S.S.S.S.",
"S.S.S.S.S.S.S.S.S.S.S.S.S.S.S.S.b.u g.m o g c T.#Xc j v *X~.g.g.g.j.l.p.g.k.k.f.i , ,X:X+.X - & a.V.S.S.S.S.S.S.S.S.S.S.S.S.S.S.",
"S.S.S.S.S.S.S.S.S.S.S.S.S.S.S.S.V.m n i.o & X <.[ q = t v g.~.~.g.g.f.j.k.l.v s o X ,X#X6 * - a x.V.S.S.S.S.S.S.S.S.S.S.S.S.S.S.",
"S.S.S.S.S.S.S.S.S.S.S.S.S.S.S.S. XZ.l d.n u X 3 , = i s N.^ M g.g.~.g.l.i.8.w p # < <.2 * u s v.n.Z.S.S.S.S.S.S.S.S.S.S.S.S.S.S.",
"S.S.S.S.S.S.S.S.S.S.S.S.S.S.A.S.-XOXn b g.u >   s d f.f.JXIX1 + j u.i d r VXM n q 3 X & u p a S.S.S.S.S.S.S.S.S.S.S.S.S.S.S.S.S.",
"S.S.S.S.S.S.S.S.S.S.S.S.S.S.S.S.=XoX|.a n s.a # = d g.^.JXGX( ) g y y t { KXb.s.O . # u i = Z.S.S.S.S.S.S.S.S.S.S.S.S.S.S.S.S.S.",
"S.S.S.S.S.S.S.S.S.S.S.S.S.S.S.S.S. XOXOXl d.f.h u.d g.k.JXGX..F.Q.~.Q.~...AXM.s.* s s a u v.S.S.S.S.S.S.S.S.S.S.S.S.S.S.S.S.S.S.",
"S.S.S.S.S.S.S.S.S.S.S.S.S.S.S.S.A.S.OXOX|.l v f.f.v g.k.;X-XH.F.Q.Q.Q.!.<.7Xg.t.o a i = v.S.S.S.S.S.S.S.S.S.S.S.S.S.S.S.S.S.S.S.",
"S.S.S.S.S.S.S.S.S.S.S.S.S.S.S.S.S.S.S.S.S.D.m k & > - g.k.k.^.Q.Q.l.Q.Q.k.j.h.i > o b M.S.S.S.S.S.S.S.S.S.S.S.S.S.S.S.S.S.S.S.S.",
"S.S.S.S.S.S.S.S.S.S.S.S.A.S.S.S.S.S.A.A.S.S.S.m.-   $ g f.l.Q.Q.~.u.Q.Q.j.h.t # ; a.S.S.S.S.S.S.S.S.S.S.S.S.S.S.S.S.S.S.S.S.S.S.",
"S.S.S.S.S.S.A.n.C.S.S.A.n.n.S.S.S.S.S.S.S.S.A.p G iXkXG X t t.s.s.s.t.t.i O # % N * S.S.S.S.S.S.S.S.S.S.S.S.S.S.S.S.S.S.S.S.S.S.",
"S.S.S.S.S.S.A.n.n.S.S.A.z.n.S.S.S.S.S.S.D.D.D.a Y kXkXG G L C C C C C C Z G S F H k Z.Z.Z.Z.D.S.S.S.S.S.S.S.S.S.S.S.S.S.S.S.S.S.",
"S.S.S.S.S.S.A.C.C.A.A.Z.C.C.A.A.S.A.- : : : : # B wXtXS P rXlXbXbXbXbXbXpXP S % % > & : : : p S.S.S.S.S.S.S.S.S.S.S.S.S.S.S.S.S.",
"S.S.S.S.S.S.S.S.Z.z.x.n.S.A.x.z.S.b F iXnXnXnXiXZ G qXS H U rXpXpXpXpXpXqXH 8 H S F iXnXjXiXF b.S.S.S.S.S.S.S.S.S.S.S.S.S.S.S.S.",
"S.S.S.S.S.S.S.S.Z.n.n.n.S.A.z.n.S.b.L I iXbXbXbXjXiX0XP S S I 0XqX0XT I S S P H S tXpXpX0XG W A.S.S.S.S.S.S.S.S.S.S.S.S.S.S.S.S.",
"S.S.S.S.S.S.S.S.S.S.S.S.S.S.S.S.S.S.Z.z $ Z iXbXbXnXiXqX0XeXG B % % % F I P H H eXeXU G L ! S.S.S.S.S.S.S.S.S.S.S.S.S.S.S.S.S.S.",
"S.S.S.S.S.S.S.S.S.S.S.S.S.S.S.S.S.S.S.A.l 9 K wXpXpXtXqXqXpXaXaXeXT eXeXqXI H U U S 8 * N.S.S.S.S.S.S.S.S.S.S.S.S.S.S.S.S.S.S.S.",
"S.S.S.S.S.S.S.S.S.S.S.S.S.S.S.S.S.S.S.S.~ 2.4.3.7 0 [ ] K P tXkXlXlXkXrXI D 0 3 0 2 0 j S.S.S.S.S.S.S.S.S.S.S.S.S.S.S.S.S.S.S.S.",
"S.S.S.S.S.S.S.S.S.S.S.S.S.S.S.S.S.S.A.b.Q e.NXw.} ] G.K.*.[ K P eXwXT H 0 _ ;._ _ 3 4.] n S.S.S.Z.A.S.S.S.A.Z.Z.A.S.S.S.A.Z.A.S.",
"S.S.S.S.S.S.S.S.S.S.S.S.S.S.S.S.S.A.n.n 2.CXCXe.4.} *./.).K.%.) 2 1 1 3 #.;.` ' >.3 4.} x S.S.A.z.V.S.S.S.V.n.z.V.S.S.S.Z.z.C.S.",
"S.S.S.S.S.S.S.S.S.S.S.S.S.S.S.S.S.A.x.R NXCXxXw.5.} G.(.(.P.K.-.| _ ` #.' ` %.-.;.3 w.w.2.l S.Z.x.V.S.S.S.V.n.z.V.S.S.S.Z.x.n.S.",
"S.S.S.S.S.S.S.S.S.S.S.S.S.S.S.S.|.A.- 3.e.NXxXw.] / G.H.X.@.w w w w 9 9 9 ) %.$.' } w.w.4.q v.A.n.V.A.A.S.V.n.z.V.S.S.Z.V.n.V.S.",
"S.S.S.S.S.S.S.S.S.S.S.S.S.S.S.S.|.A.> CXKXGX4.4.. . F Z 9X8XgXvXvXgXgXgX8XA B 9 0 } w.CXxX2.a.S.S.V.n.C.S.C.n.z.V.S.A.z.C.S.S.S.",
"S.S.S.S.S.S.S.S.S.S.S.S.S.S.S.S.Z.c.; r.NXxXr.0 >   A 8X8XdXfXgXgXfXfXfX8X9X9XA   3.5.cX5.r b A.S.Z.n.V.S.Z.C.C.Z.S.A.n.Z.S.S.S.",
"S.S.S.S.S.S.S.S.S.S.S.S.S.S.S.S.z.& MXIXBX0.6.$   , $ Z C C C C C C V V V $ $ %   R 6.0.MXzXL b.S.S.S.S.S.S.S.S.S.S.S.S.S.S.S.S.",
"S.S.S.S.S.S.S.S.S.S.S.S.S.S.S.S.x.& PXPXPXVX0.% 2 %.=.K.K.K.=.=.*.%.-.$.K.K.K.%.6 w MXKXPXKXL m.S.S.S.S.S.S.S.S.S.S.S.S.S.S.S.S.",
"S.S.S.S.S.S.S.S.S.S.S.S.S.S.S.S.x.& PXPXPXPX+X  X.K.U.P.(.P.J.I.J.$.I.=.).(./.K.X.% MXPXPXPXL b.S.S.S.S.S.S.S.S.S.S.S.S.S.S.S.S.",
"S.S.S.S.S.S.S.S.S.S.S.S.S.S.S.S.n.& VXKXKXIX6.2 G.L././././.L.U.I.$.U.K.P./.(.I.K.2 6.BXBXMX9 b.S.S.S.S.S.S.S.S.S.S.S.S.S.S.S.S.",
"S.S.S.S.S.S.S.S.S.S.S.S.S.S.S.S.S.* r 9.7.e 0 ) P././.)./.P.L.U.I.$.U.U.).).(./.P.` , [ +.7.# b.S.S.S.S.S.S.S.S.S.S.S.S.S.S.S.S.",
"S.S.S.S.S.S.S.S.S.S.S.S.S.S.S.S.S.b e &X<.o.r X.P.(./.)./././.).J.$.U.(.(././.(.).1.< ] 9.0.v.S.S.S.S.S.S.S.S.S.S.S.S.S.S.S.S.S.",
"S.S.S.S.S.S.S.S.S.S.S.S.S.S.S.S.S.a.1 O.[ 2 < G.P.(./.).).P.)./.J.#.U.P.)./.(.(./.K.6 , 1 x Z.S.S.S.S.S.S.S.S.S.S.S.S.S.S.S.S.S.",
"S.S.S.S.S.S.S.S.S.S.S.S.S.S.S.S.S.W % @ @ . ) '.P.(./././.P.J.U.J.#.J.=.U./.(.(./.L.X., * S.S.S.S.S.S.S.S.S.S.S.S.S.S.S.S.S.S.S.",
"S.S.S.S.S.S.S.S.S.S.S.S.S.S.S.S.Z.E B @ @ 6 *.'.P././././.P.K.-.X._ &.-.P././././._.H.7 * S.S.S.S.S.S.S.S.S.S.S.S.S.S.S.S.S.S.S.",
"S.S.S.S.S.S.S.S.S.S.S.S.S.S.S.S.a.uXN @ , X.K.{._.)./.(.(.P.-._ . , _ -.U.)././.P.`.H.2 % u S.S.S.S.S.A.A.A.S.S.S.S.S.S.S.S.S.S.",
"S.S.S.S.S.S.S.S.S.S.S.S.S.S.S.S.~ Z @ @ 6 J.J.U.{._./.(.P.K.-.' , 2 $.=.K._._._.'.I.=.<.N p S.S.S.S.S.S..X|.S.S.S.S.S.S.S.S.S.S.",
"S.S.S.S.S.S.S.S.S.S.S.S.S.S.S.A.V Z 8 @ 6 ).P.I.J.W.`._.P.I.%.4   , ) =.J.U._.U.J.K.L.H.N V M.S.S.S.V. X=X.XA.Z.S.S.S.S.S.S.S.S.",
"S.S.S.S.S.S.S.S.S.S.S.S.S.S.S.v.Z N D S 2 G.U.).U.K.J.L.=.#.{ 7   2 ` | &.=.J.K.L.P.K.X.V Y m.S.A.|.XX.XXXXXXXoXS.V.Z.S.S.S.S.S.",
"S.S.S.S.S.S.S.S.S.S.S.S.S.S.S.l Y S D D 8 2 $.I.U.L.=.&.&.| ] .   . 3 #.&.&.=.L.K.*._ 9 % Y b S.A..X=XoXS.XX*X=X Xn.C.S.S.S.S.S.",
"S.S.S.S.S.S.S.S.S.S.S.S.S.S.S.: Y 8 J J D @ 2 _ #.&.&.| _ , . . .   . < ) | #.#.` 3 . 8 % wXW S.Z..X=XoXV.oX=X-X Xz.n.S.S.S.S.S.",
"S.S.S.S.S.S.S.S.S.S.S.S.S.S.l Y B D J J J 7 $ r 3 0 0 < ,   @ 8 8 @   . < 4 4 7 r $ % D 8 L V S.A. XoX.X.X X X.XS.C.V.S.S.S.S.S.",
"S.S.S.S.S.S.S.S.S.S.S.S.S.S.l uX% D J J J 7 yXMXo.c 0 7 , * w w w w u X H G Y q.q.yXN D S Y V Z.S.S.A..X=XS.n.z.V.S.S.S.S.S.S.S.",
"S.S.S.S.S.S.S.S.S.S.S.S.S.m.L B 8 D D J 8 $ dXzXsXhX9X9X% n S.S.S.S.S.O Z 8XyXhXzXE C S D % B b S.S.A. X=XS.n.n.V.S.S.S.S.S.S.S.",
"S.S.S.S.S.S.S.S.S.S.S.S.S.b.$ k z x x W V ^ ZX$XmXgX9XG @ ! S.S.S.S.S.# G 9XfXhXmX$X@Xw ; w $ b S.S.S.S.S.S.S.S.S.S.S.S.S.S.S.S.",
"S.S.S.S.S.S.S.S.S.S.S.S.S.A.v.A.S.S.S.N.Q Y.U.I.0.q.3.( < ! S.S.S.S.S.# / ( +.+.G.L.L.@.~ Z.! M.S.S.S.S.S.S.S.S.S.S.S.S.S.S.S.S.",
"S.S.S.S.S.S.S.S.S.S.S.S.S.S.S.S.S.S.S.v./ | | | / 4 , ,   ! S.S.S.S.S.* . . < 4 ( | | ( O S.S.S.S.S.S.S.S.S.S.S.S.S.S.S.S.S.S.S.",
"S.S.S.S.S.S.S.S.S.S.S.S.S.S.A.A.S.S.S.v.* 5 5 5 z v.v.b.m.D.S.S.S.S.S.A.M.N.m.! w q 5 O u S.S.S.S.S.S.S.S.S.S.S.S.S.S.S.S.S.S.S.",
"S.S.S.S.S.S.S.S.S.S.S.S.S.Z.x.z.S.S.S.S.S.S.S.S.S.S.S.S.S.S.S.S.S.S.S.S.S.S.S.S.S.S.S.S.S.S.S.S.S.S.S.S.S.S.S.S.S.S.S.S.S.S.S.S."
};
