/* XPM */
static char *xpm_[] = {
/* columns rows colors chars-per-pixel */
"64 64 198 2 ",
"   c #549441",
".  c #559541",
"X  c #589643",
"o  c #589743",
"O  c #5A9742",
"+  c #599843",
"@  c #5A9843",
"#  c #5B9843",
"$  c #5C9943",
"%  c #5D9943",
"&  c #5D9A43",
"*  c #5C9944",
"=  c #5D9A44",
"-  c #5E9A44",
";  c #5F9A44",
":  c #5F9B44",
">  c #5F9B45",
",  c #5F9C45",
"<  c #609B44",
"1  c #619B44",
"2  c #619B45",
"3  c #609C44",
"4  c #619C44",
"5  c #609C45",
"6  c #619C45",
"7  c #629D44",
"8  c #639D44",
"9  c #629C45",
"0  c #639C45",
"q  c #629D45",
"w  c #639D45",
"e  c #649D45",
"r  c #659E45",
"t  c #669F45",
"y  c #649E46",
"u  c #659E46",
"i  c #659F46",
"p  c #669E46",
"a  c #669F46",
"s  c #679F46",
"d  c #679F47",
"f  c #67A046",
"g  c #68A046",
"h  c #69A046",
"j  c #69A146",
"k  c #68A047",
"l  c #69A047",
"z  c #69A147",
"x  c #6AA047",
"c  c #6AA147",
"v  c #6BA147",
"b  c #6BA247",
"n  c #6CA147",
"m  c #6CA247",
"M  c #6CA347",
"N  c #6DA347",
"B  c #6CA248",
"V  c #6DA348",
"C  c #6FA248",
"Z  c #6EA348",
"A  c #6FA348",
"S  c #6FA349",
"D  c #6FA448",
"F  c #6FA449",
"G  c #70A248",
"H  c #70A448",
"J  c #71A448",
"K  c #70A548",
"L  c #71A548",
"P  c #70A449",
"I  c #70A549",
"U  c #71A549",
"Y  c #72A548",
"T  c #72A549",
"R  c #72A649",
"E  c #73A649",
"W  c #73A64A",
"Q  c #73A74A",
"!  c #74A649",
"~  c #75A649",
"^  c #74A749",
"/  c #75A749",
"(  c #76A749",
")  c #74A64A",
"_  c #75A64A",
"`  c #74A74A",
"'  c #75A74A",
"]  c #76A74A",
"[  c #76A849",
"{  c #75A84A",
"}  c #76A84A",
"|  c #77A84A",
" . c #76A94A",
".. c #77A94A",
"X. c #76A84B",
"o. c #76A94B",
"O. c #77A94B",
"+. c #78A84A",
"@. c #78A94A",
"#. c #79A94A",
"$. c #78A94B",
"%. c #79A94B",
"&. c #7AA94A",
"*. c #79AA4A",
"=. c #78AA4B",
"-. c #79AA4B",
";. c #7AAA4A",
":. c #7AAA4B",
">. c #7BAA4B",
",. c #7AAB4B",
"<. c #7BAB4B",
"1. c #7CAA4B",
"2. c #7CAB4B",
"3. c #7DAB4B",
"4. c #7BAC4B",
"5. c #7CAC4B",
"6. c #7DAC4B",
"7. c #7DAD4B",
"8. c #7EAC4B",
"9. c #79AA4C",
"0. c #7AAA4C",
"q. c #7BAA4C",
"w. c #7AAB4C",
"e. c #7BAB4C",
"r. c #7CAB4C",
"t. c #7DAB4C",
"y. c #7CAC4C",
"u. c #7DAC4C",
"i. c #7EAC4C",
"p. c #7FAC4C",
"a. c #7EAD4C",
"s. c #7FAD4C",
"d. c #7FAD4D",
"f. c #7FAE4C",
"g. c #80AE4C",
"h. c #81AE4C",
"j. c #80AF4C",
"k. c #80AE4D",
"l. c #81AE4D",
"z. c #83AF4C",
"x. c #82AF4D",
"c. c #83B04D",
"v. c #84B04D",
"b. c #85B14D",
"n. c #85B14E",
"m. c #86B24E",
"M. c #87B34E",
"N. c #88B34E",
"B. c #89B34E",
"V. c #89B44E",
"C. c #8AB44E",
"Z. c #8AB44F",
"A. c #8BB44F",
"S. c #8CB54F",
"D. c #8CB64F",
"F. c #8DB64F",
"G. c #8EB74F",
"H. c #8DB650",
"J. c #8EB650",
"K. c #8EB750",
"L. c #8FB750",
"P. c #90B850",
"I. c #91B850",
"U. c #91B950",
"Y. c #92B951",
"T. c #93B951",
"R. c #92BA50",
"E. c #92BA51",
"W. c #93BA51",
"Q. c #93BB51",
"!. c #94BB51",
"~. c #96BB51",
"^. c #96BC51",
"/. c #97BC51",
"(. c #97BC52",
"). c #97BD52",
"_. c #98BD52",
"`. c #9BBF53",
"'. c #9CBF53",
"]. c #9CC053",
"[. c #9FC153",
"{. c #9EC054",
"}. c #A1C353",
"|. c #A1C354",
" X c #A4C354",
".X c #A3C454",
"XX c #A3C455",
"oX c #A5C455",
"OX c #A6C555",
"+X c #A6C655",
"@X c #A6C556",
"#X c #AAC856",
"$X c #ACCA56",
"%X c #AECB56",
"&X c #AECA57",
"*X c #AFCA57",
"=X c #AFCB58",
"-X c #B3CE58",
/* pixels */
"e.e.e.e.e.e.e.e.e.e.e.e.e.e.e.e.e.e.e.e.e.e.e.e.e.e.e.e.e.e.e.e.e.e.e.e.e.e.e.e.e.e.e.e.e.e.e.e.e.e.e.e.e.e.e.e.e.e.e.e.e.e.e.e.",
"e.e.e.e.e.e.e.e.e.e.e.e.e.e.e.e.e.e.e.e.e.e.e.e.e.e.e.e.e.e.e.e.e.e.e.e.e.e.e.e.e.e.e.e.e.e.e.e.e.e.e.e.e.e.e.e.e.e.e.e.e.e.e.e.",
"e.e.e.e.e.e.e.e.e.e.e.e.e.e.e.e.e.e.e.e.e.e.e.e.e.e.e.e.e.e.e.e.e.e.e.e.e.e.e.e.e.e.e.e.e.e.e.e.e.e.e.e.e.e.e.e.e.e.e.e.e.e.e.e.",
"e.e.e.e.e.e.e.e.e.e.e.e.e.e.e.e.e.e.e.e.e.e.e.e.e.e.e.e.e.e.e.e.e.e.e.e.e.e.e.e.e.e.e.e.e.e.e.e.e.e.e.e.e.e.e.e.e.e.e.e.e.e.e.e.",
"e.e.e.e.e.e.e.e.e.:.:.e.:.:.e.e.e.e.:.e.:.:.:.:.:.:.e.e.e.e.e.e.e.e.e.e.e.e.e.e.e.e.e.e.e.e.e.e.e.e.e.e.e.e.e.e.e.e.e.e.e.e.e.e.",
"e.e.e.e.e.e.e.e.e.e.:.:.t.3.:.:.e.e.e.:.:.t.t.:.:.e.e.e.e.e.e.e.e.e.e.e.e.e.e.e.e.e.e.e.e.e.e.e.e.e.e.e.e.e.e.e.e.e.e.e.e.e.e.e.",
"e.e.e.e.:.e.e.:.:.:.:.:.} } :.:.e.:.:.:.:.} } :.:.e.e.e.e.e.e.e.e.e.e.e.e.e.e.e.e.e.e.e.e.e.e.e.e.e.e.e.e.e.e.e.e.e.e.:.e.e.e.:.",
"e.e.e.e.:.:.:.:.:.:.:.} w j u.3.:.:.:.u.' w j :.:.:.e.e.e.e.e.e.e.e.e.e.e.e.e.e.e.e.e.e.e.e.e.e.e.e.e.e.e.e.e.e.e.e.:.:.:.} :.:.",
"e.e.e.e.:.:.:.' } :.:.} a j ' ' 5.:.' ' D w j :.:.:.e.e.e.e.e.e.e.e.e.e.e.e.e.e.e.e.e.e.e.e.e.e.e.e.e.e.e.e.e.e.e.e.:.:.5.M.h.} ",
"e.e.e.e.:.t.' a j :.e.:.:.U w a h.U a w j } :.:.:.e.e.e.e.e.e.e.e.e.e.e.e.e.e.e.e.e.e.e.e.e.e.e.e.e.e.e.e.e.e.e.e.e.e.:.N..XQ.U ",
"e.e.e.e.:.u.' < a :.t.:.u.' @ : h.U w @ j t.u.:.:.e.e.e.e.e.e.e.e.e.e.e.e.e.e.e.e.e.e.e.e.e.e.e.e.e.e.e.e.e.e.e.:.:.:.} F.*X/.U ",
"e.e.e.e.:.u.} a j } :.} e.' w a 3.U a w j :.:.:.:.:.e.e.e.e.e.e.e.e.e.e.e.e.e.e.e.e.e.e.e.e.e.e.e.e.e.e.e.e.e.:.:.:.:.u.V.}.Q.:.",
"e.e.e.e.:.:.:.:.U w : a :.e.:.} : j :.:.:.:.:.:.e.e.e.e.e.e.e.e.e.e.e.e.e.e.:.:.:.:.:.:.e.e.e.e.e.e.e.e.e.e.e.e.:.:.M.+XQ.' M.+X",
"e.e.e.e.e.:.:.3.' a w j ' :.u.:.: j :.t.e.:.:.e.e.e.e.e.e.e.e.e.e.e.e.e.e.e.e.:.:.' } :.:.e.e.e.e.e.e.e.e.e.e.e.:.:.M.|.Q.3.N.|.",
"e.e.e.e.:.e.:.:.:.:.5.} , a u.:.:.:.:.:.:.e.:.:.e.e.e.e.e.e.e.e.e.e.e.e.e.e.:.3.D $ w :.e.:.e.e.e.e.e.e.e.e.e.e.:.:.} } V.#X/.U ",
"e.e.e.e.e.e.e.:.:.e.t.} < a u.e.e.e.e.e.e.:.:.e.e.e.e.e.e.e.e.e.e.e.e.e.:.e.:.:.D : a :.e.:.e.:.:.:.e.:.e.e.e.:.:.e.e.:.V.#X/.U ",
"e.e.e.e.e.e.:.:.:.:.:.:.u.u.:.:.e.:.} ' :.e.:.:.e.e.e.e.e.e.e.e.e.e.e.e.e.:.:.t.u.u.u.e.:.e.:.e.t.e.:.e.e.e.e.e.:.:.:.e.} ' } :.",
"e.e.e.e.e.e.e.e.e.:.:.e.:.:.e.e.:.:.u.h.5.:.:.e.e.e.e.e.e.e.e.e.e.e.e.e.:.e.:.} } :.:.:.e.:.e.:.' :.e.:.e.e.e.e.e.e.e.:.e.e.e.:.",
"e.e.e.e.e.e.e.e.e.e.e.e.e.:.:.e.} h.'..XQ.:.:.:.:.e.e.e.e.e.e.e.e.e.e.e.:.u.U a B :.:.:.e.:.u.' $ B :.:.e.e.e.e.e.e.e.e.e.e.e.e.",
"e.e.e.e.e.e.e.e.e.e.e.e.e.:.e.:.U h. X*X!.' ' :.:.:.e.e.e.e.e.e.e.e.e.e.:.u.U : j e.e.:.e.:.u.U   m :.:.e.e.e.e.e.e.e.e.e.e.e.e.",
"e.e.e.e.e.e.e.e.e.e.e.e.e.:.:.:.c.N./._.Q.M.h.:.:.e.e.e.e.e.e.e.e.e.e.e.:.t.' a D e.e.:.e.:.t.} w U :.:.e.e.e.e.e.e.e.e.e.e.e.e.",
"e.e.e.e.e.e.e.e.e.e.e.e.e.e.} 5.-X_.:.G M.*X[.u.:.e.e.e.e.e.e.e.e.e.e.e.e.:.:.:.:.:.:.e.e.:.:.e.:.:.:.:.e.e.e.e.e.e.e.e.e.e.e.e.",
"e.e.e.e.e.e.e.e.e.e.e.e.e.e.:.3.+XQ.h.:.N.|./.5.:.e.e.e.e.e.e.e.e.e.e.e.:.:.:.3.:.:.:.:.e.:.:.:.3.:.:.:.e.e.e.e.e.e.e.e.e.e.e.e.",
"e.e.e.e.e.e.e.e.e.e.e.e.e.:.:.:.5.M.{.+X!.h.:.:.:.e.e.e.e.e.e.e.e.e.e.e.:.e.e.:.:.e.e.:.e.:.e.:.:.:.e.:.e.e.e.e.e.e.e.e.e.e.e.e.",
"e.e.e.e.:.e.e.:.:.e.e.e.:.:.:.e.' h./.{.F.} ' :.:.e.e.e.e.e.e.e.e.e.e.e.e.e.e.e.e.e.e.e.e.e.e.e.e.e.e.e.e.e.e.e.e.e.e.e.e.e.e.e.",
"e.e.e.e.:.:.:.3.:.:.:.:.3.:.:.:.e.:.5.3.:.:.:.:.e.e.e.e.e.e.e.e.e.e.e.e.e.e.e.e.e.e.e.e.e.e.e.e.e.e.e.e.e.e.e.e.e.e.e.e.e.e.e.e.",
"e.e.e.e.e.:.:.:.:.:.:.:.} :.:.:.e.:.} } :.:.:.:.e.e.e.e.e.e.e.e.e.e.e.e.e.e.e.e.e.e.e.e.e.e.e.e.e.e.e.e.e.e.e.e.e.e.e.e.e.e.e.e.",
"e.e.e.e.:.u.' w f :.t.} w a u.:.:.e.e.e.e.:.:.e.e.e.e.e.e.e.e.e.e.e.e.e.e.e.e.e.e.e.e.e.e.e.e.e.e.e.e.e.e.e.e.e.e.e.e.e.e.e.e.e.",
"e.e.e.e.:.u.' w a :.u.} : a u.e.:.e.e.e.e.e.e.e.e.e.e.e.e.e.e.e.e.e.e.e.e.e.e.e.e.e.e.e.e.e.e.e.e.e.e.e.e.e.e.e.e.e.e.e.e.e.e.e.",
"e.e.e.e.:.5.} j j ' } U f j ' ' u.:.e.e.e.e.e.e.e.e.e.e.e.e.e.e.e.e.e.e.e.e.e.e.e.e.e.e.e.e.e.e.e.e.e.e.e.e.e.e.e.e.e.e.e.e.e.e.",
"e.e.e.e.e.:.:.u.U : @ w 5.} @ : u.:.e.e.e.e.e.e.e.e.e.e.e.e.e.e.e.e.e.e.e.e.e.e.e.e.e.e.e.e.e.e.e.e.e.e.e.e.e.e.e.e.e.e.e.e.e.e.",
"e.e.e.e.e.:.:.3.U a w a :.} : a u.:.e.e.e.e.e.e.:.:.e.:.:.:.e.:.e.e.e.e.e.e.e.e.e.e.e.e.e.e.e.e.e.e.e.e.e.e.e.e.e.e.e.e.e.e.e.e.",
"e.e.e.e.e.e.e.:.3.u.u.u.e.:.u.u.:.e.e.e.e.e.e.e.e.:.:.t.t.t.:.e.e.e.e.e.e.e.e.e.e.e.e.e.e.e.e.e.e.e.e.e.e.e.e.e.e.e.e.e.e.e.e.e.",
"e.e.e.e.e.e.:.:.:.:.:.:.:.e.:.:.e.:.:.:.:.e.:.:.:.:.e.' ' } e.:.e.e.e.e.e.e.e.e.e.e.e.e.e.:.e.:.:.:.e.:.e.:.:.:.:.:.e.e.:.:.:.e.",
"e.e.e.e.e.e.e.e.e.e.e.e.e.e.e.e.:.e.u.u.t.:.:.e.:.:.} w w j u.:.e.e.e.e.e.e.e.e.e.e.e.e.e.:.:.e.t.e.:.:.:.3.t.u.t.:.:.:.e.t.t.:.",
"e.e.e.e.e.e.e.e.e.e.e.e.e.e.e.:.e.:.U U } :.:.:.:.3.} < : j u.:.e.e.e.e.e.e.e.e.e.e.e.e.e.:.e.:.U } :.:.:.} U U } :.e.:.} U ' e.",
"e.e.e.e.e.e.e.e.e.e.e.e.e.e.e.:.u.U w : j :.3.:.:.:.} w < j u.:.e.e.e.e.e.e.e.e.e.e.e.e.e.:.u.' @ B :.:.u.m w : B e.e.e.U : j u.",
"e.e.e.e.e.e.e.e.e.e.e.e.e.e.e.:.t.' w : j :.3.:.:.u.:.$ : a u.:.e.e.e.e.e.e.e.e.e.e.e.e.e.:.u.U   B u.3.u.m w : m e.u.u.U X a u.",
"e.e.e.e.e.e.e.e.e.e.e.e.e.:.e.:.t.' a : j :.3.:.:.' U a a B u.:.e.e.e.e.e.e.e.e.e.e.e.e.e.:.u.} w D ' } 5.m w : B :.:.U D a B u.",
"e.e.e.e.e.e.e.e.e.e.e.e.e.:.:.:.u.' w $ j :.:.:.U w a :.:.:.:.:.e.e.e.e.e.e.e.e.e.e.e.e.e.:.:.:.:.B < j 5.j w : m :.' : j :.:.:.",
"e.e.e.e.e.e.e.e.e.e.e.e.e.:.:.:.U D j j D :.:.3.U : w u.u.:.:.:.e.e.e.e.e.e.e.e.e.e.e.e.e.:.:.:.u.U a D t.U j j U :.' a U 5.:.:.",
"e.e.e.e.e.e.e.e.e.e.e.e.e.:.e.:.: j :.:.:.:.:.3.U : w :.e.:.e.:.e.e.e.e.e.e.e.e.e.e.e.e.e.:.e.:.:.e.:.:.:.:.:.:.:.e.:.:.:.:.:.e.",
"e.e.e.e.e.e.e.e.e.e.e.e.e.:.e.:.X a :.u.e.:.:.3.U a a :.e.:.e.e.e.e.e.e.e.e.e.e.e.e.e.e.e.e.e.e.:.e.t.e.:.:.e.e.e.e.e.e.:.:.e.e.",
"e.e.e.e.e.e.e.e.e.e.e.e.e.:.e.:.@ a :.:.:.e.:.:.:.:.:.:.:.:.e.e.e.e.e.e.e.e.e.e.e.e.e.e.e.e.e.:.e.:.:.:.e.:.:.:.:.:.:.:.:.e.:.e.",
"e.e.e.e.e.e.e.e.e.e.e.e.e.:.e.:.w B :.:.e.e.e.:.:.e.e.:.:.e.e.e.e.e.e.e.e.e.e.e.e.e.e.e.e.e.e.e.e.e.e.e.e.e.e.e.e.e.e.e.e.e.e.e.",
"e.e.e.e.e.e.e.e.e.e.e.e.e.:.:.e.e.e.:.:.e.e.:.:.:.:.:.:.e.:.e.e.e.e.e.e.e.e.e.e.e.e.e.e.e.e.e.e.e.e.e.e.e.e.e.e.e.e.e.e.e.e.e.e.",
"e.e.e.e.e.e.e.e.e.e.e.e.e.:.e.:.:.:.e.:.e.e.e.e.e.e.e.e.e.e.e.e.e.e.e.e.e.e.e.e.e.e.e.e.e.e.e.e.e.e.e.e.e.e.e.e.e.e.e.e.e.e.e.e.",
"e.e.e.e.e.e.e.e.e.e.e.e.e.e.e.e.e.e.e.e.e.e.e.e.e.e.e.e.e.e.e.e.e.e.e.e.e.e.e.e.e.e.e.e.e.e.e.e.e.e.e.e.e.e.e.e.e.e.e.e.e.e.e.e.",
"e.e.e.e.e.e.e.e.e.e.e.e.e.e.e.e.e.e.e.e.e.e.e.e.e.e.e.e.e.e.e.e.e.e.e.e.e.e.e.e.e.e.e.e.e.e.e.e.e.e.e.e.e.e.e.e.e.e.e.e.e.e.e.e.",
"e.e.e.e.e.e.e.e.e.e.e.e.e.e.e.e.e.e.e.e.e.e.e.e.e.e.e.e.e.e.e.e.e.e.e.e.e.e.e.e.e.e.e.e.e.e.e.e.e.e.:.e.e.e.:.:.e.e.e.e.e.e.e.e.",
"e.e.e.e.e.e.e.e.e.e.e.e.e.e.e.e.e.e.e.e.e.e.e.e.e.e.e.e.e.e.e.e.e.e.e.e.e.e.e.e.e.e.e.e.e.e.e.e.e.:.:.} ' } :.:.:.e.e.e.e.e.e.e.",
"e.e.e.e.e.e.e.e.e.e.e.e.e.e.e.e.e.e.e.e.e.e.e.e.e.e.e.e.e.e.e.e.e.e.e.e.e.e.e.e.e.e.e.e.e.e.e.e.:.e.:.u.V.h.:.:.:.:.:.e.:.e.e.e.",
"e.e.e.e.e.e.e.e.e.e.e.e.e.e.e.e.e.e.e.e.e.e.e.e.e.e.e.e.e.e.e.e.e.e.e.e.e.e.e.e.e.e.e.e.e.e.e.:.:.:.B N.*XF.} U :.u.5.:.e.e.e.e.",
"e.e.e.e.e.e.e.e.e.e.e.e.e.e.e.e.e.e.e.e.e.e.e.e.e.e.e.e.e.e.e.e.e.e.e.e.e.e.e.e.e.e.e.e.e.e.e.e.} c.L.F.L.L.L.Q.u.B U :.:.e.e.e.",
"e.e.e.e.e.e.e.e.e.e.e.e.e.e.e.e.e.e.e.e.e.e.e.e.e.e.e.e.e.e.e.e.e.e.e.e.e.e.e.e.e.e.e.e.e.e.e.e.' V..XQ.:.L.[..Xc.w j t.:.e.e.e.",
"e.e.e.e.e.e.e.e.e.e.e.e.e.e.e.e.e.e.e.e.e.e.e.e.e.e.e.e.e.e.e.e.e.e.e.e.e.e.e.e.e.e.e.e.e.e.e.e.U F.*XQ.B Q.+X=XM.: a t.:.e.e.e.",
"e.e.e.e.e.e.e.e.e.e.e.e.e.e.e.e.e.e.e.e.e.e.e.e.e.e.e.e.e.e.e.e.e.e.e.e.e.e.e.e.e.e.e.e.e.e.e.e.} M.Q.F.V.N.M.V.4.j D t.:.e.e.e.",
"e.e.e.e.e.e.e.e.e.e.e.e.e.e.e.e.e.e.e.e.e.e.e.e.e.e.e.e.e.e.e.e.e.e.e.e.e.e.e.e.e.e.e.e.e.e.e.:.:.e.' V.*Xu.w : m :.:.:.:.e.e.e.",
"e.e.e.e.e.e.e.e.e.e.e.e.e.e.e.e.e.e.e.e.e.e.e.e.e.e.e.e.e.e.e.e.e.e.e.e.e.e.e.e.e.e.e.e.e.e.e.:.e.e.' M.+X5.a < B :.:.:.e.e.e.e.",
"e.e.e.e.e.e.e.e.e.e.e.e.e.e.e.e.e.e.e.e.e.e.e.e.e.e.e.e.e.e.e.e.e.e.e.e.e.e.e.e.e.e.e.e.e.e.e.e.:.e.:.:.:.:.:.3.:.:.:.e.:.e.e.e.",
"e.e.e.e.e.e.e.e.e.e.e.:.:.:.:.:.e.:.e.e.e.e.e.e.e.e.e.e.e.e.e.e.e.e.e.e.e.e.e.e.e.e.e.e.e.e.e.e.e.:.:.:.:.:.e.e.e.:.:.e.e.e.e.e.",
"e.e.e.e.e.e.e.e.e.e.e.:.:.e.:.e.:.e.e.e.e.e.e.e.e.e.e.e.e.e.e.e.e.e.e.e.e.e.e.e.e.e.e.e.e.e.e.e.e.e.:.e.e.:.:.:.:.:.e.e.e.e.e.e.",
"e.e.e.e.e.e.e.e.e.e.e.:.e.:.' } e.:.e.e.e.e.e.e.e.e.e.e.e.e.e.e.e.e.e.e.e.e.e.e.e.e.e.e.e.e.e.e.e.e.e.e.e.e.e.e.e.e.e.e.e.e.e.e.",
"e.e.e.e.:.e.:.:.:.:.e.:.e.U X : u.:.:.e.:.:.:.:.:.:.e.e.e.e.e.e.e.e.e.e.e.e.e.e.e.e.e.e.e.e.e.e.e.e.e.e.e.e.e.e.e.e.e.e.e.e.e.e."
};
