/* XPM */
static char *xpm_[] = {
/* columns rows colors chars-per-pixel */
"64 64 253 2 ",
"   c #180E15",
".  c #270719",
"X  c #391718",
"o  c #2E1216",
"O  c #1E2917",
"+  c #26271A",
"@  c #2B2D1B",
"#  c #350426",
"$  c #261926",
"%  c #3B0736",
"&  c #2B1537",
"*  c #32122D",
"=  c #2C2727",
"-  c #382524",
";  c #2A332A",
":  c #383928",
">  c #383834",
",  c #292632",
"<  c #1C1E22",
"1  c #420916",
"2  c #491A18",
"3  c #581718",
"4  c #540C1B",
"5  c #711319",
"6  c #47251A",
"7  c #4F2E1B",
"8  c #7A2518",
"9  c #6F3417",
"0  c #430636",
"q  c #510E29",
"w  c #6E1427",
"e  c #443A39",
"r  c #573733",
"t  c #552F28",
"y  c #6C2D2C",
"u  c #32461C",
"i  c #385627",
"p  c #3D4733",
"a  c #324D2A",
"s  c #376528",
"d  c #2B731C",
"f  c #444E1E",
"g  c #4B721B",
"h  c #474729",
"j  c #465828",
"k  c #554A36",
"l  c #475833",
"z  c #4F5332",
"x  c #6F4E30",
"c  c #486436",
"v  c #576637",
"b  c #58773B",
"n  c #4A7427",
"m  c #647834",
"M  c #7E4A14",
"N  c #350F48",
"B  c #353253",
"V  c #260964",
"C  c #35326A",
"Z  c #1A1F6D",
"A  c #470945",
"S  c #55074A",
"D  c #481549",
"F  c #530F55",
"G  c #661055",
"H  c #492A4A",
"J  c #6C3943",
"K  c #4D1A64",
"L  c #561369",
"P  c #6A0768",
"I  c #6B1074",
"U  c #522D7A",
"Y  c #602876",
"T  c #4B5045",
"R  c #72514D",
"E  c #5A7643",
"W  c #576B44",
"Q  c #69734A",
"!  c #655879",
"~  c #8B1119",
"^  c #8D3519",
"/  c #B32E18",
"(  c #8A1C26",
")  c #842923",
"_  c #962B23",
"`  c #AD302B",
"'  c #A21820",
"]  c #CD3212",
"[  c #C93229",
"{  c #D63B25",
"}  c #C62F2F",
"|  c #844819",
" . c #96491A",
".. c #B14A17",
"X. c #964F34",
"o. c #AF502C",
"O. c #8D6A31",
"+. c #A96630",
"@. c #D64418",
"#. c #D85819",
"$. c #CA5214",
"%. c #E8561E",
"&. c #E95613",
"*. c #DA7214",
"=. c #E97818",
"-. c #EF7410",
";. c #DB4826",
":. c #CB4B2D",
">. c #E24727",
",. c #E65825",
"<. c #D57230",
"1. c #F27928",
"2. c #E96F29",
"3. c #A92D52",
"4. c #8F1F44",
"5. c #D02F60",
"6. c #A5504F",
"7. c #966C4F",
"8. c #AB7B4E",
"9. c #88706C",
"0. c #9D655E",
"q. c #CF5159",
"w. c #D17449",
"e. c #EB506D",
"r. c #D96B72",
"t. c #3B8423",
"y. c #3A891F",
"u. c #4D961C",
"i. c #52A91E",
"p. c #5A9726",
"a. c #538C2B",
"s. c #668A38",
"d. c #719432",
"f. c #5BAE24",
"g. c #67AA26",
"h. c #76BA26",
"j. c #6FB02D",
"k. c #69AC1C",
"l. c #72CA1B",
"z. c #76D028",
"x. c #7EE114",
"c. c #5C8342",
"v. c #5D9A44",
"b. c #579642",
"n. c #658744",
"m. c #6A9445",
"M. c #649D45",
"N. c #6C9748",
"B. c #729C4A",
"V. c #749C47",
"C. c #6AA147",
"Z. c #6EA348",
"A. c #67A046",
"S. c #74A549",
"D. c #76A84A",
"F. c #7BAB4C",
"G. c #77A64A",
"H. c #8BB536",
"J. c #978E2C",
"K. c #FA910C",
"L. c #F59816",
"P. c #F28A14",
"I. c #FCB90D",
"U. c #F9A814",
"Y. c #FCBB13",
"T. c #FDB716",
"R. c #F3A812",
"E. c #D29231",
"W. c #F48523",
"Q. c #ED9429",
"!. c #EE902F",
"~. c #EDA935",
"^. c #F8B839",
"/. c #F5B028",
"(. c #CA8D1E",
"). c #8ADA1B",
"_. c #87D61B",
"`. c #8ED41D",
"'. c #8AD724",
"]. c #8CCF31",
"[. c #96E92B",
"{. c #A2E53B",
"}. c #95DE28",
"|. c #FCC40D",
" X c #FCC716",
".X c #FDD31E",
"XX c #F9C523",
"oX c #FAC638",
"OX c #FBD333",
"+X c #F8E33C",
"@X c #B59652",
"#X c #81AE4C",
"$X c #85B14E",
"%X c #8AB44E",
"&X c #8EB750",
"*X c #93BA51",
"=X c #A6976C",
"-X c #EABC4A",
";X c #F5B947",
":X c #ECB047",
">X c #EBAA71",
",X c #D59F5D",
"<X c #A7C655",
"1X c #A6DA46",
"2X c #9CC053",
"3X c #F9CA47",
"4X c #FCDA49",
"5X c #FBD955",
"6X c #EBC455",
"7X c #FCE45B",
"8X c #FCE557",
"9X c #FAE04B",
"0X c #F9DC65",
"qX c #F6D773",
"wX c #FCE964",
"eX c #FBE868",
"rX c #FAE979",
"tX c #1728AE",
"yX c #681C8F",
"uX c #54328E",
"iX c #6A2B90",
"pX c #593EAF",
"aX c #6431A9",
"sX c #4F509B",
"dX c #544DB1",
"fX c #6246AD",
"gX c #4E69B5",
"hX c #513FC0",
"jX c #2D5CE9",
"kX c #5B54CC",
"lX c #567CD4",
"zX c #5971CB",
"xX c #5B68DF",
"cX c #D97D84",
"vX c #F37487",
"bX c #A27F98",
"nX c #5785D6",
"mX c #5395E8",
"MX c #A29386",
"NX c #A2958C",
"BX c #F68A99",
"VX c #C9AF97",
"CX c #F8ACB1",
"ZX c #DCA4A0",
"AX c #E8D390",
"SX c #FAED8F",
"DX c #F4EBB8",
"FX c #F8EEB2",
"GX c #E0CFA6",
"HX c #F5D3C7",
"JX c #F4EFC9",
"KX c #E3DDE6",
"LX c #F8F4F2",
/* pixels */
"F.F.F.F.F.F.F.F.F.F.F.F.F.F.F.F.F.F.F.F.F.F.F.F.F.F.F.F.F.F.F.F.F.F.F.F.F.F.F.F.F.F.F.F.F.F.F.F.F.F.F.F.F.F.F.F.F.F.F.F.F.F.F.F.",
"F.F.F.F.F.F.F.F.F.F.F.F.F.F.F.F.F.F.F.F.F.F.F.F.F.F.D.B.N.N.N.B.B.N.S.F.F.F.F.F.F.F.F.F.F.F.F.F.F.F.F.F.F.F.F.F.F.F.F.F.F.F.F.F.",
"F.F.F.F.F.F.F.F.F.F.F.F.F.F.F.F.F.F.F.F.F.F.F.F.F.G.- X - - X X 6 X.t n.F.F.F.F.F.F.F.F.F.F.F.F.F.F.F.F.F.F.F.F.F.F.F.F.F.F.F.F.",
"F.F.F.F.F.F.F.F.F.F.F.F.F.F.F.F.F.F.F.F.F.F.F.F.E R VXJXJXJXeXwX-Xo.w v m.m.N.D.F.F.F.F.F.F.F.F.F.F.F.F.F.F.F.F.F.F.F.F.F.F.F.F.",
"F.F.F.F.F.F.F.F.F.F.F.F.F.F.F.F.F.F.F.F.F.F.G.W =XAXSXeXeXwXwX7X,X8.7.9.9.9.Q z v m.F.F.F.F.F.F.F.F.F.F.F.F.F.F.F.F.F.F.F.F.F.F.",
"F.F.F.F.F.F.F.F.F.F.F.F.F.F.F.F.F.F.F.F.F.B.l =XqXeXeX7X5X3X^.~.~.qXrXrXSXFXJXHXVXR v V.F.F.F.F.F.F.F.F.F.F.F.F.F.F.F.F.F.F.F.F.",
"F.F.F.F.F.F.F.F.F.F.F.F.D.D.F.F.F.F.F.F.F.h @X5X8X7X5X3X~.<.<.<.w.E.Q.;X5X0XrXrXSXDX=XR n.G.F.F.F.F.F.F.F.F.F.F.F.F.F.F.F.F.F.F.",
"F.F.F.F.F.F.F.F.F.F.F.D.M.C.F.F.F.F.F.F.b x 6X4X4X3X!.,XAXGXFXFXFX0XoX/.~.;X5X5X5X8XSXAX=Xk E F.F.F.F.F.F.F.F.F.F.F.F.F.F.D.F.F.",
"F.F.F.F.F.F.F.D.D.F.F.D.M.C.D.D.F.F.D.D.i E.oXoX:X2.;X0XeXwXwXwXwXwXwXwX8X~.~.~.3X4X7XeX7X6X8.t h n.S.F.F.F.F.F.F.F.F.F.F.$XF.D.",
"F.F.F.F.F.F.D.M.C.F.F.F.F.S.M.M.#XS.M.c., E.W.W.,.!.4X4X8X8X8X7X7X7X8X8XXXXX/.W.!.^.3X3X3XoX3X6X6X7.v B.F.F.F.F.F.F.F.F.%X<X*XS.",
"F.F.F.F.F.F.D.M.M.F.F.F.F.D.b.v.#Xm.c a , <.#.;.,.^.oX^.!.!.Q.Q.Q.Q.Q.Q.W.W.W.1.>.;.;.,.,.>.>.,.%.@.) b F.F.F.F.F.F.F.D.%X<X*XS.",
"F.F.F.F.F.F.D.M.C.D.F.D.F.D.M.M.N.T e r r x X.) :.!.W.1.%.,.,.,.%.,.,.,.,.,.%.>.;.{ { { ;.>.>.;.` y v B.F.F.F.F.F.F.F.F.%X<X*XF.",
"F.F.F.F.F.F.F.F.S.M.v.M.F.F.F.D.z VXDXJXDXFXDXGX0.o.>.>.@.@./ :...+.<.w.w.` / { ;.>.{ [ [ [ [ _ r n.F.F.F.F.F.F.F.F.$X<X*XD.$X<X",
"F.F.F.F.F.F.F.F.D.M.M.C.D.F.F.m.O.5X7X7XwXwXrXSXFX=XX.` X.J.J.2XH.J.AXFXJXDXAX<.` / / _ t h h z N.F.F.F.F.F.F.F.F.F.$X<X*XF.%X<X",
"F.F.F.F.F.F.F.F.F.F.F.D.v.M.F.h +.;X-X-X-X6XqXrXSXSX@Xx H.{.{.H.s.m O.0XrXrXeXeX:X+.t k F.F.F.F.F.F.F.F.F.F.F.F.F.F.D.D.%X<X*XZ.",
"F.F.F.F.F.F.F.F.F.F.F.D.M.M.F.l X.:.5 5 5 ~ _ w.6X0X0X@Xj ].].u g d.2 -X5XwXwX7X5XoXx V.F.F.F.F.F.F.F.F.F.F.F.F.F.F.F.F.%X<X*XS.",
"F.F.F.F.F.F.F.F.F.F.F.F.F.F.F.F.y ( 5 7 s j h y _ E.oX-X6 v j ].g H.X ,.2.;X5X8X8X5X-Xk Z.F.F.F.F.F.F.F.F.F.F.F.F.F.F.F.D.D.D.F.",
"F.F.F.F.F.F.F.F.F.F.F.F.F.F.F.F.v o z g.z.z.z.g.u 7 o.!.t s.j.n a d.X 2.1.1.!.3X4X4X3XO.b F.F.F.D.F.F.F.F.F.F.F.F.F.F.F.F.F.F.F.",
"F.F.F.F.F.F.F.F.F.F.F.F.F.F.F.F.m.O g.x.[.].p.a.d d 7 y 6 d.u , ; d.o ;.,.,.,.1.;X4X4X:Xh G.F.D.v.Z.F.F.F.F.F.F.F.F.F.F.F.F.F.F.",
"F.F.F.F.F.F.F.F.F.F.F.F.F.F.F.F.m.+ j.'.d.l = h h.l.u.i a ;   p n j.o :.;.;.,.,.1.;XOXoXO.b F.S.b.C.F.F.F.F.F.F.F.F.F.F.F.F.F.F.",
"F.F.F.F.F.F.F.F.F.F.F.F.F.F.F.F.V.O p.s.k NXj.h._._.z.g.i   $ p p.H.. ( ( ' :.,.,.1.oXOX+.j F.D.M.S.F.F.F.F.F.F.F.F.F.F.F.F.F.F.",
"F.F.F.F.F.F.F.F.F.F.F.F.F.F.D.F.2X+ + X 6.JX]._._._._.l.j   : j p.H.  4 4 1 1 ) ` ;.1.^./.x B.F.F.F.F.F.F.F.F.F.F.F.F.F.F.F.F.F.",
"F.F.F.F.F.F.F.F.F.F.F.F.F.F.F.F.<XV.v ~ q.JX]._._.`._.h.a     O i.H.X } } ` q . 1 3 _ <.Q.+.b F.F.F.F.F.F.F.F.F.F.F.F.F.F.F.F.F.",
"F.F.F.F.F.F.F.F.F.F.F.F.F.F.F.F.F.#Xm o.8.AX1X}.`.`._._.p.a.p.z.f.j 3 } } ` k B.n.b W y :.#.h F.F.F.F.F.F.F.F.F.F.F.F.F.F.F.F.F.",
"F.F.F.F.F.F.F.F.F.F.F.F.F.F.F.F.m.i s.].`.).}.'.).)._._._._.'.f.n 6 ` } ` r N.F.F.F.F.E 3 ` h F.F.F.F.F.F.F.F.F.F.F.F.F.F.F.F.F.",
"F.F.F.F.F.F.F.F.F.F.F.F.F.F.F.F.m.+ h.).).).).).)._.z.i.u.u.u.a $ w _ _ t n.F.F.F.F.F.F.E : c F.F.F.F.F.F.F.F.F.F.F.F.F.F.F.F.F.",
"F.F.F.F.F.F.F.F.F.F.F.F.D.F.F.F.B.; s.'._.).`.'.h.a.i + = , , $ $ * # . > F.F.F.F.F.F.F.F.F.F.F.F.F.F.F.F.F.F.F.F.F.F.F.F.F.F.F.",
"F.F.F.F.F.F.D.M.A.F.F.D.M.M.F.F.F.n.> s t.y.t.t.a ; , B gXlXnXnXlXlXdXU K H > N.F.F.F.F.F.F.F.F.F.F.F.F.F.F.F.F.F.F.F.F.F.F.F.F.",
"F.F.F.F.F.F.D.M.M.F.F.D.v.M.F.F.F.F.V.p ; @ + + $ C zXkXhXaXaXyXyXI I I P P L * n.F.F.F.F.F.F.F.F.F.F.F.F.F.F.F.F.F.F.F.F.F.F.F.",
"F.F.F.F.F.F.D.C.C.D.D.S.A.C.D.D.F.F.F.F.N.s.c & dXkXdXuXuXU F L I I P P P P G & m.F.F.F.F.F.F.F.F.F.F.F.F.F.F.F.F.F.F.F.F.F.F.F.",
"F.F.F.F.F.F.F.F.S.v.b.M.F.D.b.v.F.F.F.F.F.F.c.& dXdXmXmXmXzXsXuXK F P P P S & E F.F.F.F.F.F.F.F.F.F.F.F.F.F.F.F.F.F.F.F.F.F.F.F.",
"F.F.F.F.F.F.F.F.S.M.M.M.F.D.v.M.F.F.F.F.F.W N sXxXxXkXkXdXfXpXaXfXuXU iXF e N.F.F.F.F.F.F.F.F.F.F.F.F.F.F.F.F.F.F.F.F.F.F.F.F.F.",
"F.F.F.F.F.F.F.F.F.F.F.F.F.F.F.F.F.F.F.F.E C gXkXdXuXK D D L P I yXiXiXiXY H B.F.F.F.F.F.F.F.F.F.F.F.F.F.F.F.F.F.F.F.F.F.F.F.F.F.",
"F.F.F.F.F.F.F.F.F.F.F.F.F.F.F.F.F.F.F.m.B dXdXuXD q w 4.4.w q G P I I I I L l F.F.F.F.F.F.F.F.F.F.F.F.F.F.F.F.F.F.F.F.F.F.F.F.F.",
"F.F.F.F.F.F.F.F.F.F.F.F.F.F.F.F.F.F.F.; uXfXK ) _ ` vXCXBXe.3.0 A P P P P P S c F.F.F.F.F.F.F.F.F.F.F.F.F.F.F.F.F.F.F.F.F.F.F.F.",
"F.F.F.F.F.F.F.F.F.F.F.F.F.F.F.F.F.F.S.; U H ^ =.8 q.CXHXCXvXe.w # A P P P P S p F.F.F.F.F.F.F.F.S.D.F.F.F.D.S.S.D.F.F.F.D.S.D.F.",
"F.F.F.F.F.F.F.F.F.F.F.F.F.F.F.F.F.S.M.; X ..L.W.5 q.r.cXr.e.5.4.% % A S S A e G.F.F.F.F.F.F.F.D.b.Z.F.F.F.C.M.v.Z.F.F.F.S.v.C.F.",
"F.F.F.F.F.F.F.F.F.F.F.F.F.F.F.F.F.S.M.:  .R.Y.L.8 q.CXHXHXBXe.5.# A % . . v G.F.F.F.F.F.F.F.F.S.b.Z.F.F.F.C.M.v.C.F.F.F.S.b.M.F.",
"F.F.F.F.F.F.F.F.F.F.F.F.F.F.F.F.F.S.M.x *.|.|.T.#.` cXBXBXvXe.5.# % F N $ F.F.F.F.F.F.F.F.F.F.D.M.Z.D.D.F.C.M.v.Z.F.F.S.Z.M.Z.F.",
"F.F.F.F.F.F.F.F.F.F.F.F.F.F.F.F.F.S.M.@ ..=.P.=./ 6.HXHXvXe.5.3.# 0 % L K H N.F.F.F.F.F.F.F.F.F.F.Z.M.C.F.C.M.v.C.F.D.v.C.F.F.F.",
"F.F.F.F.F.F.F.F.F.F.F.F.F.F.F.F.S.Z.C.O N N H D 1 J BXCXBXvX5.q . % 0 A U U H E F.F.F.F.F.F.F.F.F.S.M.Z.F.S.C.C.S.F.D.M.S.F.F.F.",
"F.F.F.F.F.F.F.F.F.F.F.F.F.F.F.F.v.C.F.; tXtXtXtXZ ! NX9.0.3.3.q . % S 0 % U uXK T n.S.F.F.F.F.F.F.F.F.F.F.F.F.F.F.F.F.F.F.F.F.F.",
"F.F.F.F.F.F.F.F.F.F.F.F.F.F.F.F.b.M.m.6 r y r y & NXKXLXVX0.R 4 2 : 0 A A % U fXuXB T v B.B.S.S.G.F.F.F.F.F.F.F.F.F.F.F.F.F.F.F.",
"F.F.F.F.F.F.F.F.F.F.F.F.F.F.F.F.b.M.b | L.P.*.Q.J KXLXLXKXVXR w 2 u : * 0 S 0 K sXlXgXsXC B B B T n.m.F.F.F.F.F.F.F.F.F.F.F.F.F.",
"F.F.F.F.F.F.F.F.F.F.F.F.F.F.F.F.M.Z.b | Y.U.L.R.y ZXLXLXLXGXR ( 3 s u.g.a.: - * # % C zXlXnXnXnXsX# $ b F.F.F.F.F.F.F.F.F.F.F.F.",
"F.F.F.F.F.F.F.F.F.F.F.F.F.F.F.F.F.F.b | Y.T.R.(.6.>XZX,X,XVX6.( 5 n g.'.'.p.j.h.j 7 @ = : : p e H & W E F.F.F.F.F.F.F.F.F.F.F.F.",
"F.F.F.F.F.F.F.F.F.F.F.F.F.F.F.F.F.F.b M T.Y.Y.(.6.>X>Xw.w.y w _ _ u ].[.[.].[.).'.g.'.}.k.).h.g   E F.F.F.F.F.F.F.F.F.F.F.F.F.F.",
"F.F.F.F.F.F.F.F.F.F.F.F.F.F.F.F.F.F.b M Y. X X(.X.w.w.w.w.y _ *.$.7 p.j.a.z.[.[.h.p.l.j.g n h ; c.F.F.F.F.F.F.F.F.F.F.F.F.F.F.F.",
"F.F.F.F.F.F.F.F.F.F.F.F.F.F.F.F.F.F.b 9 U. X XXXE.| 9 5 5 5 $.-.-.8 : c i u.i.u.n n t.s $ $ T G.F.F.F.F.F.F.F.F.F.F.F.F.F.F.F.F.",
"F.F.F.F.F.F.F.F.F.F.F.F.F.F.F.F.F.F.s.3 P.U. X X.X.X/.*.*.=.U.P.K...3 - $ i s i = > > = p n.F.F.F.F.F.F.F.F.F.F.F.F.F.F.F.F.F.F.",
"F.F.F.F.F.F.F.F.F.F.F.F.F.F.F.F.F.F.D.: o.L.I. X X X|.I.I. XT.-.K.-.8 . . + + + o = : c.D.F.F.F.F.F.F.D.D.D.F.F.F.F.F.F.F.F.F.F.",
"F.F.F.F.F.F.F.F.F.F.F.F.F.F.F.F.F.F.F.b 8 /.I.I.|.|.|. X.X XK.K.U.K./ X v v l c b B.G.F.F.F.F.F.F.F.F.F.%X#XF.F.F.F.F.F.F.F.F.F.",
"F.F.F.F.F.F.F.F.F.F.F.F.F.F.F.F.F.F.F.N.2 2.XX X X|..XXX/.K.U.|.I.-./ x F.F.F.F.F.F.F.F.F.F.F.F.F.F.Z.%X<X%XD.S.F.F.F.F.F.F.F.F.",
"F.F.F.F.F.F.F.F.F.F.F.F.F.F.F.F.F.F.F.D.k / =.L.T.XX/.L.L.T.|.Y.L.@.8 m.F.F.F.F.F.F.F.F.F.F.F.F.D.$X&X%X&X&X&X*XF.Z.S.F.F.F.F.F.",
"F.F.F.F.F.F.F.F.F.F.F.F.F.F.F.F.F.F.F.F.Z.z 8 @.&.-.K.U.Y.T.L.=.] / t G.F.F.F.F.F.F.F.F.F.F.F.F.D.%X<X*XF.&X2X<X$XM.C.F.F.F.F.F.",
"F.F.F.F.F.F.F.F.F.F.F.F.F.F.F.F.F.F.F.F.F.m.z ) / #.-.P.K.-.@.] ] ( b F.F.F.F.F.F.F.F.F.F.F.F.F.S.%X<X*XZ.*X<X<X$Xv.M.F.F.F.F.F.",
"F.F.F.F.F.F.F.F.F.F.F.F.F.F.F.F.F.F.F.F.F.F.G.W 3 ~ / ] ] / ' ~ 5 z G.F.F.F.F.F.F.F.F.F.F.F.F.F.D.$X*X%X%X%X$X%XF.C.Z.F.F.F.F.F.",
"F.F.F.F.F.F.F.F.F.F.F.F.F.F.F.F.F.F.F.F.F.F.F.F.l . 1 5 y D N % % l F.F.F.F.F.F.F.F.F.F.F.F.F.F.F.F.D.%X<XF.M.v.C.F.F.F.F.F.F.F.",
"F.F.F.F.F.F.F.F.F.F.F.F.F.F.F.F.F.F.F.F.F.F.B.Q t 9 3 | MXjXjXtXV l F.F.F.F.F.F.F.F.F.F.F.F.F.F.F.F.D.$X<XF.M.M.Z.F.F.F.F.F.F.F.",
"F.F.F.F.F.F.F.F.F.F.F.F.F.F.F.F.F.F.F.F.F.B.r o.4X+XJ.^ MXjXjXtXV l F.F.F.F.F.F.F.F.F.F.F.F.F.F.F.F.F.F.F.F.F.F.F.F.F.F.F.F.F.F.",
"F.F.F.F.F.F.F.F.F.F.F.F.F.F.F.F.F.F.F.F.F.> o.=.-.&...^ 8.fXY G q l F.F.F.F.F.F.F.F.F.F.F.F.F.F.F.F.F.F.F.F.F.F.F.F.F.F.F.F.F.F.",
"F.F.F.F.F.F.F.F.F.F.F.F.F.F.F.F.F.F.F.F.F.: X 2 2 6 X X 6 2 2 2 X l F.F.F.F.F.F.F.F.F.F.F.F.F.F.F.F.F.F.F.F.F.F.F.F.F.F.F.F.F.F.",
"F.F.F.F.F.F.F.F.F.F.F.F.F.F.D.D.F.F.F.F.F.F.F.F.F.F.F.F.F.F.F.F.F.F.F.F.F.F.F.F.F.F.F.F.F.F.F.F.F.F.F.F.F.F.F.F.F.F.F.F.F.F.F.F.",
"F.F.F.F.F.F.F.F.F.F.F.F.F.S.b.v.F.F.F.F.F.F.F.F.F.F.F.F.F.F.F.F.F.F.F.F.F.F.F.F.F.F.F.F.F.F.F.F.F.F.F.F.F.F.F.F.F.F.F.F.F.F.F.F."
};
