/* XPM */
static char *xpm_[] = {
/* columns rows colors chars-per-pixel */
"64 64 189 2 ",
"   c #559541",
".  c #599743",
"X  c #5D9A44",
"o  c #639D45",
"O  c #699F48",
"+  c #67A046",
"@  c #6AA147",
"#  c #6EA348",
"$  c #73A649",
"%  c #76A84A",
"&  c #7BAB4C",
"*  c #7EAD50",
"=  c #EDBB1C",
"-  c #EAB412",
";  c #F2BE17",
":  c #F3BF18",
">  c #DEBC2D",
",  c #C4B437",
"<  c #CFB931",
"1  c #C3B239",
"2  c #C4BC3C",
"3  c #C9BC3E",
"4  c #D4BD33",
"5  c #DEBF31",
"6  c #D4BE3C",
"7  c #E6BD25",
"8  c #E2BE31",
"9  c #F4C017",
"0  c #F5C41A",
"q  c #F9C519",
"w  c #F7C81E",
"e  c #FACB1D",
"r  c #FFD11F",
"t  c #CEC03F",
"y  c #DAC037",
"u  c #D3C23B",
"i  c #DAC63A",
"p  c #DEC93A",
"a  c #EEC527",
"s  c #E3C12D",
"d  c #EDC629",
"f  c #EDCA2E",
"g  c #F1C424",
"h  c #F6CA23",
"j  c #FACD22",
"k  c #F2C629",
"l  c #F4CD2B",
"z  c #FED222",
"x  c #FCD52B",
"c  c #FDD82E",
"v  c #E6CA33",
"b  c #EDCA31",
"n  c #E0C63F",
"m  c #EDC83D",
"M  c #E3C534",
"N  c #F3CD33",
"B  c #F2CE3A",
"V  c #E6D03E",
"C  c #F5D234",
"Z  c #FAD532",
"A  c #FDDB35",
"S  c #F4D33D",
"D  c #F8D73F",
"F  c #F3D83F",
"G  c #FDDD3B",
"H  c #FDE03D",
"J  c #82A548",
"K  c #83AD4D",
"L  c #8BAE4C",
"P  c #9FAC47",
"I  c #94AE4C",
"U  c #9EAE4A",
"Y  c #85B14E",
"T  c #8AB44E",
"R  c #93B14A",
"E  c #9EB249",
"W  c #84AE51",
"Q  c #8BAE53",
"!  c #97AC52",
"~  c #85B057",
"^  c #8CB352",
"/  c #8DB159",
"(  c #93B353",
")  c #9BB555",
"_  c #93BA51",
"`  c #9BBB55",
"'  c #96B25F",
"]  c #9DBA58",
"[  c #A1AD44",
"{  c #BDAE41",
"}  c #A3B247",
"|  c #ACB243",
" . c #A4B349",
".. c #ABB54C",
"X. c #ADB94C",
"o. c #B3B443",
"O. c #B2B946",
"+. c #BDB942",
"@. c #B3BA49",
"#. c #A4B750",
"$. c #ABB352",
"%. c #A5B955",
"&. c #A4BD59",
"*. c #B2BA57",
"=. c #C3BC42",
"-. c #C8BD43",
";. c #D7BD41",
":. c #9CC053",
">. c #A4C454",
",. c #ABC155",
"<. c #ADCA57",
"1. c #ADC15C",
"2. c #AFCB58",
"3. c #B1C857",
"4. c #B3C35C",
"5. c #BCC65E",
"6. c #BCC85C",
"7. c #B5C560",
"8. c #B7C960",
"9. c #BDC961",
"0. c #C2C044",
"q. c #C4C24A",
"w. c #CBC149",
"e. c #D1C343",
"r. c #DCCB41",
"t. c #C9C255",
"y. c #CAC857",
"u. c #C0C55C",
"i. c #CAC558",
"p. c #C7CA5B",
"a. c #CDCD5D",
"s. c #C5C455",
"d. c #D1C656",
"f. c #D2C952",
"g. c #DBCE50",
"h. c #D2D65F",
"j. c #DCD658",
"k. c #EED347",
"l. c #F5DA45",
"z. c #FADD43",
"x. c #F3D748",
"c. c #F5DB4B",
"v. c #E7D551",
"b. c #EAD654",
"n. c #E9DA55",
"m. c #E6D65B",
"M. c #F6DF53",
"N. c #FDE243",
"B. c #FCE348",
"V. c #FAE14F",
"C. c #FCE14D",
"Z. c #FCE34E",
"A. c #FDE54B",
"S. c #FEE84F",
"D. c #F6E154",
"F. c #FBE552",
"G. c #FEEA56",
"H. c #FDEA55",
"J. c #F9E65A",
"K. c #FEEE5D",
"L. c #FCEC5C",
"P. c #C6CE63",
"I. c #C4CD64",
"U. c #CACF63",
"Y. c #CBD163",
"T. c #CBD166",
"R. c #CED363",
"E. c #C9D068",
"W. c #D5D666",
"Q. c #DBD662",
"!. c #D3D568",
"~. c #E4DC62",
"^. c #E2DE69",
"/. c #EFE567",
"(. c #E1E16C",
"). c #ECE56B",
"_. c #EDE96E",
"`. c #F6E662",
"'. c #F7EB64",
"]. c #FCED62",
"[. c #F2E66B",
"{. c #F3EB6D",
"}. c #FBEF6A",
"|. c #FDF164",
" X c #F7F06F",
".X c #FEF46C",
"XX c #FFF774",
"oX c #FEF673",
"OX c #FFF873",
/* pixels */
"& & & & & & & & & & & & & & & & & & & & & & & & & & & & & & & & & & & & & & & & & & & & & & & & & & & & & & & & & & & & & & & & ",
"& & & & & & & & & & & & & & & & & & & & & & & & & & & & & & & & & & & & & & & & & & & & & & & & & & & & & & & & & & & & & & & & ",
"& & & & & & & & & & & & & & & & & & & & & & & & & & & & & & & & & & & & & & & & & & & & & & & & & & & & & & & & & & & & & & & & ",
"& & & & & & & & & & & & & & & & & & & & & & & & & & & & & & & & & & & & & & & & & & & & & & & & & & & & & & & & & & & & & & & & ",
"& & & & & & & & & & & & & & & & & & & & & & & & & & & & & & & & & & & & & & & & & & & & & & & & & & & & & & & & & & & & & & & & ",
"& & & & & & & & & & & & & & & & & & & & & & & & & & & & & & & & & & & & & & & & & & & & & & & & & & & & & & & & & & & & & & & & ",
"& & & & & & & & & & & & % % & & & & & & & % % & & & & & & & & & & & & & & & & & & & & & & & & & & & & & & & & & & & & & & & & & ",
"& & & & & & & & & & & % o @ & & & & & & $ o @ & & & & & & & & & & & & & & & & & & & & & & & & & & & & & & & & & & & & & & % & & ",
"& & & & & & & $ % & & % o @ $ $ & & $ $ # o @ & & & & & & & & & & & & & & & & & & & & & & & & & & & & & & & & & & & & & & Y K % ",
"& & & & & & $ o @ & & & & $ o o K $ o o @ % & & & & & & & & & & & & & & & & & & & & & & & & & & & & & & & & & & & & & & T >._ $ ",
"& & & & & & $ o o & & & & $ . X K $ o . @ & & & & & & & & & & & & & & & & & & & & & & & & & & & & & & & & & & & & & & % T 2._ $ ",
"& & & & & & % o @ % & % & $ o o & $ o o @ & & & & & & & & & & & & & & & & & & & & & & & & & & & & & & & & & & & & & & & T >._ & ",
"& & & & & & & & $ o X o & & & % X @ & & & & & & & & K ^ ( ` &.1.4.6.P.U.Y.Y.T.E.I.6.4.&.` ^ W & & & & & & & & & & & Y >._ $ Y >.",
"& & & & & & & & $ o o @ $ & & & X @ & & & & W ( 1.6.a.j.n.M.V.V.C.C.C.C.C.C.S.F.H.K.].}.{.(.T.4.( W & & & & & & & & Y >._ & T >.",
"& & & & & & & & & & & % X o & & & K R #.s.m.c.x.V p e.q.@.#.) ( Q ^ ^ ^ ^ ^ ( #...+.u v S B.K..XoX).9.( & & & & & & % % T <._ $ ",
"& & & & & & & & & & & % o @ R O.-.e.e.q.@. .R T K K & & & & & & & & & & & & & & # o O K R  .0.r.l.H..X{.W.&.K & & & & & T <._ $ ",
"& & & & & & & & & & & & I +.;.3 o.L & $ & & & & & & & & & & & & & & & & & & & & & & & & & & & K O.i G K.XX{.P.K & & & & % $ % & ",
"& & & & & & & & & K o.-.O.I & & & & & K & & & & & & & & & & & & & & & & & & & % % & & & & & & & $ & R u G |.XX_.1.& & & & & & & ",
"& & & & & & & K  .o.} L & & & & % K ` >._ & & & & & & & & & & & & & & & & & $ o # & & & & & & $ X # & L =.F K.OX_.4.& & & & & & ",
"& & & & & & ! $.I K & & & & & & $ K >.2._ $ $ & & & Q *.t.d.i...Q & & & & & $ X @ & & & & & & $   @ & & & O.C .XOXoX4.& & & & & ",
"& & & & W ' Q & & & & & & & & & Y T _ ` _ Y K & L u.[.oXOXOXoX|.b.q.& ( 5.W.W.5.( & & & & & & % o $ & & & & X.z..XXX X1.& & & & ",
"& & & * ~ W & & & & & & & W %.u.Q.y...J Y 3.,.^ a.{.OXXX.X|.].|.|.].h.~..XXXoXoX).%.& & & & & & & & & & & & K C |.OXOX^.W & & & ",
"& & & & & & & & & & & & ( ^..XoXOXoX.Xm.{ m.{.~..XOXXX.XL..XXXOXOXOXOX.X|.XXXXOXOX{.%.& & & & & & & & & & & & k..XOXXX}.%.& & & ",
"& & & & & & & & & & & ( ).XXOXOX.XK.K.|.J.L.].|.K.].|.G..XOXOXOXXXXXOXOX.X.XOXOX.X|.f.& & & & & & & & & & & ) ].OXOXOXK.w.& & & ",
"& & & & & & & & & & & p.XXXXOX|.].XXOXOXOXOXOX.XH..XXXOXOXOXXXXXXXOXOXOXXX.XXXXXXX.Xv.I & & & & & & & & & &.).XXOXOXoXN.t & & & ",
"& & & & & & & & & & L ~.OXOX|..XXXXXOXOXXXOXXXOX.X.XXXXXXXOXXXXXXXOXOXOXOXOXXXOXOXOX.Xn K & & & & & K ` R.{.OXXXOXoXS.x @.& & & ",
"& & & & & & & & & & U /.OX.X.XXXXXXXXXXXXXXXXXXXXXoXOXXXXXXXXXXXOXOXOXOXOXOXOXOXOXXXOXz.} & & & K ) P.{.XXOXOXOXOXH.x f L & & & ",
"& & & & & & $ o + & o.`.OX.XXXXXXXXXXXXXXXXXXXXXXXXXOXXXXXXXOXoX'.|.XXOXOXOXOXOXOXOXOXH.3 ^ ] 9.[.oXOXXXOXoXOX.XB.z l @.& & & & ",
"& & & & & & $ o W !.{.oXOXoXOXOXOXXXXXXXXXOXXXXXOXOXXXXXXXXXXXXX}.k.|.OXOX.XoXOXXXOXOXN.f _.oXoXXXXXOXOXOX.XG.c z l X.K & & & & ",
"& & & & & & % @ 7.XXXXXXOXOXOXOXOXXXOXOXOXOXXXOXOXOXXXXXXXXXXXXXXXD.l.oXOXOX.X].oXXX.Xc j |.OXXXXXXXOXoXK.G z z b  .& & & & & & ",
"& & & & & & & & 8.oXXXXXXXXXOXOX.XK.|.|.|.|.|..XOXOXXXXXXXXXXXXXXX}.g '.OXOXXXZ.l.H.c r e l .XXXOX|.B.c z z l @.K & & & & & & & ",
"& & & & & & & K p..XOXOXXXXXOX|.]..XoXXXXXoX.X|..XOXOXOXXXXXXXOXOXL.h ].OXOXXXH.h z z z q h K.L.H c z z f 3 E & & & & & & & & & ",
"& & & & & & & a.oXXXOXOXXXXX|..XOXXXOXXXXXXXOXXX]..XOXOXXXXXXXOXoXc.c |.OXOXOXH.e r r r w q x z z z b @.L & & & & & & & & & & & ",
"& & & & & & X..XOXXXOXOXXX.X|.XXXXOXOXXXXXOXXXOX.XL.OXXXXXXX.X.XXX.XK..XOXOXoXN.w z r r r q j b =.E K & & & & & & & & & & & & & ",
"& & & & & & g.OXOXXXOXOX|.l.oXXXOXK.B.z.F.oXXXOXOXD..XOXXXXXoXK..XXXOX|..X.XH.x w r r z z h o.R K & & & & & & & & & & & & & & & ",
"& & & & & W c.OXoXOXXX|.c S XX.XS.z e N D.K.oXXXOXV.'.OXXXXXOX].J.OXOX|.Z c z e e z z S.x l L & $ % & & & % $ $ % & & & % $ $ & ",
"& & & & & / l.XX|.|.OXB.z l.XXS.z e l.OXOXOXXXOXOXl.J.XXXXXXXX].l.OXOX|.h r r e z N.K.G.z d L $ X # & & & @ o X # & & & $ X @ & ",
"& & & & & W l |.G.l..XA z l..XA z w J.XXXXXXXXOX.XZ M.OXXXXXOXG S OX.Xl.q z z z z G G z r > L $   # & & & @ o X @ & & & $ . o & ",
"& & & & & & M A J.l H.c r S .Xc r 0 z.oXOXOXXXXXB.j b XXOXOXK.j N S.A g = e x x r r r r r 1 & % o # $ % & @ o X # & & $ # o # & ",
"& & & & & & O.z x h z z r l .Xc r w w N.|.|.K.B.z j l OX.XH.x 0 0 j N J..Xc.9 x r r r r d L & & & # o @ & @ o X @ & $ X @ & & & ",
"& & & & & & & 6 j r : w r e c.A r r 9 e z z z e 0 e e x z r e - m `.oXOX|..XD 0 z z z h } & & & & $ o # & $ @ @ $ & $ o $ & & & ",
"& & & & & & & K 2 j e e e r j A z r e 0 ; ; : 0 e z z r e w N l '.XXXXOXZ.x.H.0 j a 4 E & & & & & & & & & & & & & & & & & & & & ",
"& & & & & & & & R b z z r z z z z z z r z z z z A z z z x B..XF.L.OXXXOXB.B S.0 g [ K & & & & & & & & & & & & & & & & & & & & & ",
"& & & & & & & & & | w r z N.x z z |.F.A A A N.K.OXN.r x ].OXOX.Xl G S.G h c.x 7 P & & & & & & & & & & & & & & & & & & & & & & & ",
"& & & & & & & & & K < j r S.H.x Z XXoX.X.X.X.XOXOXS.r j V.XXOXK.k l Z C S A r 4 W & & & & & & & & & & & & & & & & & & & & & & & ",
"& & & & & & & & & & o.h r z c w G XXOXXXoXXXXXXXOXS.r z D oX|.A h G G G c r j o.& & & & & & & & & & & & & & & & & & & & & & & & ",
"& & & & & & & & & & K 4 r z z 0 Z OXXXXXoXXXXXXX.XA r r w x z e e z z z z z 5 L & & & & & & & & & & & & & & & & & & & & & & & & ",
"& & & & & & & & & & & R 4 l l = j G..XXXOXXXOX.XB.x r e 0 z j e r r r z j s I & & & & & & & & & & & & & & & & & & & & & & & & & ",
"& & & & & & & & & & & & K L R [ s z G G.|.|.H.A z r z 0 9 y } o.8 k g 8 o.K & & & & & & & & & & & & & & & & & & & & & & & & & & ",
"& & & & & & & & & & & & & & & & | j r z r z z r r z j | L & & & & W W & & & & & & & & & & & & & & & & & & & & & & & & & & & & & ",
"& & & & & & & & & & & & & & & & & , h r z r r r z d } & & & & & & & & & & & & & & & & & & & & & & & & % $ % & & & & & & & & & & ",
"& & & & & & & & & & & & & & & & & K [ > h z j g , I & & & & & & & & & & & & & & & & & & & & & & & & & & T K & & & & & & & & & & ",
"& & & & & & & & & & & & & & & & & & & & & & & & & & & & & & & & & & & & & & & & & & & & & & & & & & # T 2.T % $ & & & & & & & & ",
"& & & & & & & & & & & & & & & & & & & & & & & & & & & & & & & & & & & & & & & & & & & & & & & & % Y ^ T ^ ^ ^ _ & # $ & & & & & ",
"& & & & & & & & & & & & & & & & & & & & & & & & & & & & & & & & & & & & & & & & & & & & & & & & $ T >._ & ^ :.>.Y o @ & & & & & ",
"& & & & & & & & & & & & & & & & & & & & & & & & & & & & & & & & & & & & & & & & & & & & & & & & $ T 2._ # _ >.2.Y X o & & & & & ",
"& & & & & & & & & & & & & & & & & & & & & & & & & & & & & & & & & & & & & & & & & & & & & & & & % Y _ T T T Y T & @ # & & & & & ",
"& & & & & & & & & & & & & & & & & & & & & & & & & & & & & & & & & & & & & & & & & & & & & & & & & & $ T 2.& o X @ & & & & & & & ",
"& & & & & & & & & & & & & & & & & & & & & & & & & & & & & & & & & & & & & & & & & & & & & & & & & & $ Y >.& o o # & & & & & & & ",
"& & & & & & & & & & & & & & & & & & & & & & & & & & & & & & & & & & & & & & & & & & & & & & & & & & & & & & & & & & & & & & & & ",
"& & & & & & & & & & & & & & & & & & & & & & & & & & & & & & & & & & & & & & & & & & & & & & & & & & & & & & & & & & & & & & & & ",
"& & & & & & & & & & & & & & & & & & & & & & & & & & & & & & & & & & & & & & & & & & & & & & & & & & & & & & & & & & & & & & & & ",
"& & & & & & & & & & & & & & $ % & & & & & & & & & & & & & & & & & & & & & & & & & & & & & & & & & & & & & & & & & & & & & & & & ",
"& & & & & & & & & & & & & $ . X & & & & & & & & & & & & & & & & & & & & & & & & & & & & & & & & & & & & & & & & & & & & & & & & "
};
