/* XPM */
static char *xpm_[] = {
/* columns rows colors chars-per-pixel */
"64 64 175 2 ",
"   c #559541",
".  c #599743",
"X  c #5D9A44",
"o  c #639D45",
"O  c #6A9D44",
"+  c #6AA147",
"@  c #6EA348",
"#  c #73A649",
"$  c #78A249",
"%  c #76A84A",
"&  c #7BAB4C",
"*  c #AD870E",
"=  c #B48403",
"-  c #B88603",
";  c #BB8B03",
":  c #B1850A",
">  c #BF9004",
",  c #B5900F",
"<  c #AE8612",
"1  c #AA8914",
"2  c #A48D1E",
"3  c #AD9619",
"4  c #AD991F",
"5  c #9B9326",
"6  c #9A942A",
"7  c #9C9C2F",
"8  c #849D3A",
"9  c #8D9D3C",
"0  c #929A35",
"q  c #909C38",
"w  c #A28E22",
"e  c #A29022",
"r  c #A89621",
"t  c #A69B24",
"y  c #AB9A22",
"u  c #8BA03E",
"i  c #97A836",
"p  c #92A93F",
"a  c #A5A126",
"s  c #AFAA25",
"d  c #AAA92D",
"f  c #B6AD25",
"g  c #BBAB21",
"h  c #B5AD2C",
"j  c #BDB02B",
"k  c #A5A430",
"l  c #C29403",
"z  c #C69A03",
"x  c #C99D03",
"c  c #C39609",
"v  c #C69C09",
"b  c #CCA103",
"n  c #D5AC03",
"m  c #D8AF04",
"M  c #D1A60C",
"N  c #D4AC0A",
"B  c #DBB401",
"V  c #DCB807",
"C  c #DBB50C",
"Z  c #DDBA0C",
"A  c #C7A911",
"S  c #CAB41F",
"D  c #DBB616",
"F  c #DFBE14",
"G  c #DEBD1C",
"H  c #E0BF15",
"J  c #DEBB20",
"K  c #DBBC2C",
"L  c #C8BB3E",
"P  c #E1BF20",
"I  c #E0C017",
"U  c #E2C31C",
"Y  c #DFC62C",
"T  c #DDC53C",
"R  c #E4C522",
"E  c #E3C827",
"W  c #E6CB2A",
"Q  c #E3C42B",
"!  c #E3C632",
"~  c #E7CE33",
"^  c #E8CF32",
"/  c #E8CF3D",
"(  c #E9D136",
")  c #EBD43C",
"_  c #84A444",
"`  c #80A648",
"'  c #81AD4D",
"]  c #8FAD49",
"[  c #85B14E",
"{  c #8AB44E",
"}  c #86AF50",
"|  c #89AF51",
" . c #8DB451",
".. c #93B354",
"X. c #9AB756",
"o. c #93BA51",
"O. c #9BB956",
"+. c #9EB958",
"@. c #A6AF46",
"#. c #A8B74C",
"$. c #A5BD5A",
"%. c #ACBF5C",
"&. c #9CC053",
"*. c #A4C455",
"=. c #A8C456",
"-. c #ADCA57",
";. c #ACC15D",
":. c #AFCB58",
">. c #B3C35D",
",. c #B7C560",
"<. c #BCC961",
"1. c #C0C150",
"2. c #ECD543",
"3. c #EED944",
"4. c #ECD748",
"5. c #EEDB4B",
"6. c #F0DE4D",
"7. c #EFDC54",
"8. c #F1DF51",
"9. c #F2E154",
"0. c #F4E55B",
"q. c #F7E85D",
"w. c #C2CD64",
"e. c #C7D166",
"r. c #CCD267",
"t. c #CED369",
"y. c #D2D66B",
"u. c #DADB6D",
"i. c #E4DF6C",
"p. c #E3E06F",
"a. c #EDE56A",
"s. c #F5E562",
"d. c #F7EA64",
"f. c #F7EC66",
"g. c #F7EA63",
"h. c #F8EA67",
"j. c #F9EC66",
"k. c #F9EE6A",
"l. c #FBEF6C",
"z. c #F9ED6F",
"x. c #F9EE6B",
"c. c #FBF06F",
"v. c #FAF06C",
"b. c #FBF16E",
"n. c #E2E070",
"m. c #E6E471",
"M. c #EAE673",
"N. c #EEE872",
"B. c #F3EA74",
"V. c #F1EB75",
"C. c #F6EB75",
"Z. c #F5ED76",
"A. c #F5EC75",
"S. c #F5ED76",
"D. c #FBF171",
"F. c #FCF372",
"G. c #FCF271",
"H. c #FDF375",
"J. c #FDF475",
"K. c #FEF577",
"L. c #FEF576",
"P. c #FEF577",
"I. c #FCF373",
"U. c #F9F178",
"Y. c #FDF479",
"T. c #FEF578",
"R. c #FEF579",
"E. c #FFF679",
"W. c #FEF678",
"Q. c #FDF57A",
"!. c #FEF57A",
"~. c #FFF67A",
"^. c #FFF77A",
"/. c #FFF67B",
"(. c #FFF67A",
/* pixels */
"& & & & & & & & & & & & & & & & & & & & & & & & & & & & & & & & & & & & & & & & & & & & & & & & & & & & & & & & & & & & & & & & ",
"& & & & & & & & & & & & & & & & & & & & & & & & & & & & & & & & & & & & & & & & & & & & & & & & & & & & & & & & & & & & & & & & ",
"& & & & & & & & & & & & & & & & & & & & & & & & & & & & & & & & & & & & & & & & & & & & & & & & & & & & & & & & & & & & & & & & ",
"& & & & & & & & & & & & & & & & & & & & & & & & & & & & & & & & & & & & & & & & & & & & & & & & & & & & & & & & & & & & & & & & ",
"& & & & & & & & & & & & & & & & & & & & & & & & & & & & & & & & & & & & & & & & & & & & & & & & & & & & & & & & & & & & & & & & ",
"& & & & & & & & & & & & & & & & & & & & & & & & & & & & & & & & & & & & & & & & & & & & & & & & & & & & & & & & & & & & & & & & ",
"& & & & & & & & & & & & % % & & & & & & & % % & & & & & & & & & & & & & & & & & & & & & & & & & & & & & & & & & & & & & & & & & ",
"& & & & & & & & & & & % o + & & & & & & # o + & & & & & & & & & & & & & & & & & & & & & & & & & & & & & & & & & & & & & & % & & ",
"& & & & & & & # % & & % o + # # & & # # @ o + & & & & & & & & & & & & & & & & & & & & & & & & & & & & & & & & & & & & & & [ ' % ",
"& & & & & & # o + & & & & # o o ' # o o + % & & & & & & & & & & & & & & & & & & & & & & & & & & & & & & & & & & & & & & { *.o.# ",
"& & & & & & # o o & & & & # . X ' # o . + & & & & & & & & & & & & & & & & & & & & & & & & & & & & & & & & & & & & & & % { -.o.# ",
"& & & & & & % o + % & % & # o o & # o o + & & & & & & & & & & & & & & & & & & & & & & & & & & & & & & & & & & & & & & & { *.o.& ",
"& & & & & & & & # o X o & & & % X + & & & & & & & & & & & & & & & & & & & & & & & & & & & & & & & & & & & & & & & & [ =.o.# [ =.",
"& & & & & & & & # o o + # & & & X + & & & & & & & & & & & & & & & & & & & & & & & # % & & & & & & & & & & & & & & & [ *.o.& { *.",
"& & & & & & & & & & & % X o & & & & & & & & & & & & & & & & & & & & & & & & & & @ X o & & & & & & & & & & & & & & & % % { -.o.# ",
"& & & & & & & & & & & % o o & & & & & & & & & & & & & & & & & & & & & & & & & & @ X o & & & & & & & & & & & & & & & & & { -.o.# ",
"& & & & & & & & & & & & & & & & & & % # & & & & & & & & & & & & & & & & & & & & & & & & & & & & & & & & & & & & & & & & % # % & ",
"& & & & & & & & & & & & & & & & & & & ' & & & & & & & & & & & & & & & & & & & % % & & & & & & & # & & & & & & & & & & & & & & & ",
"& & & & & & & & & & & & & & ' $.r.t.<.=.O.$.w.y.<...& & & & & & & & & & & & # o @ & & & & & & # X @ & & & & & & & & & & & & & & ",
"& & & & & & & & & & & & ' ..m.!.!.!.!.B.B.!.!.!.!.U.t.} & & & & & & & & & & # X + & & & & & & #   + & & & & & & & & & & & & & & ",
"& & & & & & & & & ' ;.y.p.Z.!.!.!.!.!.!.!.!.!.!.!.!.!.u.' & ' +.X.& +.w.r.w...O @ & & & & & & % o # & & & & & & & & & & & & & & ",
"& & & & & & & &  .M.!.!.!.!.!.!.!.!.!.!.!.!.!.!.!.!.!.!.C.i.Z.!.!.B.!.!.!.!.!.1.& & & & & & & & & & & & & & & & & & & & & & & & ",
"& & & & & & & & u.!.!.!.!.!.!.!.!.!.!.!.!.!.!.!.!.k.8.!.!.h./ s.!.!.!.!.!.!.!.0.p & & & & & & & & & & & & & & & & & & & & & & & ",
"& & & & & & & %.!.!.!.!.!.!.!.!.!.!.!.!.!.!.!.K.) I G.!.!.!.K.! l.!.!.!.!.!.!.G.g & & & & & & & & & & & & & & & & & & & & & & & ",
"& & & & & & & u.!.!.!.!.!.!.!.!.!.!.!.!.!.!.!.) B ) !.!.!.!.!.2.D G 2.G.!.!.!.G.N #.' & & & & & & & & & & & & & & & & & & & & & ",
"& & & & ' ,.M.!.!.!.v.l.d.8.v.!.!.!.!.!.!.6.U B B ) !.!.!.!.!.G.k.l.0.5.!.!.!.7.Q G.r.& & & & & & & & & & & & & & & & & & & & & ",
"& & & | n.!.!.!.!.!.G.~ Z 3.f.!.!.!.!.!.K.k.v.0.R H K.!.!.!.!.K.!.!.!.K.K.!.!.H.!.!.!...& & & & & & & & & & & & & & & & & & & & ",
"& & & n.!.!.!.!.!.!.!.K.2.!.!.!.G.!.!.!.!.!.!.!.K.R 9.!.!.v.3.) K.!.!.!.!.!.!.!.!.!.!.>.& & & & & & & & & & & & & & & & & & & & ",
"& & +.!.!.!.!.0.!.!.!.!.3.!.!.0.F !.!.!.!.!.!.!.!.!.!.!.!.l.6.V ( !.!.!.!.!.!.!.!.!.!.L ' & & & & & & & & & & & & & & & & & & & ",
"& & <.!.!.!.!.3.!.!.!.v.~ !.0.F W G.!.!.!.!.!.!.!.!.!.!.!.!.!.6.Z j.!.!.!.!.!.!.!.!.s.d.N. .& & & & & & & & & & & & & & & & & & ",
"& & e.!.!.!.!.k.G.!.!.0.G.!.3.G.!.!.!.!.!.!.!.!.!.!.!.!.!.!.!.K.I 3.!.!.!.!.!.!.!.K.K.!.!.e.& & & & & & & & & & & & & & & & & & ",
"& & w.K.K.!.!.!.!.!.!.!.!.!.!.!.!.!.!.!.!.!.!.!.!.!.!.!.!.!.!.!.U ( !.!.!.!.!.!.!.!.!.!.!.i.& & & & & & & & & & & & & & & & & & ",
"& & $.k.9.K.!.!.!.!.!.!.!.!.!.!.!.!.!.!.!.!.H.( g.!.!.!.!.G.0.0.Z 3.!.!.!.!.!.!.!.!.!.!.!.!.B.u.w.>.$.X.......+.$.>.>.;. .& & & ",
"& & ' a.R 4.l.!.!.!.!.!.g.!.!.!.!.!.!.!.!.!.!.Z Z k.!.!.!.G.F Z B ) G.k.G.!.!.!.K.6.g.l.l.!.!.!.!.!.Y.U.Z.Z.Z.U.!.!.G.k.a.%.& & ",
"& & & O.Y B J b.!.!.!.j.W !.K.g.g.!.!.!.!.!.!.0.q.d.3.0.!.!.( B B B R E K.!.G.0.9.6.Z 3.R 0.K.!.!.!.!.!.!.K.h.6.^ G S h j T & & ",
"& & & & ] f N N P W R ) !.!.!.K.9.U 3.9.!.!.!.!.!.!.v.I I l.3.B B B B W !.j.Z B B Z Z Z N M Z R W W E U F N A s i ` & & ` k # & ",
"& & & & & & m B B B R K.!.!.!.!.!.3.W G.!.!.!.!.!.!.9.( B W W B B B B W 5.( B B B B n n z < r 3 3 3 4 t 7 8 O o @ & & & $ o + & ",
"& & & & & & v B B B 0.!.!.!.!.!.!.G.G.!.!.!.!.!.!.!.0.V B B B B B B B F U Z B B B B b ; : ` & #   @ & & & + o X + & & & # . o & ",
"& & & & & & e x B V l.!.!.!.!.!.!.!.!.!.!.!.!.!.!.!.q.B B B B B B B B B B B B B B B l : u & & % o @ # % & + o X @ & & # @ o @ & ",
"& & & & & & _ * ; c 7.!.!.!.!.!.!.!.!.!.!.!.G.0.3.G.8.B B B B B B B B n B B B B B b = 9 & & & & & @ o + & + o X + & # X + & & & ",
"& & & & & & & _ 2 : K 0.!.!.!.!.!.!.!.!.!.!.l.Z V W U B B B B n z B B x x m B B x - 2 & & & & & & # o @ & # + + # & # o # & & & ",
"& & & & & & & & & & @.V ) k.G.5.!.!.!.!.!.!.9.B B B B B B B B z = n B n - = - - : 5 & & & & & & & & & & & & & & & & & & & & & & ",
"& & & & & & & & & & & d v M C N ( H.!.!.!.j.I n n z B B B B B ; = l n b ; : 6 q _ & & & & & & & & & & & & & & & & & & & & & & & ",
"& & & & & & & & & & & & u 6 e y B R 3.9.) F B l l - n B B B l - = = - = - w & & & & & & & & & & & & & & & & & & & & & & & & & & ",
"& & & & & & & & & & & & & & & & a m B B B n l - = = ; l l - = = < : : 1 0 & & & & & & & & & & & & & & & & & & & & & & & & & & & ",
"& & & & & & & & & & & & & & & & & 7 , > ; - - : 2 6 1 : = : 1 9 & ` ` & & & & & & & & & & & & & & & & & & & & & & & & & & & & & ",
"& & & & & & & & & & & & & & & & & & ` 0 6 5 6 9 & & & _ u _ & & & & & & & & & & & & & & & & & & & & & & & & & & & & & & & & & & ",
"& & & & & & & & & & & & & & & & & & & & & & & & & & & & & & & & & & & & & & & & & & & & & & & & & & & & & & & & & & & & & & & & ",
"& & & & & & & & & & & & & & & & & & & & & & & & & & & & & & & & & & & & & & & & & & & & & & & & & & & & & & & & & & & & & & & & ",
"& & & & & & & & & & & & & & & & & & & & & & & & & & & & & & & & & & & & & & & & & & & & & & & & & & & & & & & & & & & & & & & & ",
"& & & & & & & & & & & & & & & & & & & & & & & & & & & & & & & & & & & & & & & & & & & & & & & & & & & % # % & & & & & & & & & & ",
"& & & & & & & & & & & & & & & & & & & & & & & & & & & & & & & & & & & & & & & & & & & & & & & & & & & & { ' & & & & & & & & & & ",
"& & & & & & & & & & & & & & & & & & & & & & & & & & & & & & & & & & & & & & & & & & & & & & & & & & @ { -.{ % # & & & & & & & & ",
"& & & & & & & & & & & & & & & & & & & & & & & & & & & & & & & & & & & & & & & & & & & & & & & & % [  .{  . . .o.& @ # & & & & & ",
"& & & & & & & & & & & & & & & & & & & & & & & & & & & & & & & & & & & & & & & & & & & & & & & & # { *.o.&  .&.*.[ o + & & & & & ",
"& & & & & & & & & & & & & & & & & & & & & & & & & & & & & & & & & & & & & & & & & & & & & & & & # { -.o.@ o.=.:.[ X o & & & & & ",
"& & & & & & & & & & & & & & & & & & & & & & & & & & & & & & & & & & & & & & & & & & & & & & & & % [ o.{ { { [ { & + @ & & & & & ",
"& & & & & & & & & & & & & & & & & & & & & & & & & & & & & & & & & & & & & & & & & & & & & & & & & & # { -.& o X + & & & & & & & ",
"& & & & & & & & & & & & & & & & & & & & & & & & & & & & & & & & & & & & & & & & & & & & & & & & & & # [ =.& o o @ & & & & & & & ",
"& & & & & & & & & & & & & & & & & & & & & & & & & & & & & & & & & & & & & & & & & & & & & & & & & & & & & & & & & & & & & & & & ",
"& & & & & & & & & & & & & & & & & & & & & & & & & & & & & & & & & & & & & & & & & & & & & & & & & & & & & & & & & & & & & & & & ",
"& & & & & & & & & & & & & & & & & & & & & & & & & & & & & & & & & & & & & & & & & & & & & & & & & & & & & & & & & & & & & & & & ",
"& & & & & & & & & & & & & & # % & & & & & & & & & & & & & & & & & & & & & & & & & & & & & & & & & & & & & & & & & & & & & & & & ",
"& & & & & & & & & & & & & # . X & & & & & & & & & & & & & & & & & & & & & & & & & & & & & & & & & & & & & & & & & & & & & & & & "
};
