/* XPM */
static char *xpm_[] = {
/* columns rows colors chars-per-pixel */
"64 64 254 2 ",
"   c #1A110C",
".  c #1A0F12",
"X  c #261718",
"o  c #340F15",
"O  c #37371E",
"+  c #2D2C18",
"@  c #380425",
"#  c #390A36",
"$  c #2C132B",
"%  c #362825",
"&  c #283329",
"*  c #363428",
"=  c #322F2E",
"-  c #17251B",
";  c #511218",
":  c #651518",
">  c #741316",
",  c #4F2C1B",
"<  c #712519",
"1  c #480938",
"2  c #56063A",
"3  c #4B1228",
"4  c #721725",
"5  c #691032",
"6  c #4D3128",
"7  c #682623",
"8  c #772626",
"9  c #793525",
"0  c #703330",
"q  c #34561A",
"w  c #35761D",
"e  c #3B492A",
"r  c #365030",
"t  c #3B6726",
"y  c #2E712A",
"u  c #4E6E1E",
"i  c #45482C",
"p  c #46582A",
"a  c #434933",
"s  c #594536",
"d  c #475734",
"f  c #565736",
"g  c #54502B",
"h  c #704D31",
"j  c #52762C",
"k  c #496335",
"l  c #566637",
"z  c #59783C",
"x  c #4C6B29",
"c  c #777D20",
"v  c #657135",
"b  c #484B1B",
"n  c #341350",
"m  c #323352",
"M  c #2E1170",
"N  c #35336A",
"B  c #15174F",
"V  c #460946",
"C  c #540344",
"Z  c #580C54",
"A  c #4C1051",
"S  c #680D4F",
"D  c #50166B",
"F  c #6A0C67",
"G  c #6B0E75",
"H  c #67187A",
"J  c #661568",
"K  c #492A71",
"L  c #603643",
"P  c #3B574D",
"I  c #504F49",
"U  c #724E42",
"Y  c #597844",
"T  c #5B674B",
"R  c #677843",
"E  c #8D1414",
"W  c #AB1D15",
"Q  c #8E2E16",
"!  c #A33817",
"~  c #AE3019",
"^  c #861B26",
"/  c #913327",
"(  c #B42F2A",
")  c #C93829",
"_  c #CE312C",
"`  c #D03017",
"'  c #8D5419",
"]  c #904C31",
"[  c #B24829",
"{  c #926C34",
"}  c #B36F2D",
"|  c #B15A19",
" . c #D64817",
".. c #CF4F17",
"X. c #E7511C",
"o. c #F4781A",
"O. c #EA6D16",
"+. c #CB4729",
"@. c #D64F28",
"#. c #E15426",
"$. c #E64A28",
"%. c #DD6728",
"&. c #CA7435",
"*. c #D87233",
"=. c #E86A27",
"-. c #EA7728",
";. c #F37826",
":. c #F16926",
">. c #D47013",
",. c #8C2B4A",
"<. c #B22A50",
"1. c #A01A43",
"2. c #CB2D52",
"3. c #995447",
"4. c #8F7357",
"5. c #A67445",
"6. c #90786F",
"7. c #A4626A",
"8. c #CE7949",
"9. c #EA576C",
"0. c #F46679",
"q. c #DF425D",
"w. c #478D1E",
"e. c #58A21D",
"r. c #59862B",
"t. c #599936",
"y. c #538C2D",
"u. c #628838",
"i. c #659527",
"p. c #5BA42E",
"a. c #71B233",
"s. c #61AB1E",
"d. c #78CE1E",
"f. c #7AC926",
"g. c #76D12C",
"h. c #6FE02D",
"j. c #5D9A44",
"k. c #579542",
"l. c #598742",
"z. c #688A45",
"x. c #639D45",
"c. c #6B9547",
"v. c #729E49",
"b. c #709847",
"n. c #6AA147",
"m. c #6EA348",
"M. c #67A046",
"N. c #74A549",
"B. c #76A84A",
"V. c #7BAB4C",
"C. c #78A84A",
"Z. c #75A852",
"A. c #648063",
"S. c #82B624",
"D. c #BC8E35",
"F. c #F48B18",
"G. c #F69814",
"H. c #EE8F12",
"J. c #FCBA0B",
"K. c #FAA817",
"L. c #FCB917",
"P. c #FCA90D",
"I. c #D38A30",
"U. c #ED8929",
"Y. c #F48B27",
"T. c #ED9531",
"R. c #DBA933",
"E. c #F7A92B",
"W. c #EAA636",
"Q. c #F2B231",
"!. c #86CB1D",
"~. c #8AD818",
"^. c #88D626",
"/. c #92DA27",
"(. c #85C82B",
"). c #98E427",
"_. c #9EE727",
"`. c #FCC617",
"'. c #FBC80E",
"]. c #F8CA26",
"[. c #FAD324",
"{. c #F9CB3C",
"}. c #FBD73B",
"|. c #85B14E",
" X c #8AB44E",
".X c #8EB750",
"XX c #93BA51",
"oX c #80AF4C",
"OX c #A79772",
"+X c #D49351",
"@X c #E58C48",
"#X c #D6AB49",
"$X c #F7B849",
"%X c #E6B54E",
"&X c #C49071",
"*X c #CDAF77",
"=X c #E9B56D",
"-X c #A7C655",
";X c #ABD356",
":X c #9AC355",
">X c #F8C648",
",X c #FBD648",
"<X c #FBDB56",
"1X c #F7C956",
"2X c #FBE14C",
"3X c #FCE557",
"4X c #F9DB66",
"5X c #F1CE6F",
"6X c #FBE668",
"7X c #FBE778",
"8X c #1D289D",
"9X c #5D168A",
"0X c #691885",
"qX c #4F2F8F",
"wX c #672191",
"eX c #5236AA",
"rX c #6437AE",
"tX c #494494",
"yX c #4D4F96",
"uX c #5352B1",
"iX c #526BBB",
"pX c #6360B1",
"aX c #1667E8",
"sX c #5856C1",
"dX c #566ED1",
"fX c #6275CA",
"gX c #5871E5",
"hX c #626FE5",
"jX c #644AC4",
"kX c #0C23C7",
"lX c #AD7981",
"zX c #DC7389",
"xX c #EB798A",
"cX c #5A8CEF",
"vX c #6192ED",
"bX c #618ADF",
"nX c #B1998B",
"mX c #F58E98",
"MX c #D4B190",
"NX c #F295A6",
"BX c #F7AFB9",
"VX c #DFB0A4",
"CX c #F9EA89",
"ZX c #FAF487",
"AX c #F7EF99",
"SX c #D9CEB0",
"DX c #E5D4B2",
"FX c #F9F2AE",
"GX c #D1C596",
"HX c #F2BAC3",
"JX c #DCD0C4",
"KX c #EBD4CF",
"LX c #F3EAD1",
"PX c #F7F2F2",
/* pixels */
"V.V.V.V.V.V.V.V.V.V.V.V.V.V.V.V.V.V.V.V.V.V.V.V.V.V.V.V.V.V.V.V.V.V.V.V.V.V.V.V.V.V.V.V.V.V.V.V.V.V.V.V.V.V.V.V.V.V.V.V.V.V.V.V.",
"V.V.V.V.V.V.V.V.V.V.V.V.V.V.V.V.V.V.V.V.V.V.V.V.V.V.V.V.V.V.V.V.V.V.V.V.V.V.V.V.V.V.V.V.V.V.V.V.V.V.V.V.V.V.V.V.V.V.V.V.V.V.V.V.",
"V.V.V.V.V.V.V.V.V.V.V.V.V.V.V.V.V.V.V.V.V.V.V.V.V.l i i i i i i i a l V.V.V.V.V.V.V.V.V.V.V.V.V.V.V.V.V.V.V.V.V.V.V.V.V.V.V.V.V.",
"V.V.V.V.V.V.V.V.V.V.V.V.V.V.V.V.V.V.V.V.V.V.V.V.u.h MXDXJXJXJXJXJXJX6.f b.V.V.V.V.V.V.V.V.V.V.V.V.V.V.V.V.V.V.V.V.V.V.V.V.V.V.V.",
"V.V.V.V.V.V.V.V.V.V.V.V.V.V.V.V.V.V.V.V.V.V.v.b.z.0 +X7XCXCXCXCXCXCXFXMX4.R V.V.V.V.V.V.V.V.V.V.V.V.V.V.V.V.V.V.V.V.V.V.V.V.V.V.",
"V.V.V.V.V.V.V.V.V.V.V.V.V.V.V.V.V.V.V.V.V.z.U 4.4.4.%X<X4X4X6X6X6X6X7X7X5X4.l N.V.V.V.V.V.V.V.V.V.V.V.V.V.V.V.V.V.V.V.V.V.V.V.V.",
"V.V.V.V.V.V.V.V.V.V.V.V.B.B.V.V.V.V.V.v.I 6.5X7XCX7X#XI.I.I.T.$X1X7X7X7X6X<X5.i N.V.V.V.V.V.V.V.V.V.V.V.V.V.V.V.V.V.V.V.V.V.V.V.",
"V.V.V.V.V.V.V.V.V.V.V.B.x.n.V.V.V.V.c.T nXFXCXFXFXFXFXFXAXCX#X8.I.T.$X<X3X<X1X{ z V.V.V.V.V.V.V.V.V.V.V.V.V.V.V.V.V.V.V.V.B.V.V.",
"V.V.V.V.V.V.V.N.B.V.V.B.x.n.N.N.V.c.s *XCXZXZX7X4X1X,X3X6XAXAXAX4X>X*.U.1X<X,X#Xp V.V.V.V.V.V.V.V.V.V.V.V.V.V.V.V.V.V.V.V.|.V.B.",
"V.V.V.V.V.V.N.x.n.V.V.V.V.N.x.x.z.U 5X6XZXZX4XW.E.,X3X3X3X3X6X3X3X2X>X-.*.$X}.Q.0 N.V.V.V.V.V.V.V.V.V.V.V.V.V.V.V.V.V.V. X-XXXN.",
"V.V.V.V.V.V.N.x.x.V.V.V.V.N.j.l.h %X3XZX4X$XU.E.}.2X2X3X3X,X,X,X,X}.{.T.=.=.Q.E.9 z.v.V.V.V.V.V.V.V.V.V.V.V.V.V.V.V.V.B. X-XXXN.",
"V.V.V.V.V.V.B.x.n.B.V.B.V.N.j.I #X}.,X,XT.=.-.Y.U.U.U.U.U.;.;.O.o.O.U.o.#.@.=.=.8 6 h l v.V.V.V.V.V.V.V.V.V.V.V.V.V.V.V. X-XXXV.",
"V.V.V.V.V.V.V.V.N.x.j.x.V.V.Y { }.}.{.U.#.@.@.+....... . . . .$.` ) ) ) ( ~ +.[ 8 8.+XOX* f v.V.V.V.V.V.V.V.V.V.V.V.|.-XXXN.|.-X",
"V.V.V.V.V.V.V.V.N.x.x.n.N.v.h ].}.Q.U.$.) +.&.*XDXFXFXCX1XU.[ h { c c v b h nX*X&X8.%.5XAX#X0 z.V.V.V.V.V.V.V.V.V.V.|.-XXXV. X-X",
"V.V.V.V.V.V.V.V.V.V.V.B.j.p D.].E.;.#.+.+.@X<X6X6X3X2X{.W.} S.(.!.!.!.a.R SXLXZX6X%X[ *.6X3X%X6 c.V.V.V.V.V.V.V.V.V.B.B. X-XXXN.",
"V.V.V.V.V.V.V.V.V.V.V.B.x.d R.E.U.#.+.! W.,X3X3X2X,X{.T.{ i.f.!.!.!.(.z.GXFXFX6X{.Q.&.[ $X,X,Xh z.V.V.V.V.V.V.V.V.V.V.V. X-XXXN.",
"V.V.V.V.V.V.V.V.V.V.V.V.z { E.=.@.( E I.<X<X3X<X$XU.@.(   x j r.(.!.j OXZXZX1X&.! ! [ 4 [ >X}.R.O V.V.V.V.V.V.V.V.V.V.V.B.N.B.V.",
"V.V.V.V.V.V.V.V.V.V.V.V.f } -.) ( ^ : >X<X<X<XW.=.O.;.)   a.i.u x u.i *X7X=X] : ; > / 6 4 &.{.W.* V.V.V.V.V.V.V.V.V.V.V.V.V.V.V.",
"V.V.V.V.V.V.V.V.V.V.V.V., %.@.8 0 % ; 1X<X<X$X%.Y.F.o.)   t.q a.r.* X =X=X{ u u.u 6 o A.f 9 Q.W.O m.V.V.V.V.V.V.V.V.V.V.V.V.V.V.",
"V.V.V.V.V.V.V.V.V.V.V.V.* 6 s c.N.d #X<X<X>X=.Y.o.$.$.(   t.& p S.i., @X] q g.h.h.a.t k V.6 R.W.O n.V.V.V.V.V.V.V.V.V.V.V.V.V.V.",
"V.V.V.V.V.V.V.V.V.V.V.V.N.v.N.V.|.p %X,X,XT.=.;.X.@.) /   a.p . y.w.6 8 b q t.a.g.d.x k V.e W.} i N.V.V.V.V.V.V.V.V.V.V.V.V.V.V.",
"V.V.V.V.V.V.V.V.V.V.V.V.V.V.B.V.;Xl %X,X$X%.;.:.( 4 ^ ^   a.k . + q O + t y.+ * v a.t k V.e } ; v.V.V.V.V.V.V.V.V.V.V.V.V.V.V.V.",
"V.V.V.V.V.V.V.V.V.V.V.V.V.V.V.V.-Xl %X,XU.:.@./ ^ ( _ ( . C.j b X q w w.(.g.g.:XlX6 * k V.i 7 z.V.V.V.V.V.V.V.V.V.V.V.V.V.V.V.V.",
"V.V.V.V.V.V.V.V.V.V.V.V.V.V.V.V.V.f %X{.-.#./ 8 ( _ _ ( . a.r.p X % w e.^.^.^.;XVX: 6 z.V.R f N.V.V.V.V.V.V.V.V.V.V.V.V.V.V.V.V.",
"V.V.V.V.V.V.V.V.V.V.V.V.V.V.V.V.N.p R.E.@.9 s 0 ( _ _ _ o v r.j q u w.s./././.;XMX{ Z.N.V.V.V.V.V.V.V.V.V.V.V.V.V.V.V.V.V.V.V.V.",
"V.V.V.V.V.V.V.V.V.V.V.V.V.V.V.V.V.p R.-.9 z.N.v 8 ( _ _ ^ % x w.g.g.a.s././._._././.a.- V.V.V.V.V.V.V.V.V.V.V.V.V.V.V.V.V.V.V.V.",
"V.V.V.V.V.V.V.V.V.V.V.V.B.V.V.V.V.p } h z.V.V.N.d 3 3 3 3 @ X * p t t w.^.~.).)./.^.a.& V.V.V.V.V.V.V.V.V.V.V.V.V.V.V.V.V.V.V.V.",
"V.V.V.V.V.V.N.x.M.V.V.B.x.x.V.V.V.l i b.V.v.Y = K yXfXfXfXfXfXpXyXn & q u e.f.d.f.a.p d V.V.V.V.V.V.V.V.V.V.V.V.V.V.V.V.V.V.V.V.",
"V.V.V.V.V.V.N.x.x.V.V.B.j.x.V.V.V.V.V.V.I # Z J J H H 0X0XwXwXqXeXeXqX$ * q t y y & d B.V.V.V.V.V.V.V.V.V.V.V.V.V.V.V.V.V.V.V.V.",
"V.V.V.V.V.V.B.n.n.N.B.N.M.n.N.N.V.V.V.V.r V Z F F F F F F Z A D H qXuXeXn $ e e e c.V.V.V.V.V.V.V.V.V.V.V.V.V.V.V.V.V.V.V.V.V.V.",
"V.V.V.V.V.V.V.V.N.j.j.x.V.B.j.j.V.V.V.V.z.a A S F F F A D qXuXbXbXgXiXqXD $ B.V.V.V.V.V.V.V.V.V.V.V.V.V.V.V.V.V.V.V.V.V.V.V.V.V.",
"V.V.V.V.V.V.V.V.N.x.x.x.V.B.j.x.V.V.V.V.V.V.f # K K qXsXhXhXgXgXhXgXgXgXqX$ T C.V.V.V.V.V.V.V.V.V.V.V.V.V.V.V.V.V.V.V.V.V.V.V.V.",
"V.V.V.V.V.V.V.V.V.V.V.V.V.V.V.V.V.V.V.V.V.V.c.m fXsXjXrXrXwXwX9XD 9XeXrXjXeXn T N.V.V.V.V.V.V.V.V.V.V.V.V.V.V.V.V.V.V.V.V.V.V.V.",
"V.V.V.V.V.V.V.V.V.V.V.V.V.V.V.V.V.V.V.V.V.C.I yXrX0X0XG G J A 2 S ,.,.S H wXH A * b.V.V.V.V.V.V.V.V.V.V.V.V.V.V.V.V.V.V.V.V.V.V.",
"V.V.V.V.V.V.V.V.V.V.V.V.V.V.V.V.V.V.V.V.V.d D H G G G G F V 3 ^ q.NXNX<.5 A J J V d V.V.V.V.V.V.V.V.V.V.V.V.V.V.V.V.V.V.V.V.V.V.",
"V.V.V.V.V.V.V.V.V.V.V.V.V.V.V.V.V.V.N.N.B.a D F F F F Z 1 @ 5 q.0.mXBXxX2.4 8 S A e V.V.V.V.V.V.N.B.V.V.V.B.N.N.B.V.V.V.B.N.N.V.",
"V.V.V.V.V.V.V.V.V.V.V.V.V.V.V.V.V.N.x.j.n.b.m Z Z Z A 1 V 1 1.q.0.mXNXxX<.: U.! ; r V.V.V.V.V.N.j.m.V.V.V.n.x.j.m.V.V.V.N.j.n.V.",
"V.V.V.V.V.V.V.V.V.V.V.V.V.V.V.V.V.N.x.j.n.V.c.= # 1 @ A V @ 2.9.mXBXKXBX<.Q L.G.Q d V.V.V.V.V.N.k.m.V.V.V.n.x.j.n.V.V.V.N.k.x.V.",
"V.V.V.V.V.V.V.V.V.V.V.V.V.V.V.V.V.N.x.x.n.V.V.Y $ n qXD 1 3 2.9.0.xXxXzX8 >.J.'.H.h V.V.V.V.V.B.x.m.N.B.V.n.x.j.m.V.V.N.m.x.m.V.",
"V.V.V.V.V.V.V.V.V.V.V.V.V.V.V.V.oXN.x.j.n.V.Y m K sXuXV C @ <.2.0.NXKXHXU ....../ * V.V.V.V.V.V.V.m.x.n.V.n.x.j.n.V.N.j.n.V.V.V.",
"V.V.V.V.V.V.V.V.V.V.V.V.V.V.V.V.N.m.n.M.m.Y N uXbXuXn C 1 o 4 2.xXmXmXzX3 3 A D M & V.V.V.V.V.V.V.N.x.m.V.N.n.n.N.V.N.x.N.V.V.V.",
"V.V.V.V.V.V.V.V.V.V.V.V.V.V.V.V.j.n.V.z.P yXbXvXdXn C C @ o 4 ( ,.7.lXJXI B kX8X8X& V.V.V.V.V.V.V.V.V.V.V.V.V.V.V.V.V.V.V.V.V.V.",
"V.V.V.V.V.V.V.V.V.V.V.V.V.V.C.N.k.l.Y m iXvXcXgXN C C 2 @ ; ; 7.nXKXPXKX6.% h 0 9 , z V.V.V.V.V.V.V.V.V.V.V.V.V.V.V.V.V.V.V.V.V.",
"V.V.V.V.V.V.V.V.V.V.V.V.b.Y m m m N iXbXvXcXsXn C C 2 @ = : : 3.DXPXPXPXLX0 E.F.G.' e V.V.V.V.V.V.V.V.V.V.V.V.V.V.V.V.V.V.V.V.V.",
"V.V.V.V.V.V.V.V.V.V.N.d = K gXcXcXcXcXdXuXK V 2 C 2 # r r < > 7.LXLXKXVX3.7 I.G.L.' i V.V.V.V.V.V.V.V.V.V.V.V.V.V.V.V.V.V.V.V.V.",
"V.V.V.V.V.V.V.V.V.V.V.z $ K tXtXtXtXtXn V 2 2 2 3 i e r * Q Q 3.&X+X8.=X8.] D.K.L.' i V.V.V.V.V.V.V.V.V.V.V.V.V.V.V.V.V.V.V.V.V.",
"V.V.V.V.V.V.V.V.V.V.V.V.z d 1 1 1 1 1 2 2 1 3 f a.f.t.P , >...< 7 @X*.=X+X3.I.`.`.' i V.V.V.V.V.V.V.V.V.V.V.V.V.V.V.V.V.V.V.V.V.",
"V.V.V.V.V.V.V.V.V.V.V.V.N.r - O + + X X + j p.^.^.).f.r Q G.O.~ 7 [ / / 9 ] R.`.`.' p V.V.V.V.V.V.V.V.V.V.V.V.V.V.V.V.V.V.V.V.V.",
"V.V.V.V.V.V.V.V.V.V.V.V.N.z e r.a.(.r.a.(.).g.g.g.s.r.6 H.P.H.O.Q < Q | } Q.`.L.F.9 d V.V.V.V.V.V.V.V.V.V.V.V.V.V.V.V.V.V.V.V.V.",
"V.V.V.V.V.V.V.V.V.V.V.V.V.V.l.& p i.r.a.d.^.p.j y.r * Q F.P.G.K.G.G.G.[.[.'.L.G.O.7 k V.V.V.V.V.V.V.V.V.V.V.V.V.V.V.V.V.V.V.V.V.",
"V.V.V.V.V.V.V.V.V.V.V.V.V.V.V.V.d + X r w w y & i o ; | K.L.H.K.].`.L.J.J.J.P.G.[ 6 V.V.V.V.V.V.V.V.V.B.N.B.V.V.V.V.V.V.V.V.V.V.",
"V.V.V.V.V.V.V.V.V.V.V.V.V.V.V.V.V.z % % % * * X X o ~ O.`.`.`.G.K.[.[.`.J.J.J.G.Q c.V.V.V.V.V.V.V.V.V.V. XoXV.V.V.V.V.V.V.V.V.V.",
"V.V.V.V.V.V.V.V.V.V.V.V.V.V.V.V.V.V.N.z.d d d l z.f ~  .K.`.'.`.K.G.L.[.`.`.E.O.: N.V.V.V.V.V.V.V.V.m. X-X XB.N.V.V.V.V.V.V.V.V.",
"V.V.V.V.V.V.V.V.V.V.V.V.V.V.V.V.V.V.V.V.V.V.V.V.V.l : `  .K.'.'.'.L.G.o.o.F.X.~ v V.V.V.V.V.V.V.B.|..X X.X.X.XXXV.m.N.V.V.V.V.V.",
"V.V.V.V.V.V.V.V.V.V.V.V.V.V.V.V.V.V.V.V.V.V.V.V.V.C.s W W  .F.K.J.P.G.F. .+.7 l N.V.V.V.V.V.V.V.N. X-XXXV..X:X-X|.x.n.V.V.V.V.V.",
"V.V.V.V.V.V.V.V.V.V.V.V.V.V.V.V.V.V.V.V.V.V.V.V.V.V.R : W W W  .O. .` ` E 0 z.V.V.V.V.V.V.V.V.V.N. X-XXXm.XX-X-X|.j.x.V.V.V.V.V.",
"V.V.V.V.V.V.V.V.V.V.V.V.V.V.V.V.V.V.V.V.V.V.V.V.V.V.C.i ; > > E E W E > 6 Y V.V.V.V.V.V.V.V.V.V.B.|.XX X X X|. XV.n.m.V.V.V.V.V.",
"V.V.V.V.V.V.V.V.V.V.V.V.V.V.V.V.V.V.V.V.V.V.V.V.V.V.V.r # M M 8X8X7.W o d v.V.V.V.V.V.V.V.V.V.V.V.V.N. X-XV.x.j.n.V.V.V.V.V.V.V.",
"V.V.V.V.V.V.V.V.V.V.V.V.V.V.V.V.V.V.V.V.V.V.V.V.V.V.V.e n 8XkXaXaXnXI.5.5.s c.V.V.V.V.V.V.V.V.V.V.V.N.|.-XV.x.x.m.V.V.V.V.V.V.V.",
"V.V.V.V.V.V.V.V.V.V.V.V.V.V.V.V.V.V.V.V.V.V.V.V.V.V.V.e n M 8XaXaX&XE.E.Y.*.h u.V.V.V.V.V.V.V.V.V.V.V.V.V.V.V.V.V.V.V.V.V.V.V.V.",
"V.V.V.V.V.V.V.V.V.V.V.V.V.V.V.V.V.V.V.V.V.V.V.V.V.V.V.i : 4 8 9 / ! ! ! ! ] 7 i V.V.V.V.V.V.V.V.V.V.V.V.V.V.V.V.V.V.V.V.V.V.V.V.",
"V.V.V.V.V.V.V.V.V.V.V.V.V.V.V.V.V.V.V.V.V.V.V.V.V.V.V.z i a a a a a p d d p p u.V.V.V.V.V.V.V.V.V.V.V.V.V.V.V.V.V.V.V.V.V.V.V.V.",
"V.V.V.V.V.V.V.V.V.V.V.V.V.V.N.B.V.V.V.V.V.V.V.V.V.V.V.V.V.V.V.V.V.V.V.V.V.V.V.V.V.V.V.V.V.V.V.V.V.V.V.V.V.V.V.V.V.V.V.V.V.V.V.V.",
"V.V.V.V.V.V.V.V.V.V.V.V.V.N.k.j.V.V.V.V.V.V.V.V.V.V.V.V.V.V.V.V.V.V.V.V.V.V.V.V.V.V.V.V.V.V.V.V.V.V.V.V.V.V.V.V.V.V.V.V.V.V.V.V."
};
