/* XPM */
static char *xpm_[] = {
/* columns rows colors chars-per-pixel */
"64 64 231 2 ",
"   c #040605",
".  c #050A06",
"X  c #0A0B06",
"o  c #050609",
"O  c #050A0A",
"+  c #0B0C0A",
"@  c #100D05",
"#  c #100F0B",
"$  c #071006",
"%  c #0D1107",
"&  c #061309",
"*  c #0C120C",
"=  c #0D1B0D",
"-  c #121306",
";  c #13140C",
":  c #19160B",
">  c #131A0D",
",  c #1B1A0D",
"<  c #090E13",
"1  c #0C1312",
"2  c #0C1713",
"3  c #131611",
"4  c #141A13",
"5  c #161A16",
"6  c #1B1C13",
"7  c #211E0E",
"8  c #211E13",
"9  c #0B2407",
"0  c #0F230E",
"q  c #14240C",
"w  c #12290D",
"e  c #132413",
"r  c #1D2115",
"t  c #152A12",
"y  c #192C16",
"u  c #16221A",
"i  c #1C2219",
"p  c #162A18",
"a  c #1B2B1C",
"s  c #163614",
"d  c #163715",
"f  c #1B3413",
"g  c #1C341A",
"h  c #1D3E1B",
"j  c #25240F",
"k  c #232314",
"l  c #292512",
"z  c #24241A",
"x  c #28271C",
"c  c #262A18",
"v  c #2B2B1C",
"b  c #312B17",
"n  c #322E1C",
"m  c #223B1B",
"M  c #34311D",
"N  c #3A371A",
"B  c #38341D",
"V  c #1C2A21",
"C  c #1E3423",
"Z  c #2D2D20",
"A  c #332F20",
"S  c #243324",
"D  c #2B3828",
"F  c #343121",
"G  c #3A3622",
"H  c #3B3A23",
"J  c #3C3B29",
"K  c #41391E",
"L  c #413D25",
"P  c #1E470E",
"I  c #1F500A",
"U  c #1F4815",
"Y  c #1C421A",
"T  c #21460D",
"R  c #234D0E",
"E  c #22520C",
"W  c #26590F",
"Q  c #224415",
"!  c #244B13",
"~  c #294A13",
"^  c #23441B",
"/  c #2A461B",
"(  c #254A1A",
")  c #294B1A",
"_  c #265314",
"`  c #295415",
"'  c #2A5B14",
"]  c #26571B",
"[  c #2C5719",
"{  c #2D5B1B",
"}  c #315E1D",
"|  c #2C6119",
" . c #32651C",
".. c #35691E",
"X. c #386C1E",
"o. c #1C4421",
"O. c #234A24",
"+. c #26472C",
"@. c #2F442B",
"#. c #2D5B24",
"$. c #2C532B",
"%. c #2C5828",
"&. c #365A29",
"*. c #314B32",
"=. c #2D5533",
"-. c #2E523B",
";. c #345535",
":. c #325C34",
">. c #3B5836",
",. c #355D3B",
"<. c #356522",
"1. c #396626",
"2. c #366921",
"3. c #396D22",
"4. c #396B2D",
"5. c #3D7225",
"6. c #3D7129",
"7. c #366037",
"8. c #3C6433",
"9. c #3D6A36",
"0. c #3C643A",
"q. c #3E6A3B",
"w. c #434127",
"e. c #4A4225",
"r. c #45422C",
"t. c #4A452C",
"y. c #4D482C",
"u. c #544E2C",
"i. c #58512F",
"p. c #4C4832",
"a. c #544E32",
"s. c #415D37",
"d. c #5A5435",
"f. c #625937",
"g. c #426F2B",
"h. c #447829",
"j. c #457B2D",
"k. c #44633A",
"l. c #45693A",
"z. c #4B6B3C",
"x. c #487536",
"c. c #4D7C3C",
"v. c #54763F",
"b. c #385F46",
"n. c #3C6641",
"m. c #446C45",
"M. c #467243",
"N. c #4B7544",
"B. c #4E7942",
"V. c #4B764A",
"C. c #537B44",
"Z. c #547844",
"A. c #597D43",
"S. c #486F54",
"D. c #6D6440",
"F. c #48812F",
"G. c #4C8134",
"H. c #4D843B",
"J. c #528635",
"K. c #548B35",
"L. c #52853B",
"P. c #548C3B",
"I. c #5A8E3E",
"U. c #569337",
"Y. c #57933C",
"T. c #5A933D",
"R. c #5B9A3D",
"E. c #619F38",
"W. c #5EA33C",
"Q. c #62A33B",
"!. c #65AC3E",
"~. c #4E8145",
"^. c #568543",
"/. c #5C8344",
"(. c #548C40",
"). c #5A8D42",
"_. c #568449",
"`. c #5B854B",
"'. c #57894A",
"]. c #5E8B4C",
"[. c #5B9243",
"{. c #5C9942",
"}. c #5B9649",
"|. c #5E895A",
" X c #638C47",
".X c #628E4D",
"XX c #6A9447",
"oX c #629D44",
"OX c #65914D",
"+X c #69954C",
"@X c #649E4A",
"#X c #6E9B4C",
"$X c #719E4C",
"%X c #628E56",
"&X c #689453",
"*X c #6C9B52",
"=X c #709E52",
"-X c #5FA048",
";X c #64A344",
":X c #64AD45",
">X c #69AB44",
",X c #67A74B",
"<X c #6AAC4A",
"1X c #75A34D",
"2X c #78A74D",
"3X c #7BAB4C",
"4X c #6EB245",
"5X c #6BB945",
"6X c #6EB24C",
"7X c #6FB94A",
"8X c #70B744",
"9X c #72B54D",
"0X c #72BB4D",
"qX c #76A551",
"wX c #77A952",
"eX c #6EB151",
"rX c #72B352",
"tX c #79BD53",
"yX c #75C149",
"uX c #7AC34C",
"iX c #7BCB4C",
"pX c #7AC552",
"aX c #79C754",
"sX c #82CA53",
"dX c #84CB5C",
"fX c #86D456",
"gX c #8AD35B",
"hX c #8CDC5B",
"jX c #95E15C",
"kX c #87CE61",
"lX c #8CD661",
/* pixels */
"3X3X3X3X3X3X3X3X3X3X3X3X3X3X3X3X3X3X3X3X3X3X3X3X3X3X3X3X3X3X3X3X3X3X3X3X3X3X3X3X3X3X3X3X3X3X3X3X3X3X3X3X3X3X3X3X3X3X3X3X3X3X3X3X",
"3X3X3X3X3X3X3X3X3X3X3X3X3X3X3X3X3X3X3X3X3X3X3X3X3X3X3X3X3X3X3X3X3X3X3X3X3X3X3X3X3X3X3X3X3X3X3X3X3X3X3X3X3X3X3X3X3X3X3X3X3X3X3X3X",
"3X3X3X3X3X3X3X3X3X3X3X3X3X3X3X3X3X3X3X3X3X3X3X3X3X3X3X3X3X3X3X3X3X3X3X3X3X3X3X3X3X3X3X3X3X3X3X3X3X3X3X3X3X3X3X3X3X3X3X3X3X3X3X3X",
"3X3X3X3X3X3X3X3X3X3X3X3X3X3X3X3X3X3X3X3X3X3X3X3X3X3X3X3X3X3X3X3X3X3X3X3X3X3X3X3X3X3X3X3X3X3X3X3X3X3X3X3X3X3X3X3X3X3X3X3X3X3X3X3X",
"3X3X3X3X3X3X3X3X3X3X3X3X3X3X3X3X3X3X3X3X3X3X3X3X3X3X3X3X3X3X3X3X3X3X3X3X3X3X3X3X3X3X3X3X3X3X3X3X3X3X3X3X3X3X3X3X3X3X3X3X3X3X3X3X",
"3X3X3X3X3X3X3X3X3X3X3X3X3X3X3X3X3X3X3X3X3X3X3X3X3X3X3X3X3X3X3X3X3X3X3X3X3X3X3X3X3X3X3X3X3X3X3X3X3X3X3X3X3X3X3X3X3X3X3X3X3X3X3X3X",
"3X3X3X3X3X3X3X3X3X3X3X3X3X3X3X3X3X3X3X3X3X3X3X3X3X3X3X3X3X3X3X3X3X3X3X3X3X3X3X3X3X3X3X3X3X3X3X3X3X3X3X3X3X3X3X3X3X3X3X3X3X3X3X3X",
"3X3X3X3X3X3X3X3X3X3X3X3X3X3X3X3X3X3X3X3X3X3X3X3X3X3X3X3X3X3X3X3X3X3X3X3X3X3X3X3X3X3X3X3X3X3X3X3X3X3X3X3X3X3X3X3X3X3X3X3X3X3X3X3X",
"3X3X3X3X3X3X3X3X3X3X3X3X3X3X3X3X3X3X3X3X3X3X3X3X3X3X3X3X3X3X3X3X3X3X3X3X3X3X3X3X3X3X3X3X3X3X3X3X3X3X3X3X3X3X3X3X3X3X3X3X3X3X3X3X",
"3X3X3X3X3X3X3X3X3X3X3X3X3X3X3X3X3X3X3X3X3X3X3X3X3X3X3X3X3X3X3X3X3X3X3X3X3X3X3X3X3X3X3X3X3X3X3X3X3X3X3X3X3X3X3X3X3X3X3X3X3X3X3X3X",
"3X3X3X3X3X3X3X3X3X3X3X3X3X3X3X3X3X3X3X3X3X3X3X3X3X=X1X3X3X3X3X3X3X3X3X3X*X3X3X3X3X3X3X3X*X3X3X3X3X3X3X3X3X3X3X3X3X3X3X3X3X3X3X3X",
"3X3X3X3X3X3X3X3X3X3X3X3X3X*X3X3X1X1X3X3X3X3X3XqX].&X1X3X3X3X3X3X3X3X3X*X%X2X3X#X3X3X3X*X|.wX3X3X3X*X3X3X3X3X3X3X3X3X3X3X3X3X3X3X",
"3X3X3X3X3X3X3X3X#X*X3X3X|.*X3X*X%X1X3X&XwXqX_.m.-.OX3X.X`.wX%XwX3X1XB.-.OX`.B.V.].*XV.|.qX%XqX1XM.B.3X3X3X3X3X3X3X3X3X3X3X3X3X3X",
"3X3X3X3X3X3X3X3X_.,.2X.Xb.2X2X,.M.3X+XS.N.N.n.:.N.1X+X-.V.wX-.`.#XV.,.o.l.q.9.M.O.M.-.`..XS.B.N.,.C.$XC.C.`.3X3X3X3X3X3X3X3X3X3X",
"3X3X3X3X].0.q. X`.=.9.m.,.qXx.V.M.8.M.A.Y q.].x.( 8.l.N.0.9.0.O.q.V.4.9.c.].'.#.N.~.%.o.V._.c.C.N.( m.,.;.OX3X3X3X3X3X3X3X3X3X3X",
"3X3X3X3X3X0.$.&.Y 8.^.).~.%._.}.9.9.[.T.T.Q.<Xj.#._.[.(.] B.).I.Y.,XrX{.{.}.| (.Y.:X@X(.Y.W.>XY.].^.x.#.OX3X3X3X3X3X3X3X3X3X3X3X",
"3X3X3X3X3X.X( 4.c.L.{.,X{.H.[.{.}.[.{.7XyXsX0X-X(.R.:X,XP.).;XrX9XsX0XW.<XrXP.T.Q.aX9XR.8XgX7XR.{.J.5.1.0.+X3X3X3X3X3X3X3X3X3X3X",
"3X3X3X3X#X=.1...j.P.6XaXQ.Q.4X9X0X!.4XgXhXiXyX0X9XaXaX:XR.;XtXsXuXdX0X0XiXfX!.>XsXfX4X0XjXiX:XtX9X{.T.h.&.:.#X3X3X3X3X3X3X3X3X3X",
"3X3X3XqX7.%.1...5.P.6XdX4XsXhXyXgXpX4X4X7X7XfXlX7XgXaXpX:XeX<XR.Y.;X0XiXhXiX5XiXiXfX9X6XhXpXpXlX0X,XT.j.1.%.].3X3X3X3X3X3X3X3X3X",
"3X3X3X.X$.{ 3.G.Y.@XR.;XtXgXuXgXtXoXY.U.Y.<XdX>X;XW.pXhXaX<XY.P.J.).oXkXpX:X>XkX>XE.R.Y.6X<X<X>X;XY.K.j.j.%.OX3X3X3X3X3X3X3X3X3X",
"3X3X3X+XO.1.G.T.T.Y.[.[.,X0XuX9XK.L.).Y.I.T.oXK.K.T.eX6X9XT.F.j.J.).Y.6X<XY.Y.,Xh.h.).I.@XT.{.P.J.I.J.5.j.4.=.&X3X3X3X3X3X3X3X3X",
"3X3X+X$.( c.I.Y.G.P.[.).{.eX;XJ.h.6.j.J.).[.P.g.3.J.Y.Y.@Xj.3.G.[.[.(.@X[.[.I.G.5.J.[.[.G.I.I.5.X.J.[.H.{ ] O.:.3X3X3X3X3X3X3X3X",
"3X3Xz.^ (  .I.G.5.5.(.).I.{.h.5...<...5.(.).L.....5.G.I.j...3.j.[.[.[.[.G.J.h.....G.).G...P.(.3...5.H.G.#.Y s :.3X3X3X3X3X3X3X3X",
"3X3Xl.s s #.g.X.' | 5.h.H.5... ...2.....j.L.5..... .X.5... .....G.).j.5.3.5..... . .6.3...5.6.2...<.4.<.] Y &Xm.3X3X3X3X3X3X3X3X",
"3X3X/.p s &.&.[ _ W ....3............... .3.....2.......2...W ..2.3... ...2. .E W  .' | 2.2.2..... ._ U Q ^ l.3X3X3X3X3X3X3X3X3X",
"3X3X1X+.h ( ( ! ! R <...<............. .'  ... .<.{ { 2.<.| I _  ...2..... .' R _ { E { 1.<.<.<. .[ &.^ $.O.:.3X3X3X3X3X3X3X3X3X",
"3X3X3X;.+.8.s ( ! ! { '  ... .W  .<.} _ E [  .[ _ ! ` <. ._ I I ` } <...| _ R ` } ` E ' } ` { <.[ ` [ O.+X/.n.3X3X3X3X3X3X3X3X3X",
"3X3X3X,.C.$Xs Q ) R [ [ } <.{ R ` <.[ ! R ! [ _ R ! ! [ ` ! ! ! R ` <. ._ ! ! _ ' ! R ` _ ) ! [ ) U ! O.OX3X#X3X3X3X3X3X3X3X3X3X",
"3X3X3X+X3X`.h ( ) ! ( Q ) #.! ! ! ` ` ! ! ! Q P ( U Q ! P ( R R ! Q ) ` ) Q ( ! R Q T R ! f ( Q s h ( ^ C.3X3X3X3X3X3X3X3X3X3X3X",
"3X3X3X3X3X`.h ) ( ( m 0 f ( Q Q ~ ~ ( P ( Q f f m 9 w ^ f f ) ( Q f m / f w f ( Q f m / m w m m t y g m N.2X3X3X3X3X3X3X3X3X3X3X",
"3X3X3X3X3XC.g g Y m 0 & t / f w m ^ h f ^ g = e g = = m g 0 m ^ m e t m y = t / Q w w m g = = y e 4 = p =.1X3X3X3X3X3X3X3X3X3X3X",
"3X3X3X3X3X+.e & 0 p & + = y > > e y > & a > X X = = $ e a & = y e X = a > > - f m = X e p &   & * o   & >.1X3X3X3X3X3X3X3X3X3X3X",
"3X3X3X3X3XC X   . = + o = & + * 4 > - X * + + X o * X & 5 X & = =   4 1 * J , > y $   o 4 X           *  X3X3X3X3X3X3X3X3X3X3X3X",
"3X3X3X3X3XD o # X X         + ; + ; p.x X + + * ; Z x X + ; r ; X 6 i O + B d., % X + X o   O o   + o D $X3X3X3X3X3X3X3X3X3X3X3X",
"3X3X3X3X3Xk.O ; ; # X   o o ; 6 ; ; 6 , X X * 1 * Z J , X x v z - 6 v ; ; ; b a., @ 8 6 % * ; X o O O v.3X3X3X3X3X3X3X3X3X3X3X3X",
"3X3X3X3X3X#X2 ; ; # ; * + X + + + o o # ; * * 1 & , H B 7 v n n k 7 G H , * 6 N t.B n v v , z * X * 1 S #X3X3X3X3X3X3X3X3X3X3X3X",
"3X3X3X3X3X3Xk.5 ; ; ; ; ; * X o o + ; 8 H 6 * & & , H a.G n n n n n M G k ; = q N p.J Z z k 6 & * * * u XX3X3X3X3X3X3X3X3X3X3X3X",
"3X3X3X3X3X3XXXc k , : : ; ; ; + ; 5 Z F L v & X * 6 H u.e.n A A n n n n F k * = > r z x z z J z 6 X 1 >.1X3X3X3X3X3X3X3X3X3X3X3X",
"3X3X3X3X3X3X3Xv.6 , ; ; X X X ; ; ; k n L c > X * 6 l i.f.e.n F A n n n n F % 1 1 ; k M H H H H M 4 k.1X3X3X3X3X3X3X3X3X3X3X3X3X",
"3X3X3X3X3X3X3X3XZ.3 X X . X ; 3 ; 6 v n r.v i   O 5 k N d.i.L F n n A n M F 6 X , F F B n n n M M z A.3X3X3X3X3X3X3X3X3X3X3X3X3X",
"3X3X3X3X3X3X3X3X2Xk.X X ; ; ; ; ; z A n t.v 5   O 5 , l K f.u.e.B B n B n z z > L r.G n v n n M F i A.3X3X3X3X3X3X3X3X3X3X3X3X3X",
"3X3X3X3X3X3X3X3X3Xz.; ; ; ; ; ; ; z n M r.z * o o ; 5 k l K D.f.p.p.r.r.v - + 6 n y.L F F F F B n i /.3X3X3X3X3X3X3X3X3X3X3X3X3X",
"3X3X3X3X3X3X3X3X3Xz.3 ; ; ; ; ; ; z n L l 6 + o O 1 4 6 k l B M v v k r % X * 6 8 B y.L n n n n v i /.3X3X3X3X3X3X3X3X3X3X3X3X3X",
"3X3X3X3X3X3X3X3X3XZ.5 , ; ; ; ; ; 6 G L , + o o O 1 1 4 5 6 , , 6 5 = o o X + 6 6 n a.e.M n Z k ; 4 /.3X3X3X3X3X3X3X3X3X3X3X3X3X",
"3X3X3X3X3X3X3X3X3XA.i 6 ; ; ; ; ; , n c X o o o O 1 < 1 3 5 ; ; + X + o o   o ; , l t.d.e.n z > * D #X3X3X3X3X3X3X3X3X3X3X3X3X3X",
"3X3X3X3X3X3X3X3X3X$X@.r ; ; ; ; ; , , > X   o O 3 4 * + + * X o o o 3 5 + o   X ; : k J t.b 6 3 S XX3X3X3X3X3X3X3X3X3X3X3X3X3X3X",
"3X3X3X3X3X3X3X3X3X3Xs.z , ; ; ; ; , ; X   o o O 6 F z , 6 6 6 6 ; o 3 6 ;     X + X X @ - k v i ;.3X3X3X3X3X3X3X3X3X3X3X3X3X3X3X",
"3X3X3X3X3X3X3X3X3X3X#X>.z 6 ; 6 6 6 X X o o o o ; v H H H H H H k . + 6 3 + o o X X X X X + 5 *.+X3X3X3X3X3X3X3X3X3X3X3X3X3X3X3X",
"3X3X3X3X3X3X3X3X3X3X3X$XD k 7 k 8 ; X X o o     * > F G n n B B k .   3 6 5 + o o o X X X + S $X3X3X3X3X3X3X3X3X3X3X3X3X3X3X3X3X",
"3X3X3X3X3X3X3X3X3X3X3X3Xs.v l 8 ; X X   o o o o + ; k J G n n n v ; o * 3 5 3 3 u o X o o + ;.3X3X3X3X3X3X3X3X3X3X3X3X3X3X3X3X3X",
"3X3X3X3X3X3X3X3X3X3X3X3X$X>.x - X X o o O o o o X + > H t.H n A Z 6 o + * ; 5 z.XXS O o o u XX3X3X3X3X3X3X3X3X3X3X3X3X3X3X3X3X3X",
"3X3X3X3X3X3X3X3X3X3X3X3X3X1XV X X X   < a 1 o   o X ; c w.y.B n x ; X X X + V 3X3X XD 4 X *.1X3X3X3X3X3X3X3X3X3X3X3X3X3X3X3X3X3X",
"3X3X3X3X3X3X3X3X3X3X3X3X3X3Xk.O o X O >.3Xz.1 o o o + : j a.y.G 8 ; 3 + X u z.3X3X3X3X Xk.3X3X3X3X3X3X3X3X3X3X3X3X3X3X3X3X3X3X3X",
"3X3X3X3X3X3X3X3X3X3X3X3X3X3X3Xz.@.2 ;.1X3X2Xs.1 X O + + : y.t.G , ; ; ; * @.2X3X3X3X3X3X3X3X3X3X3X3X3X3X3X3X3X3X3X3X3X3X3X3X3X3X",
"3X3X3X3X3X3X3X3X3X3X3X3X3X3X3X3X1X/.1X3X3X3X1Xs.1 X O O + ; j k z k ; 1 V /.3X3X3X3X3X3X3X3X3X3X3X3X3X3X3X3X3X3X3X3X3X3X3X3X3X3X",
"3X3X3X3X3X3X3X3X3X3X3X3X3X3X3X3X3X3X3X3X3X3X3X2Xs.< o o + + + ; 8 k 6 u N.3X3X3X3X3X3X3X3X3X3X3X3X3X3X3X3X3X3X3X3X3X3X3X3X3X3X3X",
"3X3X3X3X3X3X3X3X3X3X3X3X3X3X3X3X3X3X3X3X3X3X3X3X X< O o X + X X ; ; u A.1X3X3X3X3X3X3X3X3X3X3X3X3X3X3X3X3X3X3X3X3X3X3X3X3X3X3X3X",
"3X3X3X3X3X3X3X3X3X3X3X3X3X3X3X3X3X3X3X3X3X3X3X3X3Xz.4 o   X + X * 2 Z.3X3X3X3X3X3X3X3X3X3X3X3X3X3X3X3X3X3X3X3X3X3X3X3X3X3X3X3X3X",
"3X3X3X3X3X3X3X3X3X3X3X3X3X3X3X3X3X3X3X3X3X3X3X3X3X1Xz.a 1 X X X u k.1X3X3X3X3X3X3X3X3X3X3X3X3X3X3X3X3X3X3X3X3X3X3X3X3X3X3X3X3X3X",
"3X3X3X3X3X3X3X3X3X3X3X3X3X3X3X3X3X3X3X3X3X3X3X3X3X3X3X#Xk.1   4 v.2X3X3X3X3X3X3X3X3X3X3X3X3X3X3X3X3X3X3X3X3X3X3X3X3X3X3X3X3X3X3X",
"3X3X3X3X3X3X3X3X3X3X3X3X3X3X3X3X3X3X3X3X3X3X3X3X3X3X3X3X2X>.C k.2X3X3X3X3X3X3X3X3X3X3X3X3X3X3X3X3X3X3X3X3X3X3X3X3X3X3X3X3X3X3X3X",
"3X3X3X3X3X3X3X3X3X3X3X3X3X3X3X3X3X3X3X3X3X3X3X3X3X3X3X3X3X3X3X3X3X3X3X3X3X3X3X3X3X3X3X3X3X3X3X3X3X3X3X3X3X3X3X3X3X3X3X3X3X3X3X3X",
"3X3X3X3X3X3X3X3X3X3X3X3X3X3X3X3X3X3X3X3X3X3X3X3X3X3X3X3X3X3X3X3X3X3X3X3X3X3X3X3X3X3X3X3X3X3X3X3X3X3X3X3X3X3X3X3X3X3X3X3X3X3X3X3X",
"3X3X3X3X3X3X3X3X3X3X3X3X3X3X3X3X3X3X3X3X3X3X3X3X3X3X3X3X3X3X3X3X3X3X3X3X3X3X3X3X3X3X3X3X3X3X3X3X3X3X3X3X3X3X3X3X3X3X3X3X3X3X3X3X"
};
