/* XPM */
static char *xpm_[] = {
/* columns rows colors chars-per-pixel */
"64 64 56 1 ",
"  c #1F1D16",
". c #201E17",
"X c #212017",
"o c #28261B",
"O c #2A271C",
"+ c #2A281B",
"@ c #2B2A1C",
"# c #2C2B1D",
"$ c #2C2C1D",
"% c #333124",
"& c #343124",
"* c #373625",
"= c #3F3A2B",
"- c #3F3B2C",
"; c #403B2C",
": c #413C2C",
"> c #46412F",
", c #474230",
"< c #474430",
"1 c #484331",
"2 c #494431",
"3 c #57533D",
"4 c #58533D",
"5 c #59543E",
"6 c #5B5640",
"7 c #5C5741",
"8 c #666046",
"9 c #6A6349",
"0 c #6B644A",
"q c #6C654A",
"w c #6E674C",
"e c #6D684A",
"r c #70684D",
"t c #7C7452",
"y c #7F7754",
"u c #7F7855",
"i c #817956",
"p c #75A249",
"a c #77A449",
"s c #78A74A",
"d c #79A84B",
"f c #7BAB4C",
"g c #8F8764",
"h c #908764",
"j c #938B67",
"k c #948B67",
"l c #948B68",
"z c #958C69",
"x c #988E6A",
"c c #99906B",
"v c #CDC088",
"b c #D0C28A",
"n c #D1C48B",
"m c #D3C58C",
"M c #D5C78D",
"N c #D6C88E",
/* pixels */
"fffffffffffffffffffffffffffffffffffffffffffffffffffffffffffffffd",
"fffffffffffffffffffffffffffffffffffffffffffffffffffffffffffffffd",
"fffffffffffffffffffffffffffffffffffffffffffffffffffffffffffffffd",
"fffffffffffffffffffffffffffffffffffffffffffffffffffffffffffffffd",
"fffffsffffffffffffffffffffffffffffffffffffffffff$sfffffffffffffd",
"fffff$sffffffffffffffffffffffffffffffffffffffff$.@sffffffffffffd",
"ffffs#pffffffffffffffffffffffffffffffffffffffff#Oosffffffffffffd",
"ffff# opfffffffffffffffdffffffffffffffffffffff$.Oosffffffffffffd",
"ffff#  osfffffffdfffffd#sfffffff#sfffffffffff$ OOO@sfffffffffffd",
"ffff@  osfffffff@sffff@Oosfffff@ osffffffffff@ OOOosfffffffffffd",
"ffff@ Oopffffffd@sfffd@Oosfffff@ osfffffffff$ OOOOO@sff$sffffffd",
"fffs@ OOosfffff@oafff@OOOosfff@ Oosfffffffff@ OOOOOosf$O#sfffffd",
"fff@  OOodfsffd@ odff@OOOOodff@ OO+dff$dfff$ OOOOO4@df@Oodfffffd",
"fff@  OOods@af@  odff@OO-5@sf@ OOOodf#=+dff@ OOOO455$@OO3$dffffd",
"sff@  OO@a@Ood@  osfd@O;;55@d@ OOOod@O;odff@OOOOO555@ OOt@d$dffd",
"@ps@ OO@5@ Ooa@  Ood@OO;;55@s@ OOO5@ O;;@d$ OOOO=5y55@OOy5$.$df$",
"Xoo  OO55@ OOo  OOod@OO;;y55@ OOO55@ O;y@d@ OOO=;:y55@.Oy5@ od$O",
"#oo  OO55@ OOo  OOod@OO;;y55@ OOOy5@ O;y5@ OOOO;;;5y5@ O55@  $.O",
"@Oo OOO55@ OOo  OOos@OO;;y55@ OOO5y5@O;55@ OOO=;;;56y5o 55@  o  ",
"@Oo.OO@565@ Oo OOOOo OO;;y5@ OOO;;y5@ O5@  OOO;;;;:5y5@ 5@.  Oo ",
"@o OOO;5y5@ Oo OOO@o OO;;y5@ OOO;;y5@ O5@ OOOO;;;;;5y5@ @o  OOo ",
"@o OOO;5u5+ o  OOO5+  O;;y5+OOOO;;5y@ OOo OOO-;;;;;:5y5oOo  OO3o",
"@o.OOO::i7@ o OOO@5@  O-55+ OOO;;;5Mz@ Oo OOO;;;;;99ki5+ o OOO5+",
"@o%O@@99zi5+o OOO5zz@ OO55o OOO;;;9Mz@ o  OOO;;;;999zi55o  OO4y@",
"+ O@>>99lz5oo OOOlzM#  O5o  OOO;999Mzz@o  OOO;;999990m65o  OO:6t",
"+ O>>>999z7oo OO:9zMz@ O5o OOO;;999zMzz@  OOO;;999999Mz5o  OO;5i",
"+ O>>>999xz#o O@999zN# O5o OOO;9999zNzz@  OOO;9999999zMz@ OOO;5i",
"# O>>>999Mzz+ O9999zNz+Oo  OOO;9999zNzz+  OOO99999999zNz+ OOO;9z",
"zo >>>999Nzzo @99999Mzo o OOOO99999zNzzo  OOO99999999zNzo OO=;9z",
"z#  >>999Nzzo >99999zN@ o OOOO99999zzzzzo OO>99999999zx#  OO;99z",
"zzo >>999Nzjo.>99999zMzo  OOOO99999zzzzzo  O>99999999zzo  OO;99q",
"xz# >>999Nz&o>>99999zzzo  OOO>99999zzzzzzo O>99999999zzo  OO9999",
"Nzzo>>999Mzo >>99999zNzo  OOO>99999zNzzz@o  >>9999999zzo OO>9999",
"Nzzo&>999zzo.>>99990zMzo  OO>>99999zNzz@&&o >>9999999zzo OO>9999",
"Nzzo&>999zzo&>>9999zNzo&o  O>>9999zzNzzo&&>o.>,999999zzo OO>9999",
"Nzzo&>999zzo&>>9990zMlo&o  >>>9999zMzz@&&&>o >>999999zzo O>>9999",
"Nzjo&>999xzo&>>990zNzo&&o  >>>9999zNzzo&&>>o >>,99990Mzo O>>9999",
"mzo&&>99qNzo&>>99zxMko&>>o >>>9999zNz@&&>>>>o>>>99990Nzo O>>9990",
"zzo&>>>9zNzo&>>90zMjo&>>>o &>>9999zNzo&&>>>ko&>>99990Nzo O>>9990",
"zzo&>>>9xMzo&>>0zzzo&&>>>o &>>9990Mz@&&>>,zzo&>>99990Mzjo.>>9990",
"zzo&>>>0Mzzo&>,zzMjo&>>>>>o&>>>990Mzo&&>>9zzjo>>,999zMzzo >>999l",
"zjo&>>>9mzzo&>,lzmo&&>>>>>+&&>>90zMzo&&>>0zzzo&>>990Mxzzo >>990z",
"jo&#&>>,zzzo&>>,zzo&&>>>>,9o&>>90zM+&&>>990zzo&>>90zMzz#o&>>10zn",
"8+&lo&>,kzlo&>>,zjo&>>>>1zz@&>>90zzo&&>>990zmo&>>90zMz#&o&>>>qmx",
"o&,l#&>>,zjo&>>,lo&&>>>>0zMlo&>>0zlo&>>>990zMj+>>1zzxlo&o&&>,zMz",
"@&2zlo&>,jo&o&>,jo&>>>>,0zMl@&>,zlo&&>>>990zMlo&>,zml#&&>o&>>2xz",
"&>0zl#&&>>o&&o&>o&&>>>>90zMzlo&,zlo&&>>9990zMlo&>,zz#&&>>o&>>,l$",
"&,0zxko&>>o&>@&>o&&>>>,90zMzjo&>1ko&&>,9999qxno&>1k#&&>>>o&&>>#&",
">,9qMk#&&>o&>>o&o&>>>,990zMko&o&>o&&>>,99990zMj@>1ko&&>>>o&&>@&&",
">19qmxko&o&>>>o&o&>>>,990zMjo&o&>o&&>,999990zMko&>#&&>>>1h@&&o&,",
",990xMjo%+&>>>#&o&>>>,990xno&&>o&o&>>,999990xMjo&>o&&>>1kjo&@&&,",
"1990zmjoo&>>>2jo&&>>,999qMjo&>>o&o&>>,999990xMjo&@&&>>,9xmh@&&>,",
"99990zjo@&>>1qjo&>>>,990xMjo&>>>oo&>>,999990zcbo&o&>>>,qmxjo&&><",
"9999qzjo&&>,0zjo&>>>1990xno&&>>>oo&>>,999990zxno&o&>>,9qMj#&&>><",
"9990zzg@&>>,0zjo&>>,999qxbo&>>1joo&>>,999990zxMjo&&>>,9qMjo&&>><",
"9990xjo&&>>10zj+&>>,990xMjo&>>1zjo&>>,999990zxMjo&&>>,90xjo&>>,0",
"999qMjo&&>,90jo&&>>,990xMjo&>,qMjo&>>,999990zzzjo&&>,90zj#&&>>,0",
"999qMjo&>>19qjo&&>>,990cbo&>>,qMjo&>>,999990zzzjo&>>,9qmjo&&>>,0",
"999qMg@&>,9qzjo&>>>199qMjo&>,9qzjo&>>,99999qzzzjo&>,99qMjo&&>,90",
"999qbo&&>,9qzjo&>>,999wMjo&>,99qjo&>>,999999qzzjo&>,99qMjo&&>,90",
"999rbo&&>,9qzjo&>>,99qxmjo&>,99wbo&>>,999999qzzjo&>,9qzMjo&>>,90",
"99qxvo&>>,9qzjo&>>,99qzzjo&>,99wvo&>>,999999qzzjo&,99qzk#&&>,990",
"99qzjo&>>,9qzjo&>>,9qxmzjo&>,99wmjo&>,999999qxmjo&,99qzjo&&>,990",
"00ezj$*2220qzj@*,,20qzzzj+&>,99qzjo&>>199999qxmjo&,99qzjo&&>,990"
};
